<?xml version="1.0" encoding="UTF-8"?>
<svg xmlns="http://www.w3.org/2000/svg"
     xmlns:xlink="http://www.w3.org/1999/xlink"
     version="1.2"
     width="101.6mm" height="101.6mm" viewBox="0 0 101.6 101.6"
     stroke="none"
     fill="#000000"
     stroke-width="0.3"
     font-size="3.88"
>
<g stroke-width="0.27" stroke="#BBBBBB" id="fig-98d3d1f170a74e91a412aa62ac9338c5-element-1">
  <path fill="none" d="M32.9,53.07 L 33.3 54.15"/>
  <path fill="none" d="M33.69,53.06 L 33.3 54.15"/>
  <path fill="none" d="M33.27,49.87 L 33.3 54.15"/>
  <path fill="none" d="M25.69,48.62 L 24.57 48.89"/>
  <path fill="none" d="M25.6,49.4 L 24.57 48.89"/>
  <path fill="none" d="M33.27,49.87 L 24.57 48.89"/>
  <path fill="none" d="M33.68,51.91 L 33.28 50.83"/>
  <path fill="none" d="M32.89,51.92 L 33.28 50.83"/>
  <path fill="none" d="M33.31,55.11 L 33.28 50.83"/>
  <path fill="none" d="M32.2,59.96 L 32.43 61.09"/>
  <path fill="none" d="M32.98,60.07 L 32.43 61.09"/>
  <path fill="none" d="M33.31,55.11 L 32.43 61.09"/>
  <path fill="none" d="M27.63,53.48 L 26.48 53.63"/>
  <path fill="none" d="M27.46,54.25 L 26.48 53.63"/>
  <path fill="none" d="M33.31,55.11 L 26.48 53.63"/>
  <path fill="none" d="M33.4,57.2 L 33.17 56.06"/>
  <path fill="none" d="M32.62,57.08 L 33.17 56.06"/>
  <path fill="none" d="M32.29,62.04 L 33.17 56.06"/>
  <path fill="none" d="M30.86,67.52 L 31.05 68.66"/>
  <path fill="none" d="M31.64,67.67 L 31.05 68.66"/>
  <path fill="none" d="M32.29,62.04 L 31.05 68.66"/>
  <path fill="none" d="M27.7,59.98 L 26.54 59.99"/>
  <path fill="none" d="M27.43,60.73 L 26.54 59.99"/>
  <path fill="none" d="M32.29,62.04 L 26.54 59.99"/>
  <path fill="none" d="M32.3,64.12 L 32.12 62.98"/>
  <path fill="none" d="M31.53,63.98 L 32.12 62.98"/>
  <path fill="none" d="M30.87,69.61 L 32.12 62.98"/>
  <path fill="none" d="M33.88,74.73 L 34.82 75.4"/>
  <path fill="none" d="M34.53,74.28 L 34.82 75.4"/>
  <path fill="none" d="M30.87,69.61 L 34.82 75.4"/>
  <path fill="none" d="M27.95,67.17 L 26.83 66.89"/>
  <path fill="none" d="M27.51,67.83 L 26.83 66.89"/>
  <path fill="none" d="M30.87,69.61 L 26.83 66.89"/>
  <path fill="none" d="M32.35,71.07 L 31.41 70.4"/>
  <path fill="none" d="M31.7,71.52 L 31.41 70.4"/>
  <path fill="none" d="M35.36,76.2 L 31.41 70.4"/>
  <path fill="none" d="M42.99,79.6 L 44.14 79.63"/>
  <path fill="none" d="M43.28,78.87 L 44.14 79.63"/>
  <path fill="none" d="M35.36,76.2 L 44.14 79.63"/>
  <path fill="none" d="M33.65,73.52 L 32.65 72.94"/>
  <path fill="none" d="M33.04,74.03 L 32.65 72.94"/>
  <path fill="none" d="M35.36,76.2 L 32.65 72.94"/>
  <path fill="none" d="M37.41,76.57 L 36.26 76.55"/>
  <path fill="none" d="M37.12,77.31 L 36.26 76.55"/>
  <path fill="none" d="M45.04,79.98 L 36.26 76.55"/>
  <path fill="none" d="M55.57,80.8 L 56.67 80.44"/>
  <path fill="none" d="M55.6,80.01 L 56.67 80.44"/>
  <path fill="none" d="M45.04,79.98 L 56.67 80.44"/>
  <path fill="none" d="M42.72,77.37 L 41.64 76.94"/>
  <path fill="none" d="M42.19,77.95 L 41.64 76.94"/>
  <path fill="none" d="M45.04,79.98 L 41.64 76.94"/>
  <path fill="none" d="M47.1,79.67 L 46 80.02"/>
  <path fill="none" d="M47.07,80.46 L 46 80.02"/>
  <path fill="none" d="M57.63,80.48 L 46 80.02"/>
  <path fill="none" d="M66.48,82.21 L 67.61 81.98"/>
  <path fill="none" d="M66.6,81.43 L 67.61 81.98"/>
  <path fill="none" d="M57.63,80.48 L 67.61 81.98"/>
  <path fill="none" d="M53.46,79.51 L 52.33 79.75"/>
  <path fill="none" d="M53.35,80.29 L 52.33 79.75"/>
  <path fill="none" d="M57.63,80.48 L 52.33 79.75"/>
  <path fill="none" d="M59.71,80.4 L 58.58 80.63"/>
  <path fill="none" d="M59.6,81.18 L 58.58 80.63"/>
  <path fill="none" d="M68.56,82.12 L 58.58 80.63"/>
  <path fill="none" d="M74.32,85.41 L 75.47 85.53"/>
  <path fill="none" d="M74.67,84.7 L 75.47 85.53"/>
  <path fill="none" d="M68.56,82.12 L 75.47 85.53"/>
  <path fill="none" d="M64.47,81.98 L 63.41 82.44"/>
  <path fill="none" d="M64.51,82.77 L 63.41 82.44"/>
  <path fill="none" d="M68.56,82.12 L 63.41 82.44"/>
  <path fill="none" d="M70.57,82.67 L 69.43 82.55"/>
  <path fill="none" d="M70.22,83.38 L 69.43 82.55"/>
  <path fill="none" d="M76.33,85.96 L 69.43 82.55"/>
  <path fill="none" d="M79.01,89.23 L 80.05 89.72"/>
  <path fill="none" d="M79.57,88.67 L 80.05 89.72"/>
  <path fill="none" d="M76.33,85.96 L 80.05 89.72"/>
  <path fill="none" d="M73.33,84.88 L 72.19 85.02"/>
  <path fill="none" d="M73.16,85.65 L 72.19 85.02"/>
  <path fill="none" d="M76.33,85.96 L 72.19 85.02"/>
  <path fill="none" d="M78.05,87.13 L 77.01 86.64"/>
  <path fill="none" d="M77.49,87.69 L 77.01 86.64"/>
  <path fill="none" d="M80.73,90.4 L 77.01 86.64"/>
  <path fill="none" d="M80.38,91.12 L 80.85 92.17"/>
  <path fill="none" d="M81.17,91.06 L 80.85 92.17"/>
  <path fill="none" d="M80.73,90.4 L 80.85 92.17"/>
  <path fill="none" d="M77.93,88.81 L 76.78 88.76"/>
  <path fill="none" d="M77.63,89.54 L 76.78 88.76"/>
  <path fill="none" d="M80.73,90.4 L 76.78 88.76"/>
  <path fill="none" d="M81.26,92.42 L 80.79 91.36"/>
  <path fill="none" d="M80.47,92.47 L 80.79 91.36"/>
  <path fill="none" d="M80.91,93.13 L 80.79 91.36"/>
  <path fill="none" d="M76.92,90.15 L 75.79 89.91"/>
  <path fill="none" d="M76.5,90.82 L 75.79 89.91"/>
  <path fill="none" d="M80.91,93.13 L 75.79 89.91"/>
  <path fill="none" d="M31.19,50.03 L 32.32 49.76"/>
  <path fill="none" d="M31.28,49.25 L 32.32 49.76"/>
  <path fill="none" d="M23.61,48.78 L 32.32 49.76"/>
  <path fill="none" d="M24.39,51.69 L 25.17 52.54"/>
  <path fill="none" d="M25.12,51.39 L 25.17 52.54"/>
  <path fill="none" d="M23.61,48.78 L 25.17 52.54"/>
  <path fill="none" d="M16.03,46.37 L 14.88 46.48"/>
  <path fill="none" d="M15.82,47.13 L 14.88 46.48"/>
  <path fill="none" d="M23.61,48.78 L 14.88 46.48"/>
  <path fill="none" d="M31.23,55.06 L 32.37 54.91"/>
  <path fill="none" d="M31.39,54.29 L 32.37 54.91"/>
  <path fill="none" d="M25.54,53.43 L 32.37 54.91"/>
  <path fill="none" d="M24.76,50.52 L 23.98 49.67"/>
  <path fill="none" d="M24.03,50.82 L 23.98 49.67"/>
  <path fill="none" d="M25.54,53.43 L 23.98 49.67"/>
  <path fill="none" d="M25.21,57.63 L 25.62 58.71"/>
  <path fill="none" d="M26,57.62 L 25.62 58.71"/>
  <path fill="none" d="M25.54,53.43 L 25.62 58.71"/>
  <path fill="none" d="M18.25,50.58 L 17.1 50.61"/>
  <path fill="none" d="M18,51.33 L 17.1 50.61"/>
  <path fill="none" d="M25.54,53.43 L 17.1 50.61"/>
  <path fill="none" d="M30.23,61.73 L 31.39 61.72"/>
  <path fill="none" d="M30.5,60.98 L 31.39 61.72"/>
  <path fill="none" d="M25.64,59.67 L 31.39 61.72"/>
  <path fill="none" d="M25.97,55.47 L 25.56 54.39"/>
  <path fill="none" d="M25.18,55.48 L 25.56 54.39"/>
  <path fill="none" d="M25.64,59.67 L 25.56 54.39"/>
  <path fill="none" d="M25.51,64.34 L 25.97 65.4"/>
  <path fill="none" d="M26.3,64.29 L 25.97 65.4"/>
  <path fill="none" d="M25.64,59.67 L 25.97 65.4"/>
  <path fill="none" d="M20.66,55.83 L 19.54 55.55"/>
  <path fill="none" d="M20.22,56.49 L 19.54 55.55"/>
  <path fill="none" d="M25.64,59.67 L 19.54 55.55"/>
  <path fill="none" d="M28.95,68.79 L 30.07 69.07"/>
  <path fill="none" d="M29.39,68.14 L 30.07 69.07"/>
  <path fill="none" d="M26.03,66.36 L 30.07 69.07"/>
  <path fill="none" d="M26.15,61.69 L 25.69 60.63"/>
  <path fill="none" d="M25.36,61.74 L 25.69 60.63"/>
  <path fill="none" d="M26.03,66.36 L 25.69 60.63"/>
  <path fill="none" d="M30.29,71.06 L 31.35 71.53"/>
  <path fill="none" d="M30.84,70.49 L 31.35 71.53"/>
  <path fill="none" d="M26.03,66.36 L 31.35 71.53"/>
  <path fill="none" d="M24.32,62.05 L 23.48 61.26"/>
  <path fill="none" d="M23.61,62.41 L 23.48 61.26"/>
  <path fill="none" d="M26.03,66.36 L 23.48 61.26"/>
  <path fill="none" d="M33.75,74.88 L 34.75 75.46"/>
  <path fill="none" d="M34.35,74.37 L 34.75 75.46"/>
  <path fill="none" d="M32.04,72.2 L 34.75 75.46"/>
  <path fill="none" d="M27.77,67.5 L 26.72 67.03"/>
  <path fill="none" d="M27.22,68.07 L 26.72 67.03"/>
  <path fill="none" d="M32.04,72.2 L 26.72 67.03"/>
  <path fill="none" d="M38.9,75.8 L 40.05 75.89"/>
  <path fill="none" d="M39.23,75.08 L 40.05 75.89"/>
  <path fill="none" d="M32.04,72.2 L 40.05 75.89"/>
  <path fill="none" d="M31.25,67.1 L 30.61 66.13"/>
  <path fill="none" d="M30.48,67.28 L 30.61 66.13"/>
  <path fill="none" d="M32.04,72.2 L 30.61 66.13"/>
  <path fill="none" d="M43.25,78.91 L 44.32 79.34"/>
  <path fill="none" d="M43.78,78.32 L 44.32 79.34"/>
  <path fill="none" d="M40.93,76.29 L 44.32 79.34"/>
  <path fill="none" d="M34.06,72.7 L 32.91 72.6"/>
  <path fill="none" d="M33.73,73.42 L 32.91 72.6"/>
  <path fill="none" d="M40.93,76.29 L 32.91 72.6"/>
  <path fill="none" d="M49.3,79.37 L 50.46 79.33"/>
  <path fill="none" d="M49.54,78.62 L 50.46 79.33"/>
  <path fill="none" d="M40.93,76.29 L 50.46 79.33"/>
  <path fill="none" d="M39.92,71.58 L 39.23 70.66"/>
  <path fill="none" d="M39.16,71.81 L 39.23 70.66"/>
  <path fill="none" d="M40.93,76.29 L 39.23 70.66"/>
  <path fill="none" d="M55.55,80.59 L 56.68 80.35"/>
  <path fill="none" d="M55.66,79.81 L 56.68 80.35"/>
  <path fill="none" d="M51.37,79.62 L 56.68 80.35"/>
  <path fill="none" d="M43,76.54 L 41.85 76.59"/>
  <path fill="none" d="M42.76,77.29 L 41.85 76.59"/>
  <path fill="none" d="M51.37,79.62 L 41.85 76.59"/>
  <path fill="none" d="M60.37,82.37 L 61.52 82.26"/>
  <path fill="none" d="M60.57,81.61 L 61.52 82.26"/>
  <path fill="none" d="M51.37,79.62 L 61.52 82.26"/>
  <path fill="none" d="M49.26,75.44 L 48.35 74.72"/>
  <path fill="none" d="M48.58,75.85 L 48.35 74.72"/>
  <path fill="none" d="M51.37,79.62 L 48.35 74.72"/>
  <path fill="none" d="M66.55,82.64 L 67.6 82.18"/>
  <path fill="none" d="M66.5,81.86 L 67.6 82.18"/>
  <path fill="none" d="M62.45,82.5 L 67.6 82.18"/>
  <path fill="none" d="M53.45,79.75 L 52.31 79.86"/>
  <path fill="none" d="M53.26,80.52 L 52.31 79.86"/>
  <path fill="none" d="M62.45,82.5 L 52.31 79.86"/>
  <path fill="none" d="M69.17,84.67 L 70.32 84.56"/>
  <path fill="none" d="M69.37,83.91 L 70.32 84.56"/>
  <path fill="none" d="M62.45,82.5 L 70.32 84.56"/>
  <path fill="none" d="M59.4,78.96 L 58.35 78.48"/>
  <path fill="none" d="M58.85,79.52 L 58.35 78.48"/>
  <path fill="none" d="M62.45,82.5 L 58.35 78.48"/>
  <path fill="none" d="M74.24,85.89 L 75.39 85.75"/>
  <path fill="none" d="M74.42,85.12 L 75.39 85.75"/>
  <path fill="none" d="M71.25,84.81 L 75.39 85.75"/>
  <path fill="none" d="M64.53,82.64 L 63.38 82.75"/>
  <path fill="none" d="M64.33,83.41 L 63.38 82.75"/>
  <path fill="none" d="M71.25,84.81 L 63.38 82.75"/>
  <path fill="none" d="M74.03,87.46 L 75.13 87.81"/>
  <path fill="none" d="M74.51,86.83 L 75.13 87.81"/>
  <path fill="none" d="M71.25,84.81 L 75.13 87.81"/>
  <path fill="none" d="M67.56,82.17 L 66.43 81.96"/>
  <path fill="none" d="M67.16,82.85 L 66.43 81.96"/>
  <path fill="none" d="M71.25,84.81 L 66.43 81.96"/>
  <path fill="none" d="M78.69,89.98 L 79.84 90.03"/>
  <path fill="none" d="M78.99,89.25 L 79.84 90.03"/>
  <path fill="none" d="M75.89,88.4 L 79.84 90.03"/>
  <path fill="none" d="M73.11,85.75 L 72.01 85.4"/>
  <path fill="none" d="M72.63,86.37 L 72.01 85.4"/>
  <path fill="none" d="M75.89,88.4 L 72.01 85.4"/>
  <path fill="none" d="M76.07,87.62 L 75.63 88.68"/>
  <path fill="none" d="M76.65,88.15 L 75.63 88.68"/>
  <path fill="none" d="M75.89,88.4 L 75.63 88.68"/>
  <path fill="none" d="M70.9,86.49 L 69.74 86.56"/>
  <path fill="none" d="M70.67,87.25 L 69.74 86.56"/>
  <path fill="none" d="M75.89,88.4 L 69.74 86.56"/>
  <path fill="none" d="M78.97,92.38 L 80.1 92.62"/>
  <path fill="none" d="M79.39,91.71 L 80.1 92.62"/>
  <path fill="none" d="M74.98,89.39 L 80.1 92.62"/>
  <path fill="none" d="M74.8,90.17 L 75.24 89.11"/>
  <path fill="none" d="M74.22,89.64 L 75.24 89.11"/>
  <path fill="none" d="M74.98,89.39 L 75.24 89.11"/>
  <path fill="none" d="M69.47,85.8 L 68.33 85.61"/>
  <path fill="none" d="M69.08,86.49 L 68.33 85.61"/>
  <path fill="none" d="M74.98,89.39 L 68.33 85.61"/>
  <path fill="none" d="M21.53,48.64 L 22.68 48.53"/>
  <path fill="none" d="M21.73,47.87 L 22.68 48.53"/>
  <path fill="none" d="M13.95,46.23 L 22.68 48.53"/>
  <path fill="none" d="M14.85,48.7 L 15.72 49.46"/>
  <path fill="none" d="M15.55,48.32 L 15.72 49.46"/>
  <path fill="none" d="M13.95,46.23 L 15.72 49.46"/>
  <path fill="none" d="M10.22,42.16 L 9.16 41.7"/>
  <path fill="none" d="M9.68,42.73 L 9.16 41.7"/>
  <path fill="none" d="M13.95,46.23 L 9.16 41.7"/>
  <path fill="none" d="M23.48,53.15 L 24.63 53.12"/>
  <path fill="none" d="M23.73,52.41 L 24.63 53.12"/>
  <path fill="none" d="M16.19,50.31 L 24.63 53.12"/>
  <path fill="none" d="M15.28,47.83 L 14.41 47.07"/>
  <path fill="none" d="M14.59,48.21 L 14.41 47.07"/>
  <path fill="none" d="M16.19,50.31 L 14.41 47.07"/>
  <path fill="none" d="M17.42,53.4 L 18.28 54.17"/>
  <path fill="none" d="M18.11,53.02 L 18.28 54.17"/>
  <path fill="none" d="M16.19,50.31 L 18.28 54.17"/>
  <path fill="none" d="M13.59,45.36 L 12.69 44.64"/>
  <path fill="none" d="M12.92,45.77 L 12.69 44.64"/>
  <path fill="none" d="M16.19,50.31 L 12.69 44.64"/>
  <path fill="none" d="M23.72,58.85 L 24.84 59.13"/>
  <path fill="none" d="M24.16,58.2 L 24.84 59.13"/>
  <path fill="none" d="M18.74,55.01 L 24.84 59.13"/>
  <path fill="none" d="M17.51,51.92 L 16.65 51.15"/>
  <path fill="none" d="M16.82,52.29 L 16.65 51.15"/>
  <path fill="none" d="M18.74,55.01 L 16.65 51.15"/>
  <path fill="none" d="M21.47,59.05 L 22.45 59.65"/>
  <path fill="none" d="M22.08,58.55 L 22.45 59.65"/>
  <path fill="none" d="M18.74,55.01 L 22.45 59.65"/>
  <path fill="none" d="M18.13,49.53 L 17.55 48.54"/>
  <path fill="none" d="M17.36,49.67 L 17.55 48.54"/>
  <path fill="none" d="M18.74,55.01 L 17.55 48.54"/>
  <path fill="none" d="M24.76,64.7 L 25.6 65.5"/>
  <path fill="none" d="M25.47,64.35 L 25.6 65.5"/>
  <path fill="none" d="M23.05,60.4 L 25.6 65.5"/>
  <path fill="none" d="M20.33,56.36 L 19.34 55.76"/>
  <path fill="none" d="M19.71,56.86 L 19.34 55.76"/>
  <path fill="none" d="M23.05,60.4 L 19.34 55.76"/>
  <path fill="none" d="M28.46,64.41 L 29.59 64.67"/>
  <path fill="none" d="M28.9,63.75 L 29.59 64.67"/>
  <path fill="none" d="M23.05,60.4 L 29.59 64.67"/>
  <path fill="none" d="M23.85,54.33 L 23.53 53.22"/>
  <path fill="none" d="M23.06,54.28 L 23.53 53.22"/>
  <path fill="none" d="M23.05,60.4 L 23.53 53.22"/>
  <path fill="none" d="M31.18,70.3 L 31.82 71.26"/>
  <path fill="none" d="M31.95,70.12 L 31.82 71.26"/>
  <path fill="none" d="M30.39,65.2 L 31.82 71.26"/>
  <path fill="none" d="M24.98,61.19 L 23.86 60.92"/>
  <path fill="none" d="M24.55,61.85 L 23.86 60.92"/>
  <path fill="none" d="M30.39,65.2 L 23.86 60.92"/>
  <path fill="none" d="M36.96,69.13 L 38.1 69.29"/>
  <path fill="none" d="M37.33,68.43 L 38.1 69.29"/>
  <path fill="none" d="M30.39,65.2 L 38.1 69.29"/>
  <path fill="none" d="M31.45,59.15 L 31.18 58.03"/>
  <path fill="none" d="M30.67,59.07 L 31.18 58.03"/>
  <path fill="none" d="M30.39,65.2 L 31.18 58.03"/>
  <path fill="none" d="M39.96,74.45 L 40.65 75.37"/>
  <path fill="none" d="M40.72,74.22 L 40.65 75.37"/>
  <path fill="none" d="M38.95,69.74 L 40.65 75.37"/>
  <path fill="none" d="M32.39,65.81 L 31.24 65.65"/>
  <path fill="none" d="M32.02,66.51 L 31.24 65.65"/>
  <path fill="none" d="M38.95,69.74 L 31.24 65.65"/>
  <path fill="none" d="M45.82,73.39 L 46.97 73.5"/>
  <path fill="none" d="M46.16,72.68 L 46.97 73.5"/>
  <path fill="none" d="M38.95,69.74 L 46.97 73.5"/>
  <path fill="none" d="M39.77,63.81 L 39.45 62.69"/>
  <path fill="none" d="M38.98,63.75 L 39.45 62.69"/>
  <path fill="none" d="M38.95,69.74 L 39.45 62.69"/>
  <path fill="none" d="M49.96,78.08 L 50.87 78.8"/>
  <path fill="none" d="M50.63,77.67 L 50.87 78.8"/>
  <path fill="none" d="M47.84,73.91 L 50.87 78.8"/>
  <path fill="none" d="M40.97,70.25 L 39.82 70.14"/>
  <path fill="none" d="M40.64,70.96 L 39.82 70.14"/>
  <path fill="none" d="M47.84,73.91 L 39.82 70.14"/>
  <path fill="none" d="M55.61,77.41 L 56.77 77.45"/>
  <path fill="none" d="M55.91,76.68 L 56.77 77.45"/>
  <path fill="none" d="M47.84,73.91 L 56.77 77.45"/>
  <path fill="none" d="M47.72,68.58 L 47.22 67.54"/>
  <path fill="none" d="M46.94,68.66 L 47.22 67.54"/>
  <path fill="none" d="M47.84,73.91 L 47.22 67.54"/>
  <path fill="none" d="M60.71,81.35 L 61.76 81.83"/>
  <path fill="none" d="M61.26,80.79 L 61.76 81.83"/>
  <path fill="none" d="M57.66,77.8 L 61.76 81.83"/>
  <path fill="none" d="M49.89,74.29 L 48.74 74.26"/>
  <path fill="none" d="M49.6,75.03 L 48.74 74.26"/>
  <path fill="none" d="M57.66,77.8 L 48.74 74.26"/>
  <path fill="none" d="M63.58,80.97 L 64.73 81.06"/>
  <path fill="none" d="M63.91,80.25 L 64.73 81.06"/>
  <path fill="none" d="M57.66,77.8 L 64.73 81.06"/>
  <path fill="none" d="M56.2,72.89 L 55.44 72.02"/>
  <path fill="none" d="M55.46,73.18 L 55.44 72.02"/>
  <path fill="none" d="M57.66,77.8 L 55.44 72.02"/>
  <path fill="none" d="M69.29,84.11 L 70.42 84.32"/>
  <path fill="none" d="M69.69,83.43 L 70.42 84.32"/>
  <path fill="none" d="M65.6,81.47 L 70.42 84.32"/>
  <path fill="none" d="M59.69,78.3 L 58.54 78.2"/>
  <path fill="none" d="M59.36,79.02 L 58.54 78.2"/>
  <path fill="none" d="M65.6,81.47 L 58.54 78.2"/>
  <path fill="none" d="M67.36,84.8 L 68.29 85.49"/>
  <path fill="none" d="M68.01,84.37 L 68.29 85.49"/>
  <path fill="none" d="M65.6,81.47 L 68.29 85.49"/>
  <path fill="none" d="M62.81,77.72 L 61.8 77.17"/>
  <path fill="none" d="M62.22,78.24 L 61.8 77.17"/>
  <path fill="none" d="M65.6,81.47 L 61.8 77.17"/>
  <path fill="none" d="M73.81,88.19 L 74.97 88.12"/>
  <path fill="none" d="M74.04,87.43 L 74.97 88.12"/>
  <path fill="none" d="M68.82,86.29 L 74.97 88.12"/>
  <path fill="none" d="M67.07,82.95 L 66.14 82.27"/>
  <path fill="none" d="M66.41,83.39 L 66.14 82.27"/>
  <path fill="none" d="M68.82,86.29 L 66.14 82.27"/>
  <path fill="none" d="M69.3,86.18 L 68.22 85.77"/>
  <path fill="none" d="M68.78,86.78 L 68.22 85.77"/>
  <path fill="none" d="M68.82,86.29 L 68.22 85.77"/>
  <path fill="none" d="M64.14,82.44 L 63.02 82.13"/>
  <path fill="none" d="M63.68,83.08 L 63.02 82.13"/>
  <path fill="none" d="M68.82,86.29 L 63.02 82.13"/>
  <path fill="none" d="M73,88.72 L 74.14 88.92"/>
  <path fill="none" d="M73.39,88.04 L 74.14 88.92"/>
  <path fill="none" d="M67.5,85.14 L 74.14 88.92"/>
  <path fill="none" d="M67.02,85.24 L 68.09 85.66"/>
  <path fill="none" d="M67.54,84.65 L 68.09 85.66"/>
  <path fill="none" d="M67.5,85.14 L 68.09 85.66"/>
  <path fill="none" d="M61.72,80.92 L 60.6 80.66"/>
  <path fill="none" d="M61.29,81.58 L 60.6 80.66"/>
  <path fill="none" d="M67.5,85.14 L 60.6 80.66"/>
  <path fill="none" d="M12.19,45.11 L 13.25 45.57"/>
  <path fill="none" d="M12.73,44.54 L 13.25 45.57"/>
  <path fill="none" d="M8.47,41.04 L 13.25 45.57"/>
  <path fill="none" d="M10.31,42.91 L 11.41 43.25"/>
  <path fill="none" d="M10.78,42.28 L 11.41 43.25"/>
  <path fill="none" d="M8.47,41.04 L 11.41 43.25"/>
  <path fill="none" d="M8.87,36.55 L 8.48 35.46"/>
  <path fill="none" d="M8.08,36.55 L 8.48 35.46"/>
  <path fill="none" d="M8.47,41.04 L 8.48 35.46"/>
  <path fill="none" d="M14.77,48.77 L 15.68 49.49"/>
  <path fill="none" d="M15.45,48.36 L 15.68 49.49"/>
  <path fill="none" d="M12.18,43.82 L 15.68 49.49"/>
  <path fill="none" d="M10.34,41.95 L 9.24 41.61"/>
  <path fill="none" d="M9.87,42.58 L 9.24 41.61"/>
  <path fill="none" d="M12.18,43.82 L 9.24 41.61"/>
  <path fill="none" d="M15.49,46.71 L 16.6 47.02"/>
  <path fill="none" d="M15.95,46.07 L 16.6 47.02"/>
  <path fill="none" d="M12.18,43.82 L 16.6 47.02"/>
  <path fill="none" d="M13.54,38.73 L 13.35 37.59"/>
  <path fill="none" d="M12.76,38.59 L 13.35 37.59"/>
  <path fill="none" d="M12.18,43.82 L 13.35 37.59"/>
  <path fill="none" d="M17.98,53.07 L 18.57 54.07"/>
  <path fill="none" d="M18.76,52.93 L 18.57 54.07"/>
  <path fill="none" d="M17.37,47.59 L 18.57 54.07"/>
  <path fill="none" d="M14.07,44.71 L 12.96 44.39"/>
  <path fill="none" d="M13.61,45.34 L 12.96 44.39"/>
  <path fill="none" d="M17.37,47.59 L 12.96 44.39"/>
  <path fill="none" d="M21.72,51.35 L 22.82 51.68"/>
  <path fill="none" d="M22.19,50.72 L 22.82 51.68"/>
  <path fill="none" d="M17.37,47.59 L 22.82 51.68"/>
  <path fill="none" d="M19.51,41.92 L 19.45 40.76"/>
  <path fill="none" d="M18.76,41.69 L 19.45 40.76"/>
  <path fill="none" d="M17.37,47.59 L 19.45 40.76"/>
  <path fill="none" d="M22.79,58.33 L 23.12 59.44"/>
  <path fill="none" d="M23.58,58.38 L 23.12 59.44"/>
  <path fill="none" d="M23.59,52.26 L 23.12 59.44"/>
  <path fill="none" d="M19.25,48.5 L 18.14 48.17"/>
  <path fill="none" d="M18.77,49.14 L 18.14 48.17"/>
  <path fill="none" d="M23.59,52.26 L 18.14 48.17"/>
  <path fill="none" d="M29.34,56.33 L 30.47 56.57"/>
  <path fill="none" d="M29.76,55.66 L 30.47 56.57"/>
  <path fill="none" d="M23.59,52.26 L 30.47 56.57"/>
  <path fill="none" d="M26.54,46.07 L 26.59 44.91"/>
  <path fill="none" d="M25.81,45.77 L 26.59 44.91"/>
  <path fill="none" d="M23.59,52.26 L 26.59 44.91"/>
  <path fill="none" d="M30.23,63.12 L 30.5 64.24"/>
  <path fill="none" d="M31.01,63.21 L 30.5 64.24"/>
  <path fill="none" d="M31.29,57.08 L 30.5 64.24"/>
  <path fill="none" d="M25.53,53.01 L 24.4 52.77"/>
  <path fill="none" d="M25.11,53.68 L 24.4 52.77"/>
  <path fill="none" d="M31.29,57.08 L 24.4 52.77"/>
  <path fill="none" d="M37.54,61.07 L 38.68 61.26"/>
  <path fill="none" d="M37.93,60.38 L 38.68 61.26"/>
  <path fill="none" d="M31.29,57.08 L 38.68 61.26"/>
  <path fill="none" d="M34.44,50.4 L 34.48 49.25"/>
  <path fill="none" d="M33.7,50.1 L 34.48 49.25"/>
  <path fill="none" d="M31.29,57.08 L 34.48 49.25"/>
  <path fill="none" d="M38.7,67.67 L 39.02 68.78"/>
  <path fill="none" d="M39.49,67.72 L 39.02 68.78"/>
  <path fill="none" d="M39.52,61.74 L 39.02 68.78"/>
  <path fill="none" d="M33.26,57.74 L 32.12 57.55"/>
  <path fill="none" d="M32.87,58.43 L 32.12 57.55"/>
  <path fill="none" d="M39.52,61.74 L 32.12 57.55"/>
  <path fill="none" d="M45.19,65.82 L 46.32 66.07"/>
  <path fill="none" d="M45.62,65.15 L 46.32 66.07"/>
  <path fill="none" d="M39.52,61.74 L 46.32 66.07"/>
  <path fill="none" d="M41.94,55.63 L 41.91 54.48"/>
  <path fill="none" d="M41.19,55.38 L 41.91 54.48"/>
  <path fill="none" d="M39.52,61.74 L 41.91 54.48"/>
  <path fill="none" d="M47.25,71.91 L 47.75 72.95"/>
  <path fill="none" d="M48.04,71.83 L 47.75 72.95"/>
  <path fill="none" d="M47.13,66.58 L 47.75 72.95"/>
  <path fill="none" d="M41.46,62.5 L 40.33 62.25"/>
  <path fill="none" d="M41.03,63.17 L 40.33 62.25"/>
  <path fill="none" d="M47.13,66.58 L 40.33 62.25"/>
  <path fill="none" d="M53.12,70.45 L 54.26 70.65"/>
  <path fill="none" d="M53.51,69.77 L 54.26 70.65"/>
  <path fill="none" d="M47.13,66.58 L 54.26 70.65"/>
  <path fill="none" d="M48.83,60.91 L 48.69 59.76"/>
  <path fill="none" d="M48.06,60.73 L 48.69 59.76"/>
  <path fill="none" d="M47.13,66.58 L 48.69 59.76"/>
  <path fill="none" d="M56.56,76.03 L 57.32 76.9"/>
  <path fill="none" d="M57.3,75.75 L 57.32 76.9"/>
  <path fill="none" d="M55.09,71.12 L 57.32 76.9"/>
  <path fill="none" d="M49.1,67.26 L 47.97 67.06"/>
  <path fill="none" d="M48.71,67.94 L 47.97 67.06"/>
  <path fill="none" d="M55.09,71.12 L 47.97 67.06"/>
  <path fill="none" d="M59.36,75.4 L 60.44 75.81"/>
  <path fill="none" d="M59.88,74.8 L 60.44 75.81"/>
  <path fill="none" d="M55.09,71.12 L 60.44 75.81"/>
  <path fill="none" d="M54.9,66.55 L 54.37 65.52"/>
  <path fill="none" d="M54.12,66.65 L 54.37 65.52"/>
  <path fill="none" d="M55.09,71.12 L 54.37 65.52"/>
  <path fill="none" d="M63.95,80.2 L 64.96 80.75"/>
  <path fill="none" d="M64.54,79.67 L 64.96 80.75"/>
  <path fill="none" d="M61.16,76.45 L 64.96 80.75"/>
  <path fill="none" d="M56.89,72.18 L 55.81 71.76"/>
  <path fill="none" d="M56.37,72.77 L 55.81 71.76"/>
  <path fill="none" d="M61.16,76.45 L 55.81 71.76"/>
  <path fill="none" d="M61.43,79.65 L 62.04 80.63"/>
  <path fill="none" d="M62.21,79.49 L 62.04 80.63"/>
  <path fill="none" d="M61.16,76.45 L 62.04 80.63"/>
  <path fill="none" d="M59.53,72.4 L 58.68 71.61"/>
  <path fill="none" d="M58.82,72.76 L 58.68 71.61"/>
  <path fill="none" d="M61.16,76.45 L 58.68 71.61"/>
  <path fill="none" d="M66.93,85.41 L 68.04 85.73"/>
  <path fill="none" d="M67.39,84.77 L 68.04 85.73"/>
  <path fill="none" d="M62.24,81.57 L 68.04 85.73"/>
  <path fill="none" d="M61.97,78.37 L 61.36 77.39"/>
  <path fill="none" d="M61.2,78.53 L 61.36 77.39"/>
  <path fill="none" d="M62.24,81.57 L 61.36 77.39"/>
  <path fill="none" d="M61.76,80.83 L 60.62 80.62"/>
  <path fill="none" d="M61.36,81.51 L 60.62 80.62"/>
  <path fill="none" d="M62.24,81.57 L 60.62 80.62"/>
  <path fill="none" d="M58.48,77.88 L 57.4 77.48"/>
  <path fill="none" d="M57.97,78.48 L 57.4 77.48"/>
  <path fill="none" d="M62.24,81.57 L 57.4 77.48"/>
  <path fill="none" d="M65.57,84.35 L 66.69 84.61"/>
  <path fill="none" d="M66,83.69 L 66.69 84.61"/>
  <path fill="none" d="M59.79,80.13 L 66.69 84.61"/>
  <path fill="none" d="M60.28,80.88 L 61.41 81.08"/>
  <path fill="none" d="M60.68,80.19 L 61.41 81.08"/>
  <path fill="none" d="M59.79,80.13 L 61.41 81.08"/>
  <path fill="none" d="M55.27,80.17 L 54.23 80.67"/>
  <path fill="none" d="M55.35,80.96 L 54.23 80.67"/>
  <path fill="none" d="M59.79,80.13 L 54.23 80.67"/>
  <path fill="none" d="M8.08,38.99 L 8.47 40.07"/>
  <path fill="none" d="M8.87,38.99 L 8.47 40.07"/>
  <path fill="none" d="M8.48,34.5 L 8.47 40.07"/>
  <path fill="none" d="M11.49,36.21 L 12.65 36.27"/>
  <path fill="none" d="M11.8,35.48 L 12.65 36.27"/>
  <path fill="none" d="M8.48,34.5 L 12.65 36.27"/>
  <path fill="none" d="M12.59,31.11 L 13.1 30.07"/>
  <path fill="none" d="M12.04,30.54 L 13.1 30.07"/>
  <path fill="none" d="M8.48,34.5 L 13.1 30.07"/>
  <path fill="none" d="M12.17,41.74 L 12.36 42.88"/>
  <path fill="none" d="M12.95,41.88 L 12.36 42.88"/>
  <path fill="none" d="M13.53,36.65 L 12.36 42.88"/>
  <path fill="none" d="M10.52,34.94 L 9.37 34.88"/>
  <path fill="none" d="M10.21,35.66 L 9.37 34.88"/>
  <path fill="none" d="M13.53,36.65 L 9.37 34.88"/>
  <path fill="none" d="M17.73,39.26 L 18.88 39.4"/>
  <path fill="none" d="M18.09,38.55 L 18.88 39.4"/>
  <path fill="none" d="M13.53,36.65 L 18.88 39.4"/>
  <path fill="none" d="M17.32,31.92 L 17.61 30.8"/>
  <path fill="none" d="M16.67,31.47 L 17.61 30.8"/>
  <path fill="none" d="M13.53,36.65 L 17.61 30.8"/>
  <path fill="none" d="M17.59,45.52 L 17.65 46.67"/>
  <path fill="none" d="M18.35,45.75 L 17.65 46.67"/>
  <path fill="none" d="M19.73,39.84 L 17.65 46.67"/>
  <path fill="none" d="M15.53,37.23 L 14.39 37.09"/>
  <path fill="none" d="M15.17,37.94 L 14.39 37.09"/>
  <path fill="none" d="M19.73,39.84 L 14.39 37.09"/>
  <path fill="none" d="M24.98,43.34 L 26.12 43.54"/>
  <path fill="none" d="M25.38,42.66 L 26.12 43.54"/>
  <path fill="none" d="M19.73,39.84 L 26.12 43.54"/>
  <path fill="none" d="M24.01,34.54 L 24.32 33.43"/>
  <path fill="none" d="M23.36,34.08 L 24.32 33.43"/>
  <path fill="none" d="M19.73,39.84 L 24.32 33.43"/>
  <path fill="none" d="M24,50.22 L 23.95 51.37"/>
  <path fill="none" d="M24.73,50.52 L 23.95 51.37"/>
  <path fill="none" d="M26.95,44.02 L 23.95 51.37"/>
  <path fill="none" d="M21.7,40.53 L 20.57 40.33"/>
  <path fill="none" d="M21.31,41.21 L 20.57 40.33"/>
  <path fill="none" d="M26.95,44.02 L 20.57 40.33"/>
  <path fill="none" d="M32.86,47.72 L 34 47.9"/>
  <path fill="none" d="M33.24,47.03 L 34 47.9"/>
  <path fill="none" d="M26.95,44.02 L 34 47.9"/>
  <path fill="none" d="M31.43,38.21 L 31.72 37.09"/>
  <path fill="none" d="M30.78,37.76 L 31.72 37.09"/>
  <path fill="none" d="M26.95,44.02 L 31.72 37.09"/>
  <path fill="none" d="M31.69,55.03 L 31.65 56.19"/>
  <path fill="none" d="M32.42,55.33 L 31.65 56.19"/>
  <path fill="none" d="M34.84,48.36 L 31.65 56.19"/>
  <path fill="none" d="M28.94,44.66 L 27.79 44.49"/>
  <path fill="none" d="M28.56,45.35 L 27.79 44.49"/>
  <path fill="none" d="M34.84,48.36 L 27.79 44.49"/>
  <path fill="none" d="M40.31,52.7 L 41.42 53.01"/>
  <path fill="none" d="M40.76,52.06 L 41.42 53.01"/>
  <path fill="none" d="M34.84,48.36 L 41.42 53.01"/>
  <path fill="none" d="M39.16,42.76 L 39.44 41.65"/>
  <path fill="none" d="M38.5,42.32 L 39.44 41.65"/>
  <path fill="none" d="M34.84,48.36 L 39.44 41.65"/>
  <path fill="none" d="M39.78,59.67 L 39.82 60.82"/>
  <path fill="none" d="M40.53,59.91 L 39.82 60.82"/>
  <path fill="none" d="M42.21,53.56 L 39.82 60.82"/>
  <path fill="none" d="M36.74,49.22 L 35.63 48.91"/>
  <path fill="none" d="M36.29,49.86 L 35.63 48.91"/>
  <path fill="none" d="M42.21,53.56 L 35.63 48.91"/>
  <path fill="none" d="M47.05,57.87 L 48.14 58.23"/>
  <path fill="none" d="M47.53,57.25 L 48.14 58.23"/>
  <path fill="none" d="M42.21,53.56 L 48.14 58.23"/>
  <path fill="none" d="M46.41,47.85 L 46.68 46.73"/>
  <path fill="none" d="M45.75,47.42 L 46.68 46.73"/>
  <path fill="none" d="M42.21,53.56 L 46.68 46.73"/>
  <path fill="none" d="M47.2,64.5 L 47.34 65.65"/>
  <path fill="none" d="M47.97,64.68 L 47.34 65.65"/>
  <path fill="none" d="M48.9,58.83 L 47.34 65.65"/>
  <path fill="none" d="M44.06,54.52 L 42.96 54.16"/>
  <path fill="none" d="M43.57,55.14 L 42.96 54.16"/>
  <path fill="none" d="M48.9,58.83 L 42.96 54.16"/>
  <path fill="none" d="M52.57,63.34 L 53.6 63.87"/>
  <path fill="none" d="M53.15,62.8 L 53.6 63.87"/>
  <path fill="none" d="M48.9,58.83 L 53.6 63.87"/>
  <path fill="none" d="M52.34,53.72 L 52.54 52.59"/>
  <path fill="none" d="M51.66,53.32 L 52.54 52.59"/>
  <path fill="none" d="M48.9,58.83 L 52.54 52.59"/>
  <path fill="none" d="M54.44,69.14 L 54.97 70.17"/>
  <path fill="none" d="M55.22,69.04 L 54.97 70.17"/>
  <path fill="none" d="M54.25,64.57 L 54.97 70.17"/>
  <path fill="none" d="M50.58,60.05 L 49.56 59.53"/>
  <path fill="none" d="M50.01,60.59 L 49.56 59.53"/>
  <path fill="none" d="M54.25,64.57 L 49.56 59.53"/>
  <path fill="none" d="M56.8,69.25 L 57.72 69.95"/>
  <path fill="none" d="M57.46,68.82 L 57.72 69.95"/>
  <path fill="none" d="M54.25,64.57 L 57.72 69.95"/>
  <path fill="none" d="M56.55,60.05 L 56.6 58.89"/>
  <path fill="none" d="M55.82,59.75 L 56.6 58.89"/>
  <path fill="none" d="M54.25,64.57 L 56.6 58.89"/>
  <path fill="none" d="M59.88,74.81 L 60.72 75.59"/>
  <path fill="none" d="M60.58,74.45 L 60.72 75.59"/>
  <path fill="none" d="M58.24,70.76 L 60.72 75.59"/>
  <path fill="none" d="M55.69,66.08 L 54.77 65.38"/>
  <path fill="none" d="M55.03,66.5 L 54.77 65.38"/>
  <path fill="none" d="M58.24,70.76 L 54.77 65.38"/>
  <path fill="none" d="M56.79,74.78 L 56.9 75.93"/>
  <path fill="none" d="M57.56,74.98 L 56.9 75.93"/>
  <path fill="none" d="M58.24,70.76 L 56.9 75.93"/>
  <path fill="none" d="M58.14,66.85 L 57.61 65.83"/>
  <path fill="none" d="M57.35,66.95 L 57.61 65.83"/>
  <path fill="none" d="M58.24,70.76 L 57.61 65.83"/>
  <path fill="none" d="M60.42,80.55 L 61.51 80.95"/>
  <path fill="none" d="M60.93,79.95 L 61.51 80.95"/>
  <path fill="none" d="M56.66,76.86 L 61.51 80.95"/>
  <path fill="none" d="M58.11,72.84 L 58 71.69"/>
  <path fill="none" d="M57.34,72.64 L 58 71.69"/>
  <path fill="none" d="M56.66,76.86 L 58 71.69"/>
  <path fill="none" d="M54.32,78.96 L 53.9 80.04"/>
  <path fill="none" d="M54.91,79.48 L 53.9 80.04"/>
  <path fill="none" d="M56.66,76.86 L 53.9 80.04"/>
  <path fill="none" d="M55.47,73.25 L 54.67 72.42"/>
  <path fill="none" d="M54.75,73.57 L 54.67 72.42"/>
  <path fill="none" d="M56.66,76.86 L 54.67 72.42"/>
  <path fill="none" d="M57.79,80.72 L 58.83 80.23"/>
  <path fill="none" d="M57.72,79.94 L 58.83 80.23"/>
  <path fill="none" d="M53.27,80.76 L 58.83 80.23"/>
  <path fill="none" d="M55.62,78.67 L 56.03 77.59"/>
  <path fill="none" d="M55.02,78.15 L 56.03 77.59"/>
  <path fill="none" d="M53.27,80.76 L 56.03 77.59"/>
  <path fill="none" d="M53.01,78.33 L 52.35 77.38"/>
  <path fill="none" d="M52.25,78.54 L 52.35 77.38"/>
  <path fill="none" d="M53.27,80.76 L 52.35 77.38"/>
  <path fill="none" d="M9.69,32.8 L 9.18 33.83"/>
  <path fill="none" d="M10.24,33.37 L 9.18 33.83"/>
  <path fill="none" d="M13.79,29.41 L 9.18 33.83"/>
  <path fill="none" d="M16.08,30.12 L 17.21 29.88"/>
  <path fill="none" d="M16.19,29.34 L 17.21 29.88"/>
  <path fill="none" d="M13.79,29.41 L 17.21 29.88"/>
  <path fill="none" d="M20.7,28.6 L 21.7 28.02"/>
  <path fill="none" d="M20.56,27.82 L 21.7 28.02"/>
  <path fill="none" d="M13.79,29.41 L 21.7 28.02"/>
  <path fill="none" d="M14.38,34.74 L 14.08 35.86"/>
  <path fill="none" d="M15.03,35.2 L 14.08 35.86"/>
  <path fill="none" d="M18.17,30.01 L 14.08 35.86"/>
  <path fill="none" d="M15.88,29.3 L 14.75 29.54"/>
  <path fill="none" d="M15.77,30.08 L 14.75 29.54"/>
  <path fill="none" d="M18.17,30.01 L 14.75 29.54"/>
  <path fill="none" d="M22.83,32.27 L 23.98 32.29"/>
  <path fill="none" d="M23.11,31.53 L 23.98 32.29"/>
  <path fill="none" d="M18.17,30.01 L 23.98 32.29"/>
  <path fill="none" d="M24.01,26.3 L 24.66 25.35"/>
  <path fill="none" d="M23.54,25.66 L 24.66 25.35"/>
  <path fill="none" d="M18.17,30.01 L 24.66 25.35"/>
  <path fill="none" d="M20.6,37.95 L 20.29 39.06"/>
  <path fill="none" d="M21.24,38.41 L 20.29 39.06"/>
  <path fill="none" d="M24.88,32.64 L 20.29 39.06"/>
  <path fill="none" d="M20.22,30.39 L 19.06 30.37"/>
  <path fill="none" d="M19.93,31.13 L 19.06 30.37"/>
  <path fill="none" d="M24.88,32.64 L 19.06 30.37"/>
  <path fill="none" d="M30.26,35.75 L 31.41 35.87"/>
  <path fill="none" d="M30.61,35.04 L 31.41 35.87"/>
  <path fill="none" d="M24.88,32.64 L 31.41 35.87"/>
  <path fill="none" d="M30.34,27.75 L 30.82 26.71"/>
  <path fill="none" d="M29.78,27.19 L 30.82 26.71"/>
  <path fill="none" d="M24.88,32.64 L 30.82 26.71"/>
  <path fill="none" d="M27.79,42.11 L 27.5 43.23"/>
  <path fill="none" d="M28.44,42.56 L 27.5 43.23"/>
  <path fill="none" d="M32.27,36.3 L 27.5 43.23"/>
  <path fill="none" d="M26.89,33.2 L 25.74 33.07"/>
  <path fill="none" d="M26.54,33.91 L 25.74 33.07"/>
  <path fill="none" d="M32.27,36.3 L 25.74 33.07"/>
  <path fill="none" d="M38.02,40.15 L 39.16 40.36"/>
  <path fill="none" d="M38.42,39.47 L 39.16 40.36"/>
  <path fill="none" d="M32.27,36.3 L 39.16 40.36"/>
  <path fill="none" d="M38.18,31.41 L 38.71 30.39"/>
  <path fill="none" d="M37.64,30.83 L 38.71 30.39"/>
  <path fill="none" d="M32.27,36.3 L 38.71 30.39"/>
  <path fill="none" d="M35.68,46.45 L 35.39 47.56"/>
  <path fill="none" d="M36.33,46.89 L 35.39 47.56"/>
  <path fill="none" d="M39.99,40.85 L 35.39 47.56"/>
  <path fill="none" d="M34.23,37 L 33.1 36.79"/>
  <path fill="none" d="M33.83,37.68 L 33.1 36.79"/>
  <path fill="none" d="M39.99,40.85 L 33.1 36.79"/>
  <path fill="none" d="M45.3,45.07 L 46.42 45.37"/>
  <path fill="none" d="M45.76,44.42 L 46.42 45.37"/>
  <path fill="none" d="M39.99,40.85 L 46.42 45.37"/>
  <path fill="none" d="M45.76,35.86 L 46.27 34.82"/>
  <path fill="none" d="M45.22,35.29 L 46.27 34.82"/>
  <path fill="none" d="M39.99,40.85 L 46.27 34.82"/>
  <path fill="none" d="M43,51.63 L 42.73 52.76"/>
  <path fill="none" d="M43.66,52.07 L 42.73 52.76"/>
  <path fill="none" d="M47.21,45.92 L 42.73 52.76"/>
  <path fill="none" d="M41.89,41.71 L 40.77 41.4"/>
  <path fill="none" d="M41.43,42.35 L 40.77 41.4"/>
  <path fill="none" d="M47.21,45.92 L 40.77 41.4"/>
  <path fill="none" d="M51.3,50.59 L 52.35 51.07"/>
  <path fill="none" d="M51.86,50.03 L 52.35 51.07"/>
  <path fill="none" d="M47.21,45.92 L 52.35 51.07"/>
  <path fill="none" d="M52.65,41.34 L 53.17 40.3"/>
  <path fill="none" d="M52.11,40.76 L 53.17 40.3"/>
  <path fill="none" d="M47.21,45.92 L 53.17 40.3"/>
  <path fill="none" d="M49.59,56.86 L 49.38 58"/>
  <path fill="none" d="M50.27,57.26 L 49.38 58"/>
  <path fill="none" d="M53.03,51.76 L 49.38 58"/>
  <path fill="none" d="M48.93,47.09 L 47.89 46.6"/>
  <path fill="none" d="M48.37,47.65 L 47.89 46.6"/>
  <path fill="none" d="M53.03,51.76 L 47.89 46.6"/>
  <path fill="none" d="M55.54,56.48 L 56.45 57.19"/>
  <path fill="none" d="M56.21,56.06 L 56.45 57.19"/>
  <path fill="none" d="M53.03,51.76 L 56.45 57.19"/>
  <path fill="none" d="M58.2,47.38 L 58.71 46.34"/>
  <path fill="none" d="M57.66,46.81 L 58.71 46.34"/>
  <path fill="none" d="M53.03,51.76 L 58.71 46.34"/>
  <path fill="none" d="M54.67,62.53 L 54.62 63.68"/>
  <path fill="none" d="M55.4,62.83 L 54.62 63.68"/>
  <path fill="none" d="M56.96,58 L 54.62 63.68"/>
  <path fill="none" d="M54.45,53.28 L 53.54 52.57"/>
  <path fill="none" d="M53.79,53.7 L 53.54 52.57"/>
  <path fill="none" d="M56.96,58 L 53.54 52.57"/>
  <path fill="none" d="M56.94,62.86 L 57.41 63.91"/>
  <path fill="none" d="M57.72,62.8 L 57.41 63.91"/>
  <path fill="none" d="M56.96,58 L 57.41 63.91"/>
  <path fill="none" d="M61.33,54.35 L 61.84 53.31"/>
  <path fill="none" d="M60.78,53.78 L 61.84 53.31"/>
  <path fill="none" d="M56.96,58 L 61.84 53.31"/>
  <path fill="none" d="M57.59,68.78 L 58.12 69.8"/>
  <path fill="none" d="M58.37,68.68 L 58.12 69.8"/>
  <path fill="none" d="M57.49,64.87 L 58.12 69.8"/>
  <path fill="none" d="M57.51,60.02 L 57.04 58.96"/>
  <path fill="none" d="M56.73,60.08 L 57.04 58.96"/>
  <path fill="none" d="M57.49,64.87 L 57.04 58.96"/>
  <path fill="none" d="M54.81,69.52 L 54.69 70.67"/>
  <path fill="none" d="M55.52,69.87 L 54.69 70.67"/>
  <path fill="none" d="M57.49,64.87 L 54.69 70.67"/>
  <path fill="none" d="M60.42,61.58 L 60.74 60.47"/>
  <path fill="none" d="M59.78,61.11 L 60.74 60.47"/>
  <path fill="none" d="M57.49,64.87 L 60.74 60.47"/>
  <path fill="none" d="M55.46,75.16 L 56.27 75.99"/>
  <path fill="none" d="M56.18,74.83 L 56.27 75.99"/>
  <path fill="none" d="M54.27,71.54 L 56.27 75.99"/>
  <path fill="none" d="M56.95,66.89 L 57.07 65.74"/>
  <path fill="none" d="M56.24,66.55 L 57.07 65.74"/>
  <path fill="none" d="M54.27,71.54 L 57.07 65.74"/>
  <path fill="none" d="M52.56,74.43 L 52.48 75.58"/>
  <path fill="none" d="M53.28,74.75 L 52.48 75.58"/>
  <path fill="none" d="M54.27,71.54 L 52.48 75.58"/>
  <path fill="none" d="M57.51,68.46 L 57.93 67.39"/>
  <path fill="none" d="M56.91,67.94 L 57.93 67.39"/>
  <path fill="none" d="M54.27,71.54 L 57.93 67.39"/>
  <path fill="none" d="M52.35,78.89 L 53.02 79.84"/>
  <path fill="none" d="M53.11,78.69 L 53.02 79.84"/>
  <path fill="none" d="M52.09,76.46 L 53.02 79.84"/>
  <path fill="none" d="M53.8,73.57 L 53.88 72.42"/>
  <path fill="none" d="M53.08,73.25 L 53.88 72.42"/>
  <path fill="none" d="M52.09,76.46 L 53.88 72.42"/>
  <path fill="none" d="M55.28,74.1 L 55.82 73.08"/>
  <path fill="none" d="M54.75,73.52 L 55.82 73.08"/>
  <path fill="none" d="M52.09,76.46 L 55.82 73.08"/>
  <path fill="none" d="M15.74,28.66 L 14.74 29.24"/>
  <path fill="none" d="M15.88,29.44 L 14.74 29.24"/>
  <path fill="none" d="M22.65,27.85 L 14.74 29.24"/>
  <path fill="none" d="M24.35,26.57 L 24.79 25.5"/>
  <path fill="none" d="M23.77,26.04 L 24.79 25.5"/>
  <path fill="none" d="M22.65,27.85 L 24.79 25.5"/>
  <path fill="none" d="M30.79,27.07 L 31.81 26.52"/>
  <path fill="none" d="M30.68,26.28 L 31.81 26.52"/>
  <path fill="none" d="M22.65,27.85 L 31.81 26.52"/>
  <path fill="none" d="M19.6,28.5 L 18.95 29.45"/>
  <path fill="none" d="M20.06,29.14 L 18.95 29.45"/>
  <path fill="none" d="M25.44,24.79 L 18.95 29.45"/>
  <path fill="none" d="M23.73,26.07 L 23.3 27.14"/>
  <path fill="none" d="M24.32,26.61 L 23.3 27.14"/>
  <path fill="none" d="M25.44,24.79 L 23.3 27.14"/>
  <path fill="none" d="M29.42,26 L 30.56 25.83"/>
  <path fill="none" d="M29.58,25.23 L 30.56 25.83"/>
  <path fill="none" d="M25.44,24.79 L 30.56 25.83"/>
  <path fill="none" d="M32.29,22.44 L 33.15 21.67"/>
  <path fill="none" d="M32,21.71 L 33.15 21.67"/>
  <path fill="none" d="M25.44,24.79 L 33.15 21.67"/>
  <path fill="none" d="M26.05,30.92 L 25.56 31.96"/>
  <path fill="none" d="M26.6,31.48 L 25.56 31.96"/>
  <path fill="none" d="M31.51,26.03 L 25.56 31.96"/>
  <path fill="none" d="M27.52,24.81 L 26.38 24.98"/>
  <path fill="none" d="M27.36,25.59 L 26.38 24.98"/>
  <path fill="none" d="M31.51,26.03 L 26.38 24.98"/>
  <path fill="none" d="M37.4,29.22 L 38.55 29.33"/>
  <path fill="none" d="M37.73,28.51 L 38.55 29.33"/>
  <path fill="none" d="M31.51,26.03 L 38.55 29.33"/>
  <path fill="none" d="M38.52,22.03 L 39.22 21.12"/>
  <path fill="none" d="M38.1,21.37 L 39.22 21.12"/>
  <path fill="none" d="M31.51,26.03 L 39.22 21.12"/>
  <path fill="none" d="M33.51,34.62 L 32.98 35.65"/>
  <path fill="none" d="M34.04,35.21 L 32.98 35.65"/>
  <path fill="none" d="M39.42,29.74 L 32.98 35.65"/>
  <path fill="none" d="M33.53,26.54 L 32.38 26.43"/>
  <path fill="none" d="M33.19,27.25 L 32.38 26.43"/>
  <path fill="none" d="M39.42,29.74 L 32.38 26.43"/>
  <path fill="none" d="M45,33.46 L 46.14 33.67"/>
  <path fill="none" d="M45.4,32.78 L 46.14 33.67"/>
  <path fill="none" d="M39.42,29.74 L 46.14 33.67"/>
  <path fill="none" d="M46.09,25.5 L 46.74 24.55"/>
  <path fill="none" d="M45.63,24.86 L 46.74 24.55"/>
  <path fill="none" d="M39.42,29.74 L 46.74 24.55"/>
  <path fill="none" d="M41.19,39.15 L 40.68 40.19"/>
  <path fill="none" d="M41.74,39.72 L 40.68 40.19"/>
  <path fill="none" d="M46.97,34.15 L 40.68 40.19"/>
  <path fill="none" d="M41.38,30.43 L 40.25 30.22"/>
  <path fill="none" d="M40.98,31.11 L 40.25 30.22"/>
  <path fill="none" d="M46.97,34.15 L 40.25 30.22"/>
  <path fill="none" d="M52.03,38.68 L 53.12 39.05"/>
  <path fill="none" d="M52.52,38.06 L 53.12 39.05"/>
  <path fill="none" d="M46.97,34.15 L 53.12 39.05"/>
  <path fill="none" d="M53.61,30.19 L 54.29 29.25"/>
  <path fill="none" d="M53.17,29.53 L 54.29 29.25"/>
  <path fill="none" d="M46.97,34.15 L 54.29 29.25"/>
  <path fill="none" d="M48.43,44.23 L 47.91 45.26"/>
  <path fill="none" d="M48.97,44.81 L 47.91 45.26"/>
  <path fill="none" d="M53.87,39.65 L 47.91 45.26"/>
  <path fill="none" d="M48.81,35.12 L 47.72 34.75"/>
  <path fill="none" d="M48.32,35.74 L 47.72 34.75"/>
  <path fill="none" d="M53.87,39.65 L 47.72 34.75"/>
  <path fill="none" d="M57.74,44.44 L 58.76 44.97"/>
  <path fill="none" d="M58.32,43.91 L 58.76 44.97"/>
  <path fill="none" d="M53.87,39.65 L 58.76 44.97"/>
  <path fill="none" d="M60.26,35.76 L 60.93 34.83"/>
  <path fill="none" d="M59.81,35.11 L 60.93 34.83"/>
  <path fill="none" d="M53.87,39.65 L 60.93 34.83"/>
  <path fill="none" d="M54.24,50.06 L 53.73 51.09"/>
  <path fill="none" d="M54.78,50.63 L 53.73 51.09"/>
  <path fill="none" d="M59.41,45.68 L 53.73 51.09"/>
  <path fill="none" d="M55.55,40.89 L 54.52 40.35"/>
  <path fill="none" d="M54.97,41.42 L 54.52 40.35"/>
  <path fill="none" d="M59.41,45.68 L 54.52 40.35"/>
  <path fill="none" d="M61.33,50.93 L 62.13 51.76"/>
  <path fill="none" d="M62.05,50.61 L 62.13 51.76"/>
  <path fill="none" d="M59.41,45.68 L 62.13 51.76"/>
  <path fill="none" d="M65.53,42.42 L 66.25 41.52"/>
  <path fill="none" d="M65.12,41.74 L 66.25 41.52"/>
  <path fill="none" d="M59.41,45.68 L 66.25 41.52"/>
  <path fill="none" d="M58.16,56.3 L 57.66 57.34"/>
  <path fill="none" d="M58.71,56.87 L 57.66 57.34"/>
  <path fill="none" d="M62.53,52.64 L 57.66 57.34"/>
  <path fill="none" d="M60.61,47.39 L 59.8 46.56"/>
  <path fill="none" d="M59.89,47.71 L 59.8 46.56"/>
  <path fill="none" d="M62.53,52.64 L 59.8 46.56"/>
  <path fill="none" d="M61.27,57.61 L 61.48 58.75"/>
  <path fill="none" d="M62.05,57.75 L 61.48 58.75"/>
  <path fill="none" d="M62.53,52.64 L 61.48 58.75"/>
  <path fill="none" d="M68.61,49.6 L 69.35 48.72"/>
  <path fill="none" d="M68.22,48.92 L 69.35 48.72"/>
  <path fill="none" d="M62.53,52.64 L 69.35 48.72"/>
  <path fill="none" d="M58.39,62.99 L 58.06 64.1"/>
  <path fill="none" d="M59.02,63.46 L 58.06 64.1"/>
  <path fill="none" d="M61.32,59.7 L 58.06 64.1"/>
  <path fill="none" d="M62.57,54.72 L 62.37 53.59"/>
  <path fill="none" d="M61.79,54.59 L 62.37 53.59"/>
  <path fill="none" d="M61.32,59.7 L 62.37 53.59"/>
  <path fill="none" d="M58.95,64.62 L 58.91 65.77"/>
  <path fill="none" d="M59.68,64.91 L 58.91 65.77"/>
  <path fill="none" d="M61.32,59.7 L 58.91 65.77"/>
  <path fill="none" d="M68.58,57.11 L 69.43 56.33"/>
  <path fill="none" d="M68.28,56.38 L 69.43 56.33"/>
  <path fill="none" d="M61.32,59.7 L 69.43 56.33"/>
  <path fill="none" d="M55.33,69.74 L 54.91 70.82"/>
  <path fill="none" d="M55.92,70.26 L 54.91 70.82"/>
  <path fill="none" d="M58.56,66.66 L 54.91 70.82"/>
  <path fill="none" d="M60.93,61.75 L 60.96 60.59"/>
  <path fill="none" d="M60.2,61.46 L 60.96 60.59"/>
  <path fill="none" d="M58.56,66.66 L 60.96 60.59"/>
  <path fill="none" d="M56.84,70.37 L 56.85 71.53"/>
  <path fill="none" d="M57.58,70.63 L 56.85 71.53"/>
  <path fill="none" d="M58.56,66.66 L 56.85 71.53"/>
  <path fill="none" d="M66.05,64.24 L 66.92 63.49"/>
  <path fill="none" d="M65.77,63.51 L 66.92 63.49"/>
  <path fill="none" d="M58.56,66.66 L 66.92 63.49"/>
  <path fill="none" d="M53.34,74.79 L 52.81 75.81"/>
  <path fill="none" d="M53.87,75.37 L 52.81 75.81"/>
  <path fill="none" d="M56.53,72.43 L 52.81 75.81"/>
  <path fill="none" d="M58.25,68.73 L 58.24 67.57"/>
  <path fill="none" d="M57.51,68.46 L 58.24 67.57"/>
  <path fill="none" d="M56.53,72.43 L 58.24 67.57"/>
  <path fill="none" d="M63.22,70.16 L 64.08 69.39"/>
  <path fill="none" d="M62.93,69.43 L 64.08 69.39"/>
  <path fill="none" d="M56.53,72.43 L 64.08 69.39"/>
  <path fill="none" d="M24.62,27.17 L 23.6 27.71"/>
  <path fill="none" d="M24.73,27.95 L 23.6 27.71"/>
  <path fill="none" d="M32.76,26.38 L 23.6 27.71"/>
  <path fill="none" d="M33.92,23.39 L 33.81 22.24"/>
  <path fill="none" d="M33.16,23.2 L 33.81 22.24"/>
  <path fill="none" d="M32.76,26.38 L 33.81 22.24"/>
  <path fill="none" d="M39.73,23.15 L 40.51 22.3"/>
  <path fill="none" d="M39.36,22.46 L 40.51 22.3"/>
  <path fill="none" d="M32.76,26.38 L 40.51 22.3"/>
  <path fill="none" d="M27.19,23.66 L 26.33 24.43"/>
  <path fill="none" d="M27.48,24.39 L 26.33 24.43"/>
  <path fill="none" d="M34.04,21.31 L 26.33 24.43"/>
  <path fill="none" d="M32.88,24.3 L 33 25.45"/>
  <path fill="none" d="M33.65,24.49 L 33 25.45"/>
  <path fill="none" d="M34.04,21.31 L 33 25.45"/>
  <path fill="none" d="M38.05,21.23 L 39.08 20.71"/>
  <path fill="none" d="M37.96,20.45 L 39.08 20.71"/>
  <path fill="none" d="M34.04,21.31 L 39.08 20.71"/>
  <path fill="none" d="M41.04,18.57 L 41.86 17.77"/>
  <path fill="none" d="M40.71,17.85 L 41.86 17.77"/>
  <path fill="none" d="M34.04,21.31 L 41.86 17.77"/>
  <path fill="none" d="M33.02,24.59 L 32.32 25.51"/>
  <path fill="none" d="M33.44,25.26 L 32.32 25.51"/>
  <path fill="none" d="M40.03,20.6 L 32.32 25.51"/>
  <path fill="none" d="M36.03,20.68 L 35 21.2"/>
  <path fill="none" d="M36.12,21.46 L 35 21.2"/>
  <path fill="none" d="M40.03,20.6 L 35 21.2"/>
  <path fill="none" d="M45.5,23.51 L 46.65 23.6"/>
  <path fill="none" d="M45.83,22.79 L 46.65 23.6"/>
  <path fill="none" d="M40.03,20.6 L 46.65 23.6"/>
  <path fill="none" d="M46.96,17.1 L 47.7 16.22"/>
  <path fill="none" d="M46.57,16.41 L 47.7 16.22"/>
  <path fill="none" d="M40.03,20.6 L 47.7 16.22"/>
  <path fill="none" d="M40.86,28.23 L 40.2 29.18"/>
  <path fill="none" d="M41.32,28.88 L 40.2 29.18"/>
  <path fill="none" d="M47.53,24 L 40.2 29.18"/>
  <path fill="none" d="M42.06,21.09 L 40.91 21"/>
  <path fill="none" d="M41.74,21.81 L 40.91 21"/>
  <path fill="none" d="M47.53,24 L 40.91 21"/>
  <path fill="none" d="M53.15,27.97 L 54.28 28.21"/>
  <path fill="none" d="M53.57,27.3 L 54.28 28.21"/>
  <path fill="none" d="M47.53,24 L 54.28 28.21"/>
  <path fill="none" d="M54.57,20.53 L 55.32 19.65"/>
  <path fill="none" d="M54.18,19.84 L 55.32 19.65"/>
  <path fill="none" d="M47.53,24 L 55.32 19.65"/>
  <path fill="none" d="M48.45,32.69 L 47.77 33.62"/>
  <path fill="none" d="M48.89,33.34 L 47.77 33.62"/>
  <path fill="none" d="M55.09,28.72 L 47.77 33.62"/>
  <path fill="none" d="M49.47,24.75 L 48.35 24.51"/>
  <path fill="none" d="M49.06,25.42 L 48.35 24.51"/>
  <path fill="none" d="M55.09,28.72 L 48.35 24.51"/>
  <path fill="none" d="M59.9,33.27 L 60.99 33.66"/>
  <path fill="none" d="M60.41,32.66 L 60.99 33.66"/>
  <path fill="none" d="M55.09,28.72 L 60.99 33.66"/>
  <path fill="none" d="M61.71,25.32 L 62.44 24.43"/>
  <path fill="none" d="M61.31,24.64 L 62.44 24.43"/>
  <path fill="none" d="M55.09,28.72 L 62.44 24.43"/>
  <path fill="none" d="M55.34,38.16 L 54.67 39.1"/>
  <path fill="none" d="M55.79,38.82 L 54.67 39.1"/>
  <path fill="none" d="M61.72,34.28 L 54.67 39.1"/>
  <path fill="none" d="M56.92,29.73 L 55.83 29.34"/>
  <path fill="none" d="M56.41,30.34 L 55.83 29.34"/>
  <path fill="none" d="M61.72,34.28 L 55.83 29.34"/>
  <path fill="none" d="M65.49,39.66 L 66.47 40.26"/>
  <path fill="none" d="M66.11,39.17 L 66.47 40.26"/>
  <path fill="none" d="M61.72,34.28 L 66.47 40.26"/>
  <path fill="none" d="M68.23,31.36 L 69.01 30.51"/>
  <path fill="none" d="M67.86,30.66 L 69.01 30.51"/>
  <path fill="none" d="M61.72,34.28 L 69.01 30.51"/>
  <path fill="none" d="M60.95,44.28 L 60.23 45.18"/>
  <path fill="none" d="M61.36,44.95 L 60.23 45.18"/>
  <path fill="none" d="M67.07,41.02 L 60.23 45.18"/>
  <path fill="none" d="M63.31,35.64 L 62.32 35.04"/>
  <path fill="none" d="M62.69,36.13 L 62.32 35.04"/>
  <path fill="none" d="M67.07,41.02 L 62.32 35.04"/>
  <path fill="none" d="M69.01,46.51 L 69.81 47.35"/>
  <path fill="none" d="M69.74,46.2 L 69.81 47.35"/>
  <path fill="none" d="M67.07,41.02 L 69.81 47.35"/>
  <path fill="none" d="M73.34,38.23 L 74.12 37.39"/>
  <path fill="none" d="M72.97,37.53 L 74.12 37.39"/>
  <path fill="none" d="M67.07,41.02 L 74.12 37.39"/>
  <path fill="none" d="M64.11,51.28 L 63.36 52.16"/>
  <path fill="none" d="M64.5,51.96 L 63.36 52.16"/>
  <path fill="none" d="M70.19,48.24 L 63.36 52.16"/>
  <path fill="none" d="M68.25,42.74 L 67.45 41.9"/>
  <path fill="none" d="M67.52,43.05 L 67.45 41.9"/>
  <path fill="none" d="M70.19,48.24 L 67.45 41.9"/>
  <path fill="none" d="M69.89,53.92 L 70.31 54.99"/>
  <path fill="none" d="M70.68,53.9 L 70.31 54.99"/>
  <path fill="none" d="M70.19,48.24 L 70.31 54.99"/>
  <path fill="none" d="M76.58,45.89 L 77.42 45.1"/>
  <path fill="none" d="M76.27,45.17 L 77.42 45.1"/>
  <path fill="none" d="M70.19,48.24 L 77.42 45.1"/>
  <path fill="none" d="M63.06,58.55 L 62.21 59.33"/>
  <path fill="none" d="M63.36,59.28 L 62.21 59.33"/>
  <path fill="none" d="M70.32,55.96 L 62.21 59.33"/>
  <path fill="none" d="M70.62,50.28 L 70.2 49.2"/>
  <path fill="none" d="M69.83,50.29 L 70.2 49.2"/>
  <path fill="none" d="M70.32,55.96 L 70.2 49.2"/>
  <path fill="none" d="M68.12,61.08 L 68.14 62.24"/>
  <path fill="none" d="M68.87,61.34 L 68.14 62.24"/>
  <path fill="none" d="M70.32,55.96 L 68.14 62.24"/>
  <path fill="none" d="M77.34,53.65 L 78.21 52.88"/>
  <path fill="none" d="M77.05,52.91 L 78.21 52.88"/>
  <path fill="none" d="M70.32,55.96 L 78.21 52.88"/>
  <path fill="none" d="M60.33,65.57 L 59.46 66.32"/>
  <path fill="none" d="M60.61,66.31 L 59.46 66.32"/>
  <path fill="none" d="M67.82,63.15 L 59.46 66.32"/>
  <path fill="none" d="M70.02,58.02 L 70.01 56.87"/>
  <path fill="none" d="M69.28,57.76 L 70.01 56.87"/>
  <path fill="none" d="M67.82,63.15 L 70.01 56.87"/>
  <path fill="none" d="M65.51,67.01 L 65.39 68.16"/>
  <path fill="none" d="M66.22,67.36 L 65.39 68.16"/>
  <path fill="none" d="M67.82,63.15 L 65.39 68.16"/>
  <path fill="none" d="M75.85,61.04 L 76.77 60.34"/>
  <path fill="none" d="M75.62,60.29 L 76.77 60.34"/>
  <path fill="none" d="M67.82,63.15 L 76.77 60.34"/>
  <path fill="none" d="M58.28,71.3 L 57.42 72.07"/>
  <path fill="none" d="M58.57,72.03 L 57.42 72.07"/>
  <path fill="none" d="M64.97,69.03 L 57.42 72.07"/>
  <path fill="none" d="M67.28,65.16 L 67.4 64.01"/>
  <path fill="none" d="M66.57,64.82 L 67.4 64.01"/>
  <path fill="none" d="M64.97,69.03 L 67.4 64.01"/>
  <path fill="none" d="M72.75,67.16 L 73.68 66.48"/>
  <path fill="none" d="M72.53,66.4 L 73.68 66.48"/>
  <path fill="none" d="M64.97,69.03 L 73.68 66.48"/>
  <path fill="none" d="M34.39,25.08 L 33.61 25.93"/>
  <path fill="none" d="M34.76,25.77 L 33.61 25.93"/>
  <path fill="none" d="M41.36,21.85 L 33.61 25.93"/>
  <path fill="none" d="M42.51,19.44 L 42.46 18.29"/>
  <path fill="none" d="M41.76,19.21 L 42.46 18.29"/>
  <path fill="none" d="M41.36,21.85 L 42.46 18.29"/>
  <path fill="none" d="M47.36,18.63 L 48.08 17.73"/>
  <path fill="none" d="M46.95,17.96 L 48.08 17.73"/>
  <path fill="none" d="M41.36,21.85 L 48.08 17.73"/>
  <path fill="none" d="M35.74,20.1 L 34.92 20.91"/>
  <path fill="none" d="M36.07,20.82 L 34.92 20.91"/>
  <path fill="none" d="M42.74,17.37 L 34.92 20.91"/>
  <path fill="none" d="M41.58,19.78 L 41.64 20.93"/>
  <path fill="none" d="M42.34,20.01 L 41.64 20.93"/>
  <path fill="none" d="M42.74,17.37 L 41.64 20.93"/>
  <path fill="none" d="M46.67,16.67 L 47.61 16"/>
  <path fill="none" d="M46.46,15.91 L 47.61 16"/>
  <path fill="none" d="M42.74,17.37 L 47.61 16"/>
  <path fill="none" d="M48.63,13.96 L 49.32 13.03"/>
  <path fill="none" d="M48.2,13.3 L 49.32 13.03"/>
  <path fill="none" d="M42.74,17.37 L 49.32 13.03"/>
  <path fill="none" d="M41.62,19.24 L 40.87 20.12"/>
  <path fill="none" d="M42.01,19.93 L 40.87 20.12"/>
  <path fill="none" d="M48.54,15.74 L 40.87 20.12"/>
  <path fill="none" d="M44.6,16.44 L 43.66 17.11"/>
  <path fill="none" d="M44.82,17.2 L 43.66 17.11"/>
  <path fill="none" d="M48.54,15.74 L 43.66 17.11"/>
  <path fill="none" d="M54.14,18.7 L 55.29 18.79"/>
  <path fill="none" d="M54.46,17.98 L 55.29 18.79"/>
  <path fill="none" d="M48.54,15.74 L 55.29 18.79"/>
  <path fill="none" d="M54.82,12.98 L 55.61 12.13"/>
  <path fill="none" d="M54.46,12.27 L 55.61 12.13"/>
  <path fill="none" d="M48.54,15.74 L 55.61 12.13"/>
  <path fill="none" d="M49.12,22.66 L 48.37 23.53"/>
  <path fill="none" d="M49.51,23.35 L 48.37 23.53"/>
  <path fill="none" d="M56.17,19.18 L 48.37 23.53"/>
  <path fill="none" d="M50.57,16.22 L 49.42 16.14"/>
  <path fill="none" d="M50.24,16.94 L 49.42 16.14"/>
  <path fill="none" d="M56.17,19.18 L 49.42 16.14"/>
  <path fill="none" d="M61.35,23.13 L 62.47 23.41"/>
  <path fill="none" d="M61.79,22.48 L 62.47 23.41"/>
  <path fill="none" d="M56.17,19.18 L 62.47 23.41"/>
  <path fill="none" d="M62.23,16.34 L 62.99 15.48"/>
  <path fill="none" d="M61.85,15.65 L 62.99 15.48"/>
  <path fill="none" d="M56.17,19.18 L 62.99 15.48"/>
  <path fill="none" d="M56.66,27.35 L 55.93 28.23"/>
  <path fill="none" d="M57.06,28.03 L 55.93 28.23"/>
  <path fill="none" d="M63.27,23.95 L 55.93 28.23"/>
  <path fill="none" d="M58.09,20 L 56.96 19.72"/>
  <path fill="none" d="M57.65,20.65 L 56.96 19.72"/>
  <path fill="none" d="M63.27,23.95 L 56.96 19.72"/>
  <path fill="none" d="M68.09,28.97 L 69.16 29.42"/>
  <path fill="none" d="M68.63,28.39 L 69.16 29.42"/>
  <path fill="none" d="M63.27,23.95 L 69.16 29.42"/>
  <path fill="none" d="M69.11,21.31 L 69.89 20.46"/>
  <path fill="none" d="M68.75,20.61 L 69.89 20.46"/>
  <path fill="none" d="M63.27,23.95 L 69.89 20.46"/>
  <path fill="none" d="M63.36,32.99 L 62.58 33.84"/>
  <path fill="none" d="M63.72,33.69 L 62.58 33.84"/>
  <path fill="none" d="M69.86,30.07 L 62.58 33.84"/>
  <path fill="none" d="M65.04,25.05 L 63.98 24.6"/>
  <path fill="none" d="M64.5,25.63 L 63.98 24.6"/>
  <path fill="none" d="M69.86,30.07 L 63.98 24.6"/>
  <path fill="none" d="M73.44,35.54 L 74.4 36.17"/>
  <path fill="none" d="M74.07,35.07 L 74.4 36.17"/>
  <path fill="none" d="M69.86,30.07 L 74.4 36.17"/>
  <path fill="none" d="M75.56,27.69 L 76.36 26.85"/>
  <path fill="none" d="M75.21,26.98 L 76.36 26.85"/>
  <path fill="none" d="M69.86,30.07 L 76.36 26.85"/>
  <path fill="none" d="M68.71,39.73 L 67.93 40.58"/>
  <path fill="none" d="M69.07,40.43 L 67.93 40.58"/>
  <path fill="none" d="M74.98,36.95 L 67.93 40.58"/>
  <path fill="none" d="M71.4,31.48 L 70.44 30.84"/>
  <path fill="none" d="M70.77,31.95 L 70.44 30.84"/>
  <path fill="none" d="M74.98,36.95 L 70.44 30.84"/>
  <path fill="none" d="M77.14,42.99 L 77.93 43.83"/>
  <path fill="none" d="M77.86,42.68 L 77.93 43.83"/>
  <path fill="none" d="M74.98,36.95 L 77.93 43.83"/>
  <path fill="none" d="M80.55,34.86 L 81.38 34.05"/>
  <path fill="none" d="M80.22,34.14 L 81.38 34.05"/>
  <path fill="none" d="M74.98,36.95 L 81.38 34.05"/>
  <path fill="none" d="M71.91,47.06 L 71.07 47.85"/>
  <path fill="none" d="M72.22,47.78 L 71.07 47.85"/>
  <path fill="none" d="M78.3,44.71 L 71.07 47.85"/>
  <path fill="none" d="M76.14,38.67 L 75.35 37.83"/>
  <path fill="none" d="M75.42,38.98 L 75.35 37.83"/>
  <path fill="none" d="M78.3,44.71 L 75.35 37.83"/>
  <path fill="none" d="M78.5,50.54 L 79.01 51.58"/>
  <path fill="none" d="M79.29,50.46 L 79.01 51.58"/>
  <path fill="none" d="M78.3,44.71 L 79.01 51.58"/>
  <path fill="none" d="M84,42.82 L 84.85 42.05"/>
  <path fill="none" d="M83.7,42.09 L 84.85 42.05"/>
  <path fill="none" d="M78.3,44.71 L 84.85 42.05"/>
  <path fill="none" d="M72.09,54.85 L 71.22 55.61"/>
  <path fill="none" d="M72.37,55.58 L 71.22 55.61"/>
  <path fill="none" d="M79.1,52.54 L 71.22 55.61"/>
  <path fill="none" d="M78.91,46.71 L 78.4 45.67"/>
  <path fill="none" d="M78.12,46.79 L 78.4 45.67"/>
  <path fill="none" d="M79.1,52.54 L 78.4 45.67"/>
  <path fill="none" d="M77.68,57.96 L 77.87 59.1"/>
  <path fill="none" d="M78.45,58.11 L 77.87 59.1"/>
  <path fill="none" d="M79.1,52.54 L 77.87 59.1"/>
  <path fill="none" d="M85.19,50.79 L 86.08 50.05"/>
  <path fill="none" d="M84.93,50.05 L 86.08 50.05"/>
  <path fill="none" d="M79.1,52.54 L 86.08 50.05"/>
  <path fill="none" d="M69.66,62.16 L 68.74 62.86"/>
  <path fill="none" d="M69.89,62.91 L 68.74 62.86"/>
  <path fill="none" d="M77.69,60.05 L 68.74 62.86"/>
  <path fill="none" d="M79.11,54.62 L 78.93 53.48"/>
  <path fill="none" d="M78.34,54.47 L 78.93 53.48"/>
  <path fill="none" d="M77.69,60.05 L 78.93 53.48"/>
  <path fill="none" d="M75.17,64.2 L 75.04 65.34"/>
  <path fill="none" d="M75.88,64.55 L 75.04 65.34"/>
  <path fill="none" d="M77.69,60.05 L 75.04 65.34"/>
  <path fill="none" d="M84.36,58.44 L 85.29 57.74"/>
  <path fill="none" d="M84.13,57.68 L 85.29 57.74"/>
  <path fill="none" d="M77.69,60.05 L 85.29 57.74"/>
  <path fill="none" d="M66.83,68.07 L 65.89 68.76"/>
  <path fill="none" d="M67.05,68.83 L 65.89 68.76"/>
  <path fill="none" d="M74.61,66.21 L 65.89 68.76"/>
  <path fill="none" d="M77.12,62.06 L 77.26 60.91"/>
  <path fill="none" d="M76.42,61.7 L 77.26 60.91"/>
  <path fill="none" d="M74.61,66.21 L 77.26 60.91"/>
  <path fill="none" d="M81.46,64.79 L 82.41 64.13"/>
  <path fill="none" d="M81.26,64.03 L 82.41 64.13"/>
  <path fill="none" d="M74.61,66.21 L 82.41 64.13"/>
  <path fill="none" d="M42.9,20.44 L 42.18 21.35"/>
  <path fill="none" d="M43.31,21.12 L 42.18 21.35"/>
  <path fill="none" d="M48.9,17.22 L 42.18 21.35"/>
  <path fill="none" d="M49.99,14.58 L 49.88 13.44"/>
  <path fill="none" d="M49.23,14.39 L 49.88 13.44"/>
  <path fill="none" d="M48.9,17.22 L 49.88 13.44"/>
  <path fill="none" d="M53.12,14.84 L 53.79 13.9"/>
  <path fill="none" d="M52.67,14.18 L 53.79 13.9"/>
  <path fill="none" d="M48.9,17.22 L 53.79 13.9"/>
  <path fill="none" d="M44.23,15.91 L 43.54 16.84"/>
  <path fill="none" d="M44.67,16.57 L 43.54 16.84"/>
  <path fill="none" d="M50.12,12.5 L 43.54 16.84"/>
  <path fill="none" d="M49.03,15.14 L 49.14 16.29"/>
  <path fill="none" d="M49.8,15.34 L 49.14 16.29"/>
  <path fill="none" d="M50.12,12.5 L 49.14 16.29"/>
  <path fill="none" d="M54.48,12.34 L 55.51 11.81"/>
  <path fill="none" d="M54.38,11.56 L 55.51 11.81"/>
  <path fill="none" d="M50.12,12.5 L 55.51 11.81"/>
  <path fill="none" d="M54.22,10.01 L 54.87 9.05"/>
  <path fill="none" d="M53.76,9.37 L 54.87 9.05"/>
  <path fill="none" d="M50.12,12.5 L 54.87 9.05"/>
  <path fill="none" d="M50.18,14.46 L 49.4 15.3"/>
  <path fill="none" d="M50.54,15.16 L 49.4 15.3"/>
  <path fill="none" d="M56.46,11.69 L 49.4 15.3"/>
  <path fill="none" d="M52.1,11.85 L 51.08 12.38"/>
  <path fill="none" d="M52.2,12.64 L 51.08 12.38"/>
  <path fill="none" d="M56.46,11.69 L 51.08 12.38"/>
  <path fill="none" d="M61.81,14.54 L 62.96 14.62"/>
  <path fill="none" d="M62.13,13.82 L 62.96 14.62"/>
  <path fill="none" d="M56.46,11.69 L 62.96 14.62"/>
  <path fill="none" d="M60.8,9.79 L 61.57 8.93"/>
  <path fill="none" d="M60.43,9.09 L 61.57 8.93"/>
  <path fill="none" d="M56.46,11.69 L 61.57 8.93"/>
  <path fill="none" d="M57.78,17.86 L 57.01 18.73"/>
  <path fill="none" d="M58.15,18.55 L 57.01 18.73"/>
  <path fill="none" d="M63.84,15.02 L 57.01 18.73"/>
  <path fill="none" d="M58.49,12.17 L 57.34 12.09"/>
  <path fill="none" d="M58.17,12.89 L 57.34 12.09"/>
  <path fill="none" d="M63.84,15.02 L 57.34 12.09"/>
  <path fill="none" d="M68.85,19.13 L 69.96 19.44"/>
  <path fill="none" d="M69.31,18.49 L 69.96 19.44"/>
  <path fill="none" d="M63.84,15.02 L 69.96 19.44"/>
  <path fill="none" d="M67.95,13.23 L 68.71 12.37"/>
  <path fill="none" d="M67.57,12.54 L 68.71 12.37"/>
  <path fill="none" d="M63.84,15.02 L 68.71 12.37"/>
  <path fill="none" d="M64.9,22.64 L 64.13 23.5"/>
  <path fill="none" d="M65.27,23.34 L 64.13 23.5"/>
  <path fill="none" d="M70.74,20.01 L 64.13 23.5"/>
  <path fill="none" d="M65.73,15.9 L 64.62 15.58"/>
  <path fill="none" d="M65.27,16.54 L 64.62 15.58"/>
  <path fill="none" d="M70.74,20.01 L 64.62 15.58"/>
  <path fill="none" d="M75.49,25.27 L 76.54 25.75"/>
  <path fill="none" d="M76.05,24.71 L 76.54 25.75"/>
  <path fill="none" d="M70.74,20.01 L 76.54 25.75"/>
  <path fill="none" d="M75.04,18.46 L 75.86 17.65"/>
  <path fill="none" d="M74.71,17.74 L 75.86 17.65"/>
  <path fill="none" d="M70.74,20.01 L 75.86 17.65"/>
  <path fill="none" d="M71.52,28.81 L 70.73 29.64"/>
  <path fill="none" d="M71.87,29.52 L 70.73 29.64"/>
  <path fill="none" d="M77.22,26.43 L 70.73 29.64"/>
  <path fill="none" d="M72.47,21.17 L 71.42 20.68"/>
  <path fill="none" d="M71.92,21.73 L 71.42 20.68"/>
  <path fill="none" d="M77.22,26.43 L 71.42 20.68"/>
  <path fill="none" d="M80.76,32.2 L 81.7 32.87"/>
  <path fill="none" d="M81.41,31.75 L 81.7 32.87"/>
  <path fill="none" d="M77.22,26.43 L 81.7 32.87"/>
  <path fill="none" d="M81.21,25.01 L 82.02 24.2"/>
  <path fill="none" d="M80.87,24.3 L 82.02 24.2"/>
  <path fill="none" d="M77.22,26.43 L 82.02 24.2"/>
  <path fill="none" d="M76.68,35.74 L 75.85 36.55"/>
  <path fill="none" d="M77,36.46 L 75.85 36.55"/>
  <path fill="none" d="M82.25,33.65 L 75.85 36.55"/>
  <path fill="none" d="M78.72,27.88 L 77.77 27.22"/>
  <path fill="none" d="M78.07,28.33 L 77.77 27.22"/>
  <path fill="none" d="M82.25,33.65 L 77.77 27.22"/>
  <path fill="none" d="M84.57,39.96 L 85.36 40.8"/>
  <path fill="none" d="M85.29,39.65 L 85.36 40.8"/>
  <path fill="none" d="M82.25,33.65 L 85.36 40.8"/>
  <path fill="none" d="M86.35,32.5 L 87.22 31.74"/>
  <path fill="none" d="M86.06,31.76 L 87.22 31.74"/>
  <path fill="none" d="M82.25,33.65 L 87.22 31.74"/>
  <path fill="none" d="M80.05,43.58 L 79.2 44.35"/>
  <path fill="none" d="M80.35,44.31 L 79.2 44.35"/>
  <path fill="none" d="M85.74,41.68 L 79.2 44.35"/>
  <path fill="none" d="M83.43,35.37 L 82.64 34.54"/>
  <path fill="none" d="M82.71,35.69 L 82.64 34.54"/>
  <path fill="none" d="M85.74,41.68 L 82.64 34.54"/>
  <path fill="none" d="M86.29,47.77 L 86.84 48.78"/>
  <path fill="none" d="M87.07,47.65 L 86.84 48.78"/>
  <path fill="none" d="M85.74,41.68 L 86.84 48.78"/>
  <path fill="none" d="M89.73,40.56 L 90.59 39.8"/>
  <path fill="none" d="M89.44,39.83 L 90.59 39.8"/>
  <path fill="none" d="M85.74,41.68 L 90.59 39.8"/>
  <path fill="none" d="M80.9,51.48 L 80.01 52.21"/>
  <path fill="none" d="M81.17,52.22 L 80.01 52.21"/>
  <path fill="none" d="M86.99,49.73 L 80.01 52.21"/>
  <path fill="none" d="M86.45,43.65 L 85.89 42.63"/>
  <path fill="none" d="M85.67,43.77 L 85.89 42.63"/>
  <path fill="none" d="M86.99,49.73 L 85.89 42.63"/>
  <path fill="none" d="M86.02,55.39 L 86.3 56.51"/>
  <path fill="none" d="M86.81,55.47 L 86.3 56.51"/>
  <path fill="none" d="M86.99,49.73 L 86.3 56.51"/>
  <path fill="none" d="M91.3,48.77 L 92.22 48.07"/>
  <path fill="none" d="M91.06,48.02 L 92.22 48.07"/>
  <path fill="none" d="M86.99,49.73 L 92.22 48.07"/>
  <path fill="none" d="M79.53,59.08 L 78.61 59.77"/>
  <path fill="none" d="M79.76,59.83 L 78.61 59.77"/>
  <path fill="none" d="M86.21,57.47 L 78.61 59.77"/>
  <path fill="none" d="M87.18,51.81 L 86.89 50.69"/>
  <path fill="none" d="M86.39,51.73 L 86.89 50.69"/>
  <path fill="none" d="M86.21,57.47 L 86.89 50.69"/>
  <path fill="none" d="M83.81,61.85 L 83.73 63.01"/>
  <path fill="none" d="M84.53,62.18 L 83.73 63.01"/>
  <path fill="none" d="M86.21,57.47 L 83.73 63.01"/>
  <path fill="none" d="M90.77,56.52 L 91.7 55.83"/>
  <path fill="none" d="M90.55,55.76 L 91.7 55.83"/>
  <path fill="none" d="M86.21,57.47 L 91.7 55.83"/>
  <path fill="none" d="M76.49,65.3 L 75.54 65.96"/>
  <path fill="none" d="M76.69,66.06 L 75.54 65.96"/>
  <path fill="none" d="M83.34,63.88 L 75.54 65.96"/>
  <path fill="none" d="M85.73,59.5 L 85.81 58.34"/>
  <path fill="none" d="M85.01,59.17 L 85.81 58.34"/>
  <path fill="none" d="M83.34,63.88 L 85.81 58.34"/>
  <path fill="none" d="M88.14,63.04 L 89.09 62.39"/>
  <path fill="none" d="M87.94,62.28 L 89.09 62.39"/>
  <path fill="none" d="M83.34,63.88 L 89.09 62.39"/>
  <path fill="none" d="M50.37,15.75 L 49.7 16.68"/>
  <path fill="none" d="M50.82,16.4 L 49.7 16.68"/>
  <path fill="none" d="M54.59,13.36 L 49.7 16.68"/>
  <path fill="none" d="M55.6,10.57 L 55.44 9.43"/>
  <path fill="none" d="M54.83,10.4 L 55.44 9.43"/>
  <path fill="none" d="M54.59,13.36 L 55.44 9.43"/>
  <path fill="none" d="M51.55,10.98 L 50.9 11.94"/>
  <path fill="none" d="M52.01,11.62 L 50.9 11.94"/>
  <path fill="none" d="M55.65,8.49 L 50.9 11.94"/>
  <path fill="none" d="M54.64,11.28 L 54.79 12.42"/>
  <path fill="none" d="M55.41,11.44 L 54.79 12.42"/>
  <path fill="none" d="M55.65,8.49 L 54.79 12.42"/>
  <path fill="none" d="M60.37,8.87 L 61.45 8.47"/>
  <path fill="none" d="M60.37,8.08 L 61.45 8.47"/>
  <path fill="none" d="M55.65,8.49 L 61.45 8.47"/>
  <path fill="none" d="M58.07,10.37 L 57.31 11.23"/>
  <path fill="none" d="M58.45,11.06 L 57.31 11.23"/>
  <path fill="none" d="M62.41,8.47 L 57.31 11.23"/>
  <path fill="none" d="M57.69,8.09 L 56.61 8.48"/>
  <path fill="none" d="M57.69,8.87 L 56.61 8.48"/>
  <path fill="none" d="M62.41,8.47 L 56.61 8.48"/>
  <path fill="none" d="M67.54,11.37 L 68.69 11.49"/>
  <path fill="none" d="M67.88,10.66 L 68.69 11.49"/>
  <path fill="none" d="M62.41,8.47 L 68.69 11.49"/>
  <path fill="none" d="M65.45,13.69 L 64.68 14.56"/>
  <path fill="none" d="M65.82,14.39 L 64.68 14.56"/>
  <path fill="none" d="M69.55,11.91 L 64.68 14.56"/>
  <path fill="none" d="M64.43,9 L 63.28 8.88"/>
  <path fill="none" d="M64.09,9.71 L 63.28 8.88"/>
  <path fill="none" d="M69.55,11.91 L 63.28 8.88"/>
  <path fill="none" d="M74.86,16.34 L 75.97 16.67"/>
  <path fill="none" d="M75.33,15.71 L 75.97 16.67"/>
  <path fill="none" d="M69.55,11.91 L 75.97 16.67"/>
  <path fill="none" d="M72.43,18.79 L 71.61 19.6"/>
  <path fill="none" d="M72.76,19.51 L 71.61 19.6"/>
  <path fill="none" d="M76.74,17.24 L 71.61 19.6"/>
  <path fill="none" d="M71.43,12.81 L 70.33 12.48"/>
  <path fill="none" d="M70.96,13.44 L 70.33 12.48"/>
  <path fill="none" d="M76.74,17.24 L 70.33 12.48"/>
  <path fill="none" d="M81.21,22.57 L 82.24 23.09"/>
  <path fill="none" d="M81.78,22.03 L 82.24 23.09"/>
  <path fill="none" d="M76.74,17.24 L 82.24 23.09"/>
  <path fill="none" d="M78.91,25.21 L 78.1 26.02"/>
  <path fill="none" d="M79.25,25.92 L 78.1 26.02"/>
  <path fill="none" d="M82.9,23.79 L 78.1 26.02"/>
  <path fill="none" d="M78.43,18.46 L 77.4 17.94"/>
  <path fill="none" d="M77.85,19 L 77.4 17.94"/>
  <path fill="none" d="M82.9,23.79 L 77.4 17.94"/>
  <path fill="none" d="M86.63,29.93 L 87.57 30.6"/>
  <path fill="none" d="M87.28,29.48 L 87.57 30.6"/>
  <path fill="none" d="M82.9,23.79 L 87.57 30.6"/>
  <path fill="none" d="M84.02,32.55 L 83.15 33.31"/>
  <path fill="none" d="M84.3,33.29 L 83.15 33.31"/>
  <path fill="none" d="M88.11,31.39 L 83.15 33.31"/>
  <path fill="none" d="M84.38,25.26 L 83.44 24.58"/>
  <path fill="none" d="M83.73,25.7 L 83.44 24.58"/>
  <path fill="none" d="M88.11,31.39 L 83.44 24.58"/>
  <path fill="none" d="M90.34,37.72 L 91.12 38.57"/>
  <path fill="none" d="M91.06,37.41 L 91.12 38.57"/>
  <path fill="none" d="M88.11,31.39 L 91.12 38.57"/>
  <path fill="none" d="M87.51,40.57 L 86.64 41.34"/>
  <path fill="none" d="M87.8,41.31 L 86.64 41.34"/>
  <path fill="none" d="M91.49,39.45 L 86.64 41.34"/>
  <path fill="none" d="M89.27,33.13 L 88.49 32.28"/>
  <path fill="none" d="M88.54,33.43 L 88.49 32.28"/>
  <path fill="none" d="M91.49,39.45 L 88.49 32.28"/>
  <path fill="none" d="M92.35,45.85 L 92.95 46.83"/>
  <path fill="none" d="M93.12,45.69 L 92.95 46.83"/>
  <path fill="none" d="M91.49,39.45 L 92.95 46.83"/>
  <path fill="none" d="M88.82,48.74 L 87.91 49.44"/>
  <path fill="none" d="M89.06,49.49 L 87.91 49.44"/>
  <path fill="none" d="M93.13,47.78 L 87.91 49.44"/>
  <path fill="none" d="M92.27,41.39 L 91.68 40.4"/>
  <path fill="none" d="M91.5,41.54 L 91.68 40.4"/>
  <path fill="none" d="M93.13,47.78 L 91.68 40.4"/>
  <path fill="none" d="M92.36,53.49 L 92.68 54.59"/>
  <path fill="none" d="M93.15,53.54 L 92.68 54.59"/>
  <path fill="none" d="M93.13,47.78 L 92.68 54.59"/>
  <path fill="none" d="M88.06,56.5 L 87.13 57.19"/>
  <path fill="none" d="M88.28,57.26 L 87.13 57.19"/>
  <path fill="none" d="M92.62,55.55 L 87.13 57.19"/>
  <path fill="none" d="M93.39,49.85 L 93.07 48.74"/>
  <path fill="none" d="M92.6,49.79 L 93.07 48.74"/>
  <path fill="none" d="M92.62,55.55 L 93.07 48.74"/>
  <path fill="none" d="M90.41,60.1 L 90.37 61.25"/>
  <path fill="none" d="M91.14,60.39 L 90.37 61.25"/>
  <path fill="none" d="M92.62,55.55 L 90.37 61.25"/>
  <path fill="none" d="M85.22,62.99 L 84.27 63.64"/>
  <path fill="none" d="M85.42,63.75 L 84.27 63.64"/>
  <path fill="none" d="M90.02,62.15 L 84.27 63.64"/>
  <path fill="none" d="M92.24,57.6 L 92.27 56.45"/>
  <path fill="none" d="M91.5,57.31 L 92.27 56.45"/>
  <path fill="none" d="M90.02,62.15 L 92.27 56.45"/>
</g>
<g stroke="#BBBBBB" fill="#AAAAFF" id="fig-98d3d1f170a74e91a412aa62ac9338c5-element-2">
  <circle cx="33.27" cy="49.87" r="0.96"/>
  <circle cx="33.31" cy="55.11" r="0.96"/>
  <circle cx="32.29" cy="62.04" r="0.96"/>
  <circle cx="30.87" cy="69.61" r="0.96"/>
  <circle cx="35.36" cy="76.2" r="0.96"/>
  <circle cx="45.04" cy="79.98" r="0.96"/>
  <circle cx="57.63" cy="80.48" r="0.96"/>
  <circle cx="68.56" cy="82.12" r="0.96"/>
  <circle cx="76.33" cy="85.96" r="0.96"/>
  <circle cx="80.73" cy="90.4" r="0.96"/>
  <circle cx="80.91" cy="93.13" r="0.96"/>
  <circle cx="23.61" cy="48.78" r="0.96"/>
  <circle cx="25.54" cy="53.43" r="0.96"/>
  <circle cx="25.64" cy="59.67" r="0.96"/>
  <circle cx="26.03" cy="66.36" r="0.96"/>
  <circle cx="32.04" cy="72.2" r="0.96"/>
  <circle cx="40.93" cy="76.29" r="0.96"/>
  <circle cx="51.37" cy="79.62" r="0.96"/>
  <circle cx="62.45" cy="82.5" r="0.96"/>
  <circle cx="71.25" cy="84.81" r="0.96"/>
  <circle cx="75.89" cy="88.4" r="0.96"/>
  <circle cx="74.98" cy="89.39" r="0.96"/>
  <circle cx="13.95" cy="46.23" r="0.96"/>
  <circle cx="16.19" cy="50.31" r="0.96"/>
  <circle cx="18.74" cy="55.01" r="0.96"/>
  <circle cx="23.05" cy="60.4" r="0.96"/>
  <circle cx="30.39" cy="65.2" r="0.96"/>
  <circle cx="38.95" cy="69.74" r="0.96"/>
  <circle cx="47.84" cy="73.91" r="0.96"/>
  <circle cx="57.66" cy="77.8" r="0.96"/>
  <circle cx="65.6" cy="81.47" r="0.96"/>
  <circle cx="68.82" cy="86.29" r="0.96"/>
  <circle cx="67.5" cy="85.14" r="0.96"/>
  <circle cx="8.47" cy="41.04" r="0.96"/>
  <circle cx="12.18" cy="43.82" r="0.96"/>
  <circle cx="17.37" cy="47.59" r="0.96"/>
  <circle cx="23.59" cy="52.26" r="0.96"/>
  <circle cx="31.29" cy="57.08" r="0.96"/>
  <circle cx="39.52" cy="61.74" r="0.96"/>
  <circle cx="47.13" cy="66.58" r="0.96"/>
  <circle cx="55.09" cy="71.12" r="0.96"/>
  <circle cx="61.16" cy="76.45" r="0.96"/>
  <circle cx="62.24" cy="81.57" r="0.96"/>
  <circle cx="59.79" cy="80.13" r="0.96"/>
  <circle cx="8.48" cy="34.5" r="0.96"/>
  <circle cx="13.53" cy="36.65" r="0.96"/>
  <circle cx="19.73" cy="39.84" r="0.96"/>
  <circle cx="26.95" cy="44.02" r="0.96"/>
  <circle cx="34.84" cy="48.36" r="0.96"/>
  <circle cx="42.21" cy="53.56" r="0.96"/>
  <circle cx="48.9" cy="58.83" r="0.96"/>
  <circle cx="54.25" cy="64.57" r="0.96"/>
  <circle cx="58.24" cy="70.76" r="0.96"/>
  <circle cx="56.66" cy="76.86" r="0.96"/>
  <circle cx="53.27" cy="80.76" r="0.96"/>
  <circle cx="13.79" cy="29.41" r="0.96"/>
  <circle cx="18.17" cy="30.01" r="0.96"/>
  <circle cx="24.88" cy="32.64" r="0.96"/>
  <circle cx="32.27" cy="36.3" r="0.96"/>
  <circle cx="39.99" cy="40.85" r="0.96"/>
  <circle cx="47.21" cy="45.92" r="0.96"/>
  <circle cx="53.03" cy="51.76" r="0.96"/>
  <circle cx="56.96" cy="58" r="0.96"/>
  <circle cx="57.49" cy="64.87" r="0.96"/>
  <circle cx="54.27" cy="71.54" r="0.96"/>
  <circle cx="52.09" cy="76.46" r="0.96"/>
  <circle cx="22.65" cy="27.85" r="0.96"/>
  <circle cx="25.44" cy="24.79" r="0.96"/>
  <circle cx="31.51" cy="26.03" r="0.96"/>
  <circle cx="39.42" cy="29.74" r="0.96"/>
  <circle cx="46.97" cy="34.15" r="0.96"/>
  <circle cx="53.87" cy="39.65" r="0.96"/>
  <circle cx="59.41" cy="45.68" r="0.96"/>
  <circle cx="62.53" cy="52.64" r="0.96"/>
  <circle cx="61.32" cy="59.7" r="0.96"/>
  <circle cx="58.56" cy="66.66" r="0.96"/>
  <circle cx="56.53" cy="72.43" r="0.96"/>
  <circle cx="32.76" cy="26.38" r="0.96"/>
  <circle cx="34.04" cy="21.31" r="0.96"/>
  <circle cx="40.03" cy="20.6" r="0.96"/>
  <circle cx="47.53" cy="24" r="0.96"/>
  <circle cx="55.09" cy="28.72" r="0.96"/>
  <circle cx="61.72" cy="34.28" r="0.96"/>
  <circle cx="67.07" cy="41.02" r="0.96"/>
  <circle cx="70.19" cy="48.24" r="0.96"/>
  <circle cx="70.32" cy="55.96" r="0.96"/>
  <circle cx="67.82" cy="63.15" r="0.96"/>
  <circle cx="64.97" cy="69.03" r="0.96"/>
  <circle cx="41.36" cy="21.85" r="0.96"/>
  <circle cx="42.74" cy="17.37" r="0.96"/>
  <circle cx="48.54" cy="15.74" r="0.96"/>
  <circle cx="56.17" cy="19.18" r="0.96"/>
  <circle cx="63.27" cy="23.95" r="0.96"/>
  <circle cx="69.86" cy="30.07" r="0.96"/>
  <circle cx="74.98" cy="36.95" r="0.96"/>
  <circle cx="78.3" cy="44.71" r="0.96"/>
  <circle cx="79.1" cy="52.54" r="0.96"/>
  <circle cx="77.69" cy="60.05" r="0.96"/>
  <circle cx="74.61" cy="66.21" r="0.96"/>
  <circle cx="48.9" cy="17.22" r="0.96"/>
  <circle cx="50.12" cy="12.5" r="0.96"/>
  <circle cx="56.46" cy="11.69" r="0.96"/>
  <circle cx="63.84" cy="15.02" r="0.96"/>
  <circle cx="70.74" cy="20.01" r="0.96"/>
  <circle cx="77.22" cy="26.43" r="0.96"/>
  <circle cx="82.25" cy="33.65" r="0.96"/>
  <circle cx="85.74" cy="41.68" r="0.96"/>
  <circle cx="86.99" cy="49.73" r="0.96"/>
  <circle cx="86.21" cy="57.47" r="0.96"/>
  <circle cx="83.34" cy="63.88" r="0.96"/>
  <circle cx="54.59" cy="13.36" r="0.96"/>
  <circle cx="55.65" cy="8.49" r="0.96"/>
  <circle cx="62.41" cy="8.47" r="0.96"/>
  <circle cx="69.55" cy="11.91" r="0.96"/>
  <circle cx="76.74" cy="17.24" r="0.96"/>
  <circle cx="82.9" cy="23.79" r="0.96"/>
  <circle cx="88.11" cy="31.39" r="0.96"/>
  <circle cx="91.49" cy="39.45" r="0.96"/>
  <circle cx="93.13" cy="47.78" r="0.96"/>
  <circle cx="92.62" cy="55.55" r="0.96"/>
  <circle cx="90.02" cy="62.15" r="0.96"/>
</g>
<g font-size="4" stroke="none" fill="#000000" id="fig-98d3d1f170a74e91a412aa62ac9338c5-element-3">
</g>
</svg>
