<?xml version="1.0" encoding="UTF-8"?>
<svg xmlns="http://www.w3.org/2000/svg"
     xmlns:xlink="http://www.w3.org/1999/xlink"
     xmlns:gadfly="http://www.gadflyjl.org/ns"
     version="1.2"
     width="101.6mm" height="101.6mm" viewBox="0 0 101.6 101.6"
     stroke="none"
     fill="#000000"
     stroke-width="0.3"
     font-size="3.88"
>
<g stroke-width="0.27" stroke="#BBBBBB" id="fig-b8ef3706ac714ac4b7df8a0804898bfa-element-1">
  <path fill="none" d="M86.71,92.74 L 85.63 93.13"/>
  <path fill="none" d="M86.71,93.53 L 85.63 93.13"/>
  <path fill="none" d="M93.13,93.13 L 85.63 93.13"/>
  <path fill="none" d="M93.53,86.71 L 93.13 85.63"/>
  <path fill="none" d="M92.74,86.71 L 93.13 85.63"/>
  <path fill="none" d="M93.13,93.13 L 93.13 85.63"/>
  <path fill="none" d="M91.09,93.53 L 92.17 93.13"/>
  <path fill="none" d="M91.09,92.74 L 92.17 93.13"/>
  <path fill="none" d="M84.67,93.13 L 92.17 93.13"/>
  <path fill="none" d="M78.25,92.74 L 77.16 93.13"/>
  <path fill="none" d="M78.25,93.53 L 77.16 93.13"/>
  <path fill="none" d="M84.67,93.13 L 77.16 93.13"/>
  <path fill="none" d="M85.06,86.71 L 84.67 85.63"/>
  <path fill="none" d="M84.27,86.71 L 84.67 85.63"/>
  <path fill="none" d="M84.67,93.13 L 84.67 85.63"/>
  <path fill="none" d="M82.62,93.53 L 83.7 93.13"/>
  <path fill="none" d="M82.62,92.74 L 83.7 93.13"/>
  <path fill="none" d="M76.2,93.13 L 83.7 93.13"/>
  <path fill="none" d="M69.78,92.74 L 68.7 93.13"/>
  <path fill="none" d="M69.78,93.53 L 68.7 93.13"/>
  <path fill="none" d="M76.2,93.13 L 68.7 93.13"/>
  <path fill="none" d="M76.59,86.71 L 76.2 85.63"/>
  <path fill="none" d="M75.81,86.71 L 76.2 85.63"/>
  <path fill="none" d="M76.2,93.13 L 76.2 85.63"/>
  <path fill="none" d="M74.15,93.53 L 75.24 93.13"/>
  <path fill="none" d="M74.15,92.74 L 75.24 93.13"/>
  <path fill="none" d="M67.73,93.13 L 75.24 93.13"/>
  <path fill="none" d="M61.31,92.74 L 60.23 93.13"/>
  <path fill="none" d="M61.31,93.53 L 60.23 93.13"/>
  <path fill="none" d="M67.73,93.13 L 60.23 93.13"/>
  <path fill="none" d="M68.13,86.71 L 67.73 85.63"/>
  <path fill="none" d="M67.34,86.71 L 67.73 85.63"/>
  <path fill="none" d="M67.73,93.13 L 67.73 85.63"/>
  <path fill="none" d="M65.69,93.53 L 66.77 93.13"/>
  <path fill="none" d="M65.69,92.74 L 66.77 93.13"/>
  <path fill="none" d="M59.27,93.13 L 66.77 93.13"/>
  <path fill="none" d="M52.85,92.74 L 51.76 93.13"/>
  <path fill="none" d="M52.85,93.53 L 51.76 93.13"/>
  <path fill="none" d="M59.27,93.13 L 51.76 93.13"/>
  <path fill="none" d="M59.66,86.71 L 59.27 85.63"/>
  <path fill="none" d="M58.87,86.71 L 59.27 85.63"/>
  <path fill="none" d="M59.27,93.13 L 59.27 85.63"/>
  <path fill="none" d="M57.22,93.53 L 58.3 93.13"/>
  <path fill="none" d="M57.22,92.74 L 58.3 93.13"/>
  <path fill="none" d="M50.8,93.13 L 58.3 93.13"/>
  <path fill="none" d="M44.38,92.74 L 43.3 93.13"/>
  <path fill="none" d="M44.38,93.53 L 43.3 93.13"/>
  <path fill="none" d="M50.8,93.13 L 43.3 93.13"/>
  <path fill="none" d="M51.19,86.71 L 50.8 85.63"/>
  <path fill="none" d="M50.41,86.71 L 50.8 85.63"/>
  <path fill="none" d="M50.8,93.13 L 50.8 85.63"/>
  <path fill="none" d="M48.75,93.53 L 49.84 93.13"/>
  <path fill="none" d="M48.75,92.74 L 49.84 93.13"/>
  <path fill="none" d="M42.33,93.13 L 49.84 93.13"/>
  <path fill="none" d="M35.91,92.74 L 34.83 93.13"/>
  <path fill="none" d="M35.91,93.53 L 34.83 93.13"/>
  <path fill="none" d="M42.33,93.13 L 34.83 93.13"/>
  <path fill="none" d="M10.51,92.74 L 9.43 93.13"/>
  <path fill="none" d="M10.51,93.53 L 9.43 93.13"/>
  <path fill="none" d="M42.33,93.13 L 9.43 93.13"/>
  <path fill="none" d="M42.73,86.71 L 42.33 85.63"/>
  <path fill="none" d="M41.94,86.71 L 42.33 85.63"/>
  <path fill="none" d="M42.33,93.13 L 42.33 85.63"/>
  <path fill="none" d="M40.29,93.53 L 41.37 93.13"/>
  <path fill="none" d="M40.29,92.74 L 41.37 93.13"/>
  <path fill="none" d="M33.87,93.13 L 41.37 93.13"/>
  <path fill="none" d="M27.45,92.74 L 26.36 93.13"/>
  <path fill="none" d="M27.45,93.53 L 26.36 93.13"/>
  <path fill="none" d="M33.87,93.13 L 26.36 93.13"/>
  <path fill="none" d="M34.26,86.71 L 33.87 85.63"/>
  <path fill="none" d="M33.47,86.71 L 33.87 85.63"/>
  <path fill="none" d="M33.87,93.13 L 33.87 85.63"/>
  <path fill="none" d="M31.82,93.53 L 32.9 93.13"/>
  <path fill="none" d="M31.82,92.74 L 32.9 93.13"/>
  <path fill="none" d="M25.4,93.13 L 32.9 93.13"/>
  <path fill="none" d="M18.98,92.74 L 17.9 93.13"/>
  <path fill="none" d="M18.98,93.53 L 17.9 93.13"/>
  <path fill="none" d="M25.4,93.13 L 17.9 93.13"/>
  <path fill="none" d="M25.79,86.71 L 25.4 85.63"/>
  <path fill="none" d="M25.01,86.71 L 25.4 85.63"/>
  <path fill="none" d="M25.4,93.13 L 25.4 85.63"/>
  <path fill="none" d="M23.35,93.53 L 24.44 93.13"/>
  <path fill="none" d="M23.35,92.74 L 24.44 93.13"/>
  <path fill="none" d="M16.93,93.13 L 24.44 93.13"/>
  <path fill="none" d="M10.51,92.74 L 9.43 93.13"/>
  <path fill="none" d="M10.51,93.53 L 9.43 93.13"/>
  <path fill="none" d="M16.93,93.13 L 9.43 93.13"/>
  <path fill="none" d="M17.33,86.71 L 16.93 85.63"/>
  <path fill="none" d="M16.54,86.71 L 16.93 85.63"/>
  <path fill="none" d="M16.93,93.13 L 16.93 85.63"/>
  <path fill="none" d="M40.29,93.53 L 41.37 93.13"/>
  <path fill="none" d="M40.29,92.74 L 41.37 93.13"/>
  <path fill="none" d="M8.47,93.13 L 41.37 93.13"/>
  <path fill="none" d="M14.89,93.53 L 15.97 93.13"/>
  <path fill="none" d="M14.89,92.74 L 15.97 93.13"/>
  <path fill="none" d="M8.47,93.13 L 15.97 93.13"/>
  <path fill="none" d="M8.86,86.71 L 8.47 85.63"/>
  <path fill="none" d="M8.07,86.71 L 8.47 85.63"/>
  <path fill="none" d="M8.47,93.13 L 8.47 85.63"/>
  <path fill="none" d="M92.74,91.09 L 93.13 92.17"/>
  <path fill="none" d="M93.53,91.09 L 93.13 92.17"/>
  <path fill="none" d="M93.13,84.67 L 93.13 92.17"/>
  <path fill="none" d="M86.71,84.27 L 85.63 84.67"/>
  <path fill="none" d="M86.71,85.06 L 85.63 84.67"/>
  <path fill="none" d="M93.13,84.67 L 85.63 84.67"/>
  <path fill="none" d="M93.53,78.25 L 93.13 77.16"/>
  <path fill="none" d="M92.74,78.25 L 93.13 77.16"/>
  <path fill="none" d="M93.13,84.67 L 93.13 77.16"/>
  <path fill="none" d="M84.27,91.09 L 84.67 92.17"/>
  <path fill="none" d="M85.06,91.09 L 84.67 92.17"/>
  <path fill="none" d="M84.67,84.67 L 84.67 92.17"/>
  <path fill="none" d="M91.09,85.06 L 92.17 84.67"/>
  <path fill="none" d="M91.09,84.27 L 92.17 84.67"/>
  <path fill="none" d="M84.67,84.67 L 92.17 84.67"/>
  <path fill="none" d="M78.25,84.27 L 77.16 84.67"/>
  <path fill="none" d="M78.25,85.06 L 77.16 84.67"/>
  <path fill="none" d="M84.67,84.67 L 77.16 84.67"/>
  <path fill="none" d="M85.06,78.25 L 84.67 77.16"/>
  <path fill="none" d="M84.27,78.25 L 84.67 77.16"/>
  <path fill="none" d="M84.67,84.67 L 84.67 77.16"/>
  <path fill="none" d="M75.81,91.09 L 76.2 92.17"/>
  <path fill="none" d="M76.59,91.09 L 76.2 92.17"/>
  <path fill="none" d="M76.2,84.67 L 76.2 92.17"/>
  <path fill="none" d="M82.62,85.06 L 83.7 84.67"/>
  <path fill="none" d="M82.62,84.27 L 83.7 84.67"/>
  <path fill="none" d="M76.2,84.67 L 83.7 84.67"/>
  <path fill="none" d="M69.78,84.27 L 68.7 84.67"/>
  <path fill="none" d="M69.78,85.06 L 68.7 84.67"/>
  <path fill="none" d="M76.2,84.67 L 68.7 84.67"/>
  <path fill="none" d="M76.59,78.25 L 76.2 77.16"/>
  <path fill="none" d="M75.81,78.25 L 76.2 77.16"/>
  <path fill="none" d="M76.2,84.67 L 76.2 77.16"/>
  <path fill="none" d="M67.34,91.09 L 67.73 92.17"/>
  <path fill="none" d="M68.13,91.09 L 67.73 92.17"/>
  <path fill="none" d="M67.73,84.67 L 67.73 92.17"/>
  <path fill="none" d="M74.15,85.06 L 75.24 84.67"/>
  <path fill="none" d="M74.15,84.27 L 75.24 84.67"/>
  <path fill="none" d="M67.73,84.67 L 75.24 84.67"/>
  <path fill="none" d="M61.31,84.27 L 60.23 84.67"/>
  <path fill="none" d="M61.31,85.06 L 60.23 84.67"/>
  <path fill="none" d="M67.73,84.67 L 60.23 84.67"/>
  <path fill="none" d="M68.13,78.25 L 67.73 77.16"/>
  <path fill="none" d="M67.34,78.25 L 67.73 77.16"/>
  <path fill="none" d="M67.73,84.67 L 67.73 77.16"/>
  <path fill="none" d="M58.87,91.09 L 59.27 92.17"/>
  <path fill="none" d="M59.66,91.09 L 59.27 92.17"/>
  <path fill="none" d="M59.27,84.67 L 59.27 92.17"/>
  <path fill="none" d="M65.69,85.06 L 66.77 84.67"/>
  <path fill="none" d="M65.69,84.27 L 66.77 84.67"/>
  <path fill="none" d="M59.27,84.67 L 66.77 84.67"/>
  <path fill="none" d="M52.85,84.27 L 51.76 84.67"/>
  <path fill="none" d="M52.85,85.06 L 51.76 84.67"/>
  <path fill="none" d="M59.27,84.67 L 51.76 84.67"/>
  <path fill="none" d="M59.66,78.25 L 59.27 77.16"/>
  <path fill="none" d="M58.87,78.25 L 59.27 77.16"/>
  <path fill="none" d="M59.27,84.67 L 59.27 77.16"/>
  <path fill="none" d="M50.41,91.09 L 50.8 92.17"/>
  <path fill="none" d="M51.19,91.09 L 50.8 92.17"/>
  <path fill="none" d="M50.8,84.67 L 50.8 92.17"/>
  <path fill="none" d="M57.22,85.06 L 58.3 84.67"/>
  <path fill="none" d="M57.22,84.27 L 58.3 84.67"/>
  <path fill="none" d="M50.8,84.67 L 58.3 84.67"/>
  <path fill="none" d="M44.38,84.27 L 43.3 84.67"/>
  <path fill="none" d="M44.38,85.06 L 43.3 84.67"/>
  <path fill="none" d="M50.8,84.67 L 43.3 84.67"/>
  <path fill="none" d="M51.19,78.25 L 50.8 77.16"/>
  <path fill="none" d="M50.41,78.25 L 50.8 77.16"/>
  <path fill="none" d="M50.8,84.67 L 50.8 77.16"/>
  <path fill="none" d="M41.94,91.09 L 42.33 92.17"/>
  <path fill="none" d="M42.73,91.09 L 42.33 92.17"/>
  <path fill="none" d="M42.33,84.67 L 42.33 92.17"/>
  <path fill="none" d="M48.75,85.06 L 49.84 84.67"/>
  <path fill="none" d="M48.75,84.27 L 49.84 84.67"/>
  <path fill="none" d="M42.33,84.67 L 49.84 84.67"/>
  <path fill="none" d="M35.91,84.27 L 34.83 84.67"/>
  <path fill="none" d="M35.91,85.06 L 34.83 84.67"/>
  <path fill="none" d="M42.33,84.67 L 34.83 84.67"/>
  <path fill="none" d="M42.73,78.25 L 42.33 77.16"/>
  <path fill="none" d="M41.94,78.25 L 42.33 77.16"/>
  <path fill="none" d="M42.33,84.67 L 42.33 77.16"/>
  <path fill="none" d="M26.23,10.38 L 25.61 9.41"/>
  <path fill="none" d="M25.46,10.55 L 25.61 9.41"/>
  <path fill="none" d="M42.33,84.67 L 25.61 9.41"/>
  <path fill="none" d="M33.47,91.09 L 33.87 92.17"/>
  <path fill="none" d="M34.26,91.09 L 33.87 92.17"/>
  <path fill="none" d="M33.87,84.67 L 33.87 92.17"/>
  <path fill="none" d="M40.29,85.06 L 41.37 84.67"/>
  <path fill="none" d="M40.29,84.27 L 41.37 84.67"/>
  <path fill="none" d="M33.87,84.67 L 41.37 84.67"/>
  <path fill="none" d="M27.45,84.27 L 26.36 84.67"/>
  <path fill="none" d="M27.45,85.06 L 26.36 84.67"/>
  <path fill="none" d="M33.87,84.67 L 26.36 84.67"/>
  <path fill="none" d="M34.26,78.25 L 33.87 77.16"/>
  <path fill="none" d="M33.47,78.25 L 33.87 77.16"/>
  <path fill="none" d="M33.87,84.67 L 33.87 77.16"/>
  <path fill="none" d="M25.01,91.09 L 25.4 92.17"/>
  <path fill="none" d="M25.79,91.09 L 25.4 92.17"/>
  <path fill="none" d="M25.4,84.67 L 25.4 92.17"/>
  <path fill="none" d="M31.82,85.06 L 32.9 84.67"/>
  <path fill="none" d="M31.82,84.27 L 32.9 84.67"/>
  <path fill="none" d="M25.4,84.67 L 32.9 84.67"/>
  <path fill="none" d="M18.98,84.27 L 17.9 84.67"/>
  <path fill="none" d="M18.98,85.06 L 17.9 84.67"/>
  <path fill="none" d="M25.4,84.67 L 17.9 84.67"/>
  <path fill="none" d="M25.79,78.25 L 25.4 77.16"/>
  <path fill="none" d="M25.01,78.25 L 25.4 77.16"/>
  <path fill="none" d="M25.4,84.67 L 25.4 77.16"/>
  <path fill="none" d="M16.54,91.09 L 16.93 92.17"/>
  <path fill="none" d="M17.33,91.09 L 16.93 92.17"/>
  <path fill="none" d="M16.93,84.67 L 16.93 92.17"/>
  <path fill="none" d="M23.35,85.06 L 24.44 84.67"/>
  <path fill="none" d="M23.35,84.27 L 24.44 84.67"/>
  <path fill="none" d="M16.93,84.67 L 24.44 84.67"/>
  <path fill="none" d="M10.51,84.27 L 9.43 84.67"/>
  <path fill="none" d="M10.51,85.06 L 9.43 84.67"/>
  <path fill="none" d="M16.93,84.67 L 9.43 84.67"/>
  <path fill="none" d="M17.33,78.25 L 16.93 77.16"/>
  <path fill="none" d="M16.54,78.25 L 16.93 77.16"/>
  <path fill="none" d="M16.93,84.67 L 16.93 77.16"/>
  <path fill="none" d="M8.07,91.09 L 8.47 92.17"/>
  <path fill="none" d="M8.86,91.09 L 8.47 92.17"/>
  <path fill="none" d="M8.47,84.67 L 8.47 92.17"/>
  <path fill="none" d="M14.89,85.06 L 15.97 84.67"/>
  <path fill="none" d="M14.89,84.27 L 15.97 84.67"/>
  <path fill="none" d="M8.47,84.67 L 15.97 84.67"/>
  <path fill="none" d="M8.86,78.25 L 8.47 77.16"/>
  <path fill="none" d="M8.07,78.25 L 8.47 77.16"/>
  <path fill="none" d="M8.47,84.67 L 8.47 77.16"/>
  <path fill="none" d="M92.74,82.62 L 93.13 83.7"/>
  <path fill="none" d="M93.53,82.62 L 93.13 83.7"/>
  <path fill="none" d="M93.13,76.2 L 93.13 83.7"/>
  <path fill="none" d="M86.71,75.81 L 85.63 76.2"/>
  <path fill="none" d="M86.71,76.59 L 85.63 76.2"/>
  <path fill="none" d="M93.13,76.2 L 85.63 76.2"/>
  <path fill="none" d="M93.53,69.78 L 93.13 68.7"/>
  <path fill="none" d="M92.74,69.78 L 93.13 68.7"/>
  <path fill="none" d="M93.13,76.2 L 93.13 68.7"/>
  <path fill="none" d="M93.53,44.38 L 93.13 43.3"/>
  <path fill="none" d="M92.74,44.38 L 93.13 43.3"/>
  <path fill="none" d="M93.13,76.2 L 93.13 43.3"/>
  <path fill="none" d="M84.27,82.62 L 84.67 83.7"/>
  <path fill="none" d="M85.06,82.62 L 84.67 83.7"/>
  <path fill="none" d="M84.67,76.2 L 84.67 83.7"/>
  <path fill="none" d="M91.09,76.59 L 92.17 76.2"/>
  <path fill="none" d="M91.09,75.81 L 92.17 76.2"/>
  <path fill="none" d="M84.67,76.2 L 92.17 76.2"/>
  <path fill="none" d="M78.25,75.81 L 77.16 76.2"/>
  <path fill="none" d="M78.25,76.59 L 77.16 76.2"/>
  <path fill="none" d="M84.67,76.2 L 77.16 76.2"/>
  <path fill="none" d="M85.06,69.78 L 84.67 68.7"/>
  <path fill="none" d="M84.27,69.78 L 84.67 68.7"/>
  <path fill="none" d="M84.67,76.2 L 84.67 68.7"/>
  <path fill="none" d="M75.81,82.62 L 76.2 83.7"/>
  <path fill="none" d="M76.59,82.62 L 76.2 83.7"/>
  <path fill="none" d="M76.2,76.2 L 76.2 83.7"/>
  <path fill="none" d="M82.62,76.59 L 83.7 76.2"/>
  <path fill="none" d="M82.62,75.81 L 83.7 76.2"/>
  <path fill="none" d="M76.2,76.2 L 83.7 76.2"/>
  <path fill="none" d="M69.78,75.81 L 68.7 76.2"/>
  <path fill="none" d="M69.78,76.59 L 68.7 76.2"/>
  <path fill="none" d="M76.2,76.2 L 68.7 76.2"/>
  <path fill="none" d="M76.59,69.78 L 76.2 68.7"/>
  <path fill="none" d="M75.81,69.78 L 76.2 68.7"/>
  <path fill="none" d="M76.2,76.2 L 76.2 68.7"/>
  <path fill="none" d="M67.34,82.62 L 67.73 83.7"/>
  <path fill="none" d="M68.13,82.62 L 67.73 83.7"/>
  <path fill="none" d="M67.73,76.2 L 67.73 83.7"/>
  <path fill="none" d="M74.15,76.59 L 75.24 76.2"/>
  <path fill="none" d="M74.15,75.81 L 75.24 76.2"/>
  <path fill="none" d="M67.73,76.2 L 75.24 76.2"/>
  <path fill="none" d="M61.31,75.81 L 60.23 76.2"/>
  <path fill="none" d="M61.31,76.59 L 60.23 76.2"/>
  <path fill="none" d="M67.73,76.2 L 60.23 76.2"/>
  <path fill="none" d="M68.13,69.78 L 67.73 68.7"/>
  <path fill="none" d="M67.34,69.78 L 67.73 68.7"/>
  <path fill="none" d="M67.73,76.2 L 67.73 68.7"/>
  <path fill="none" d="M58.87,82.62 L 59.27 83.7"/>
  <path fill="none" d="M59.66,82.62 L 59.27 83.7"/>
  <path fill="none" d="M59.27,76.2 L 59.27 83.7"/>
  <path fill="none" d="M65.69,76.59 L 66.77 76.2"/>
  <path fill="none" d="M65.69,75.81 L 66.77 76.2"/>
  <path fill="none" d="M59.27,76.2 L 66.77 76.2"/>
  <path fill="none" d="M52.85,75.81 L 51.76 76.2"/>
  <path fill="none" d="M52.85,76.59 L 51.76 76.2"/>
  <path fill="none" d="M59.27,76.2 L 51.76 76.2"/>
  <path fill="none" d="M59.66,69.78 L 59.27 68.7"/>
  <path fill="none" d="M58.87,69.78 L 59.27 68.7"/>
  <path fill="none" d="M59.27,76.2 L 59.27 68.7"/>
  <path fill="none" d="M50.41,82.62 L 50.8 83.7"/>
  <path fill="none" d="M51.19,82.62 L 50.8 83.7"/>
  <path fill="none" d="M50.8,76.2 L 50.8 83.7"/>
  <path fill="none" d="M57.22,76.59 L 58.3 76.2"/>
  <path fill="none" d="M57.22,75.81 L 58.3 76.2"/>
  <path fill="none" d="M50.8,76.2 L 58.3 76.2"/>
  <path fill="none" d="M44.38,75.81 L 43.3 76.2"/>
  <path fill="none" d="M44.38,76.59 L 43.3 76.2"/>
  <path fill="none" d="M50.8,76.2 L 43.3 76.2"/>
  <path fill="none" d="M51.19,69.78 L 50.8 68.7"/>
  <path fill="none" d="M50.41,69.78 L 50.8 68.7"/>
  <path fill="none" d="M50.8,76.2 L 50.8 68.7"/>
  <path fill="none" d="M41.94,82.62 L 42.33 83.7"/>
  <path fill="none" d="M42.73,82.62 L 42.33 83.7"/>
  <path fill="none" d="M42.33,76.2 L 42.33 83.7"/>
  <path fill="none" d="M48.75,76.59 L 49.84 76.2"/>
  <path fill="none" d="M48.75,75.81 L 49.84 76.2"/>
  <path fill="none" d="M42.33,76.2 L 49.84 76.2"/>
  <path fill="none" d="M35.91,75.81 L 34.83 76.2"/>
  <path fill="none" d="M35.91,76.59 L 34.83 76.2"/>
  <path fill="none" d="M42.33,76.2 L 34.83 76.2"/>
  <path fill="none" d="M42.73,69.78 L 42.33 68.7"/>
  <path fill="none" d="M41.94,69.78 L 42.33 68.7"/>
  <path fill="none" d="M42.33,76.2 L 42.33 68.7"/>
  <path fill="none" d="M33.47,82.62 L 33.87 83.7"/>
  <path fill="none" d="M34.26,82.62 L 33.87 83.7"/>
  <path fill="none" d="M33.87,76.2 L 33.87 83.7"/>
  <path fill="none" d="M40.29,76.59 L 41.37 76.2"/>
  <path fill="none" d="M40.29,75.81 L 41.37 76.2"/>
  <path fill="none" d="M33.87,76.2 L 41.37 76.2"/>
  <path fill="none" d="M27.45,75.81 L 26.36 76.2"/>
  <path fill="none" d="M27.45,76.59 L 26.36 76.2"/>
  <path fill="none" d="M33.87,76.2 L 26.36 76.2"/>
  <path fill="none" d="M34.26,69.78 L 33.87 68.7"/>
  <path fill="none" d="M33.47,69.78 L 33.87 68.7"/>
  <path fill="none" d="M33.87,76.2 L 33.87 68.7"/>
  <path fill="none" d="M25.01,82.62 L 25.4 83.7"/>
  <path fill="none" d="M25.79,82.62 L 25.4 83.7"/>
  <path fill="none" d="M25.4,76.2 L 25.4 83.7"/>
  <path fill="none" d="M31.82,76.59 L 32.9 76.2"/>
  <path fill="none" d="M31.82,75.81 L 32.9 76.2"/>
  <path fill="none" d="M25.4,76.2 L 32.9 76.2"/>
  <path fill="none" d="M18.98,75.81 L 17.9 76.2"/>
  <path fill="none" d="M18.98,76.59 L 17.9 76.2"/>
  <path fill="none" d="M25.4,76.2 L 17.9 76.2"/>
  <path fill="none" d="M25.79,69.78 L 25.4 68.7"/>
  <path fill="none" d="M25.01,69.78 L 25.4 68.7"/>
  <path fill="none" d="M25.4,76.2 L 25.4 68.7"/>
  <path fill="none" d="M16.54,82.62 L 16.93 83.7"/>
  <path fill="none" d="M17.33,82.62 L 16.93 83.7"/>
  <path fill="none" d="M16.93,76.2 L 16.93 83.7"/>
  <path fill="none" d="M23.35,76.59 L 24.44 76.2"/>
  <path fill="none" d="M23.35,75.81 L 24.44 76.2"/>
  <path fill="none" d="M16.93,76.2 L 24.44 76.2"/>
  <path fill="none" d="M10.51,75.81 L 9.43 76.2"/>
  <path fill="none" d="M10.51,76.59 L 9.43 76.2"/>
  <path fill="none" d="M16.93,76.2 L 9.43 76.2"/>
  <path fill="none" d="M17.33,69.78 L 16.93 68.7"/>
  <path fill="none" d="M16.54,69.78 L 16.93 68.7"/>
  <path fill="none" d="M16.93,76.2 L 16.93 68.7"/>
  <path fill="none" d="M8.07,82.62 L 8.47 83.7"/>
  <path fill="none" d="M8.86,82.62 L 8.47 83.7"/>
  <path fill="none" d="M8.47,76.2 L 8.47 83.7"/>
  <path fill="none" d="M14.89,76.59 L 15.97 76.2"/>
  <path fill="none" d="M14.89,75.81 L 15.97 76.2"/>
  <path fill="none" d="M8.47,76.2 L 15.97 76.2"/>
  <path fill="none" d="M8.86,69.78 L 8.47 68.7"/>
  <path fill="none" d="M8.07,69.78 L 8.47 68.7"/>
  <path fill="none" d="M8.47,76.2 L 8.47 68.7"/>
  <path fill="none" d="M92.74,74.15 L 93.13 75.24"/>
  <path fill="none" d="M93.53,74.15 L 93.13 75.24"/>
  <path fill="none" d="M93.13,67.73 L 93.13 75.24"/>
  <path fill="none" d="M86.71,67.34 L 85.63 67.73"/>
  <path fill="none" d="M86.71,68.13 L 85.63 67.73"/>
  <path fill="none" d="M93.13,67.73 L 85.63 67.73"/>
  <path fill="none" d="M93.53,61.31 L 93.13 60.23"/>
  <path fill="none" d="M92.74,61.31 L 93.13 60.23"/>
  <path fill="none" d="M93.13,67.73 L 93.13 60.23"/>
  <path fill="none" d="M84.27,74.15 L 84.67 75.24"/>
  <path fill="none" d="M85.06,74.15 L 84.67 75.24"/>
  <path fill="none" d="M84.67,67.73 L 84.67 75.24"/>
  <path fill="none" d="M91.09,68.13 L 92.17 67.73"/>
  <path fill="none" d="M91.09,67.34 L 92.17 67.73"/>
  <path fill="none" d="M84.67,67.73 L 92.17 67.73"/>
  <path fill="none" d="M78.25,67.34 L 77.16 67.73"/>
  <path fill="none" d="M78.25,68.13 L 77.16 67.73"/>
  <path fill="none" d="M84.67,67.73 L 77.16 67.73"/>
  <path fill="none" d="M85.06,61.31 L 84.67 60.23"/>
  <path fill="none" d="M84.27,61.31 L 84.67 60.23"/>
  <path fill="none" d="M84.67,67.73 L 84.67 60.23"/>
  <path fill="none" d="M75.81,74.15 L 76.2 75.24"/>
  <path fill="none" d="M76.59,74.15 L 76.2 75.24"/>
  <path fill="none" d="M76.2,67.73 L 76.2 75.24"/>
  <path fill="none" d="M82.62,68.13 L 83.7 67.73"/>
  <path fill="none" d="M82.62,67.34 L 83.7 67.73"/>
  <path fill="none" d="M76.2,67.73 L 83.7 67.73"/>
  <path fill="none" d="M69.78,67.34 L 68.7 67.73"/>
  <path fill="none" d="M69.78,68.13 L 68.7 67.73"/>
  <path fill="none" d="M76.2,67.73 L 68.7 67.73"/>
  <path fill="none" d="M76.59,61.31 L 76.2 60.23"/>
  <path fill="none" d="M75.81,61.31 L 76.2 60.23"/>
  <path fill="none" d="M76.2,67.73 L 76.2 60.23"/>
  <path fill="none" d="M67.34,74.15 L 67.73 75.24"/>
  <path fill="none" d="M68.13,74.15 L 67.73 75.24"/>
  <path fill="none" d="M67.73,67.73 L 67.73 75.24"/>
  <path fill="none" d="M74.15,68.13 L 75.24 67.73"/>
  <path fill="none" d="M74.15,67.34 L 75.24 67.73"/>
  <path fill="none" d="M67.73,67.73 L 75.24 67.73"/>
  <path fill="none" d="M61.31,67.34 L 60.23 67.73"/>
  <path fill="none" d="M61.31,68.13 L 60.23 67.73"/>
  <path fill="none" d="M67.73,67.73 L 60.23 67.73"/>
  <path fill="none" d="M68.13,61.31 L 67.73 60.23"/>
  <path fill="none" d="M67.34,61.31 L 67.73 60.23"/>
  <path fill="none" d="M67.73,67.73 L 67.73 60.23"/>
  <path fill="none" d="M58.87,74.15 L 59.27 75.24"/>
  <path fill="none" d="M59.66,74.15 L 59.27 75.24"/>
  <path fill="none" d="M59.27,67.73 L 59.27 75.24"/>
  <path fill="none" d="M65.69,68.13 L 66.77 67.73"/>
  <path fill="none" d="M65.69,67.34 L 66.77 67.73"/>
  <path fill="none" d="M59.27,67.73 L 66.77 67.73"/>
  <path fill="none" d="M52.85,67.34 L 51.76 67.73"/>
  <path fill="none" d="M52.85,68.13 L 51.76 67.73"/>
  <path fill="none" d="M59.27,67.73 L 51.76 67.73"/>
  <path fill="none" d="M59.66,61.31 L 59.27 60.23"/>
  <path fill="none" d="M58.87,61.31 L 59.27 60.23"/>
  <path fill="none" d="M59.27,67.73 L 59.27 60.23"/>
  <path fill="none" d="M50.41,74.15 L 50.8 75.24"/>
  <path fill="none" d="M51.19,74.15 L 50.8 75.24"/>
  <path fill="none" d="M50.8,67.73 L 50.8 75.24"/>
  <path fill="none" d="M57.22,68.13 L 58.3 67.73"/>
  <path fill="none" d="M57.22,67.34 L 58.3 67.73"/>
  <path fill="none" d="M50.8,67.73 L 58.3 67.73"/>
  <path fill="none" d="M44.38,67.34 L 43.3 67.73"/>
  <path fill="none" d="M44.38,68.13 L 43.3 67.73"/>
  <path fill="none" d="M50.8,67.73 L 43.3 67.73"/>
  <path fill="none" d="M51.19,61.31 L 50.8 60.23"/>
  <path fill="none" d="M50.41,61.31 L 50.8 60.23"/>
  <path fill="none" d="M50.8,67.73 L 50.8 60.23"/>
  <path fill="none" d="M41.94,74.15 L 42.33 75.24"/>
  <path fill="none" d="M42.73,74.15 L 42.33 75.24"/>
  <path fill="none" d="M42.33,67.73 L 42.33 75.24"/>
  <path fill="none" d="M48.75,68.13 L 49.84 67.73"/>
  <path fill="none" d="M48.75,67.34 L 49.84 67.73"/>
  <path fill="none" d="M42.33,67.73 L 49.84 67.73"/>
  <path fill="none" d="M35.91,67.34 L 34.83 67.73"/>
  <path fill="none" d="M35.91,68.13 L 34.83 67.73"/>
  <path fill="none" d="M42.33,67.73 L 34.83 67.73"/>
  <path fill="none" d="M42.73,61.31 L 42.33 60.23"/>
  <path fill="none" d="M41.94,61.31 L 42.33 60.23"/>
  <path fill="none" d="M42.33,67.73 L 42.33 60.23"/>
  <path fill="none" d="M33.47,74.15 L 33.87 75.24"/>
  <path fill="none" d="M34.26,74.15 L 33.87 75.24"/>
  <path fill="none" d="M33.87,67.73 L 33.87 75.24"/>
  <path fill="none" d="M40.29,68.13 L 41.37 67.73"/>
  <path fill="none" d="M40.29,67.34 L 41.37 67.73"/>
  <path fill="none" d="M33.87,67.73 L 41.37 67.73"/>
  <path fill="none" d="M27.45,67.34 L 26.36 67.73"/>
  <path fill="none" d="M27.45,68.13 L 26.36 67.73"/>
  <path fill="none" d="M33.87,67.73 L 26.36 67.73"/>
  <path fill="none" d="M34.26,61.31 L 33.87 60.23"/>
  <path fill="none" d="M33.47,61.31 L 33.87 60.23"/>
  <path fill="none" d="M33.87,67.73 L 33.87 60.23"/>
  <path fill="none" d="M26.28,35.76 L 25.63 34.8"/>
  <path fill="none" d="M25.51,35.95 L 25.63 34.8"/>
  <path fill="none" d="M33.87,67.73 L 25.63 34.8"/>
  <path fill="none" d="M25.01,74.15 L 25.4 75.24"/>
  <path fill="none" d="M25.79,74.15 L 25.4 75.24"/>
  <path fill="none" d="M25.4,67.73 L 25.4 75.24"/>
  <path fill="none" d="M31.82,68.13 L 32.9 67.73"/>
  <path fill="none" d="M31.82,67.34 L 32.9 67.73"/>
  <path fill="none" d="M25.4,67.73 L 32.9 67.73"/>
  <path fill="none" d="M18.98,67.34 L 17.9 67.73"/>
  <path fill="none" d="M18.98,68.13 L 17.9 67.73"/>
  <path fill="none" d="M25.4,67.73 L 17.9 67.73"/>
  <path fill="none" d="M25.79,61.31 L 25.4 60.23"/>
  <path fill="none" d="M25.01,61.31 L 25.4 60.23"/>
  <path fill="none" d="M25.4,67.73 L 25.4 60.23"/>
  <path fill="none" d="M16.54,74.15 L 16.93 75.24"/>
  <path fill="none" d="M17.33,74.15 L 16.93 75.24"/>
  <path fill="none" d="M16.93,67.73 L 16.93 75.24"/>
  <path fill="none" d="M23.35,68.13 L 24.44 67.73"/>
  <path fill="none" d="M23.35,67.34 L 24.44 67.73"/>
  <path fill="none" d="M16.93,67.73 L 24.44 67.73"/>
  <path fill="none" d="M10.51,67.34 L 9.43 67.73"/>
  <path fill="none" d="M10.51,68.13 L 9.43 67.73"/>
  <path fill="none" d="M16.93,67.73 L 9.43 67.73"/>
  <path fill="none" d="M17.33,61.31 L 16.93 60.23"/>
  <path fill="none" d="M16.54,61.31 L 16.93 60.23"/>
  <path fill="none" d="M16.93,67.73 L 16.93 60.23"/>
  <path fill="none" d="M8.07,74.15 L 8.47 75.24"/>
  <path fill="none" d="M8.86,74.15 L 8.47 75.24"/>
  <path fill="none" d="M8.47,67.73 L 8.47 75.24"/>
  <path fill="none" d="M14.89,68.13 L 15.97 67.73"/>
  <path fill="none" d="M14.89,67.34 L 15.97 67.73"/>
  <path fill="none" d="M8.47,67.73 L 15.97 67.73"/>
  <path fill="none" d="M8.86,61.31 L 8.47 60.23"/>
  <path fill="none" d="M8.07,61.31 L 8.47 60.23"/>
  <path fill="none" d="M8.47,67.73 L 8.47 60.23"/>
  <path fill="none" d="M92.74,65.69 L 93.13 66.77"/>
  <path fill="none" d="M93.53,65.69 L 93.13 66.77"/>
  <path fill="none" d="M93.13,59.27 L 93.13 66.77"/>
  <path fill="none" d="M86.71,58.87 L 85.63 59.27"/>
  <path fill="none" d="M86.71,59.66 L 85.63 59.27"/>
  <path fill="none" d="M93.13,59.27 L 85.63 59.27"/>
  <path fill="none" d="M93.53,52.85 L 93.13 51.76"/>
  <path fill="none" d="M92.74,52.85 L 93.13 51.76"/>
  <path fill="none" d="M93.13,59.27 L 93.13 51.76"/>
  <path fill="none" d="M84.27,65.69 L 84.67 66.77"/>
  <path fill="none" d="M85.06,65.69 L 84.67 66.77"/>
  <path fill="none" d="M84.67,59.27 L 84.67 66.77"/>
  <path fill="none" d="M91.09,59.66 L 92.17 59.27"/>
  <path fill="none" d="M91.09,58.87 L 92.17 59.27"/>
  <path fill="none" d="M84.67,59.27 L 92.17 59.27"/>
  <path fill="none" d="M78.25,58.87 L 77.16 59.27"/>
  <path fill="none" d="M78.25,59.66 L 77.16 59.27"/>
  <path fill="none" d="M84.67,59.27 L 77.16 59.27"/>
  <path fill="none" d="M85.06,52.85 L 84.67 51.76"/>
  <path fill="none" d="M84.27,52.85 L 84.67 51.76"/>
  <path fill="none" d="M84.67,59.27 L 84.67 51.76"/>
  <path fill="none" d="M75.81,65.69 L 76.2 66.77"/>
  <path fill="none" d="M76.59,65.69 L 76.2 66.77"/>
  <path fill="none" d="M76.2,59.27 L 76.2 66.77"/>
  <path fill="none" d="M82.62,59.66 L 83.7 59.27"/>
  <path fill="none" d="M82.62,58.87 L 83.7 59.27"/>
  <path fill="none" d="M76.2,59.27 L 83.7 59.27"/>
  <path fill="none" d="M69.78,58.87 L 68.7 59.27"/>
  <path fill="none" d="M69.78,59.66 L 68.7 59.27"/>
  <path fill="none" d="M76.2,59.27 L 68.7 59.27"/>
  <path fill="none" d="M76.59,52.85 L 76.2 51.76"/>
  <path fill="none" d="M75.81,52.85 L 76.2 51.76"/>
  <path fill="none" d="M76.2,59.27 L 76.2 51.76"/>
  <path fill="none" d="M67.34,65.69 L 67.73 66.77"/>
  <path fill="none" d="M68.13,65.69 L 67.73 66.77"/>
  <path fill="none" d="M67.73,59.27 L 67.73 66.77"/>
  <path fill="none" d="M74.15,59.66 L 75.24 59.27"/>
  <path fill="none" d="M74.15,58.87 L 75.24 59.27"/>
  <path fill="none" d="M67.73,59.27 L 75.24 59.27"/>
  <path fill="none" d="M61.31,58.87 L 60.23 59.27"/>
  <path fill="none" d="M61.31,59.66 L 60.23 59.27"/>
  <path fill="none" d="M67.73,59.27 L 60.23 59.27"/>
  <path fill="none" d="M68.13,52.85 L 67.73 51.76"/>
  <path fill="none" d="M67.34,52.85 L 67.73 51.76"/>
  <path fill="none" d="M67.73,59.27 L 67.73 51.76"/>
  <path fill="none" d="M58.87,65.69 L 59.27 66.77"/>
  <path fill="none" d="M59.66,65.69 L 59.27 66.77"/>
  <path fill="none" d="M59.27,59.27 L 59.27 66.77"/>
  <path fill="none" d="M65.69,59.66 L 66.77 59.27"/>
  <path fill="none" d="M65.69,58.87 L 66.77 59.27"/>
  <path fill="none" d="M59.27,59.27 L 66.77 59.27"/>
  <path fill="none" d="M52.85,58.87 L 51.76 59.27"/>
  <path fill="none" d="M52.85,59.66 L 51.76 59.27"/>
  <path fill="none" d="M59.27,59.27 L 51.76 59.27"/>
  <path fill="none" d="M59.66,52.85 L 59.27 51.76"/>
  <path fill="none" d="M58.87,52.85 L 59.27 51.76"/>
  <path fill="none" d="M59.27,59.27 L 59.27 51.76"/>
  <path fill="none" d="M50.41,65.69 L 50.8 66.77"/>
  <path fill="none" d="M51.19,65.69 L 50.8 66.77"/>
  <path fill="none" d="M50.8,59.27 L 50.8 66.77"/>
  <path fill="none" d="M57.22,59.66 L 58.3 59.27"/>
  <path fill="none" d="M57.22,58.87 L 58.3 59.27"/>
  <path fill="none" d="M50.8,59.27 L 58.3 59.27"/>
  <path fill="none" d="M44.38,58.87 L 43.3 59.27"/>
  <path fill="none" d="M44.38,59.66 L 43.3 59.27"/>
  <path fill="none" d="M50.8,59.27 L 43.3 59.27"/>
  <path fill="none" d="M51.19,52.85 L 50.8 51.76"/>
  <path fill="none" d="M50.41,52.85 L 50.8 51.76"/>
  <path fill="none" d="M50.8,59.27 L 50.8 51.76"/>
  <path fill="none" d="M41.94,65.69 L 42.33 66.77"/>
  <path fill="none" d="M42.73,65.69 L 42.33 66.77"/>
  <path fill="none" d="M42.33,59.27 L 42.33 66.77"/>
  <path fill="none" d="M48.75,59.66 L 49.84 59.27"/>
  <path fill="none" d="M48.75,58.87 L 49.84 59.27"/>
  <path fill="none" d="M42.33,59.27 L 49.84 59.27"/>
  <path fill="none" d="M35.91,58.87 L 34.83 59.27"/>
  <path fill="none" d="M35.91,59.66 L 34.83 59.27"/>
  <path fill="none" d="M42.33,59.27 L 34.83 59.27"/>
  <path fill="none" d="M42.73,52.85 L 42.33 51.76"/>
  <path fill="none" d="M41.94,52.85 L 42.33 51.76"/>
  <path fill="none" d="M42.33,59.27 L 42.33 51.76"/>
  <path fill="none" d="M33.47,65.69 L 33.87 66.77"/>
  <path fill="none" d="M34.26,65.69 L 33.87 66.77"/>
  <path fill="none" d="M33.87,59.27 L 33.87 66.77"/>
  <path fill="none" d="M40.29,59.66 L 41.37 59.27"/>
  <path fill="none" d="M40.29,58.87 L 41.37 59.27"/>
  <path fill="none" d="M33.87,59.27 L 41.37 59.27"/>
  <path fill="none" d="M27.45,58.87 L 26.36 59.27"/>
  <path fill="none" d="M27.45,59.66 L 26.36 59.27"/>
  <path fill="none" d="M33.87,59.27 L 26.36 59.27"/>
  <path fill="none" d="M34.26,52.85 L 33.87 51.76"/>
  <path fill="none" d="M33.47,52.85 L 33.87 51.76"/>
  <path fill="none" d="M33.87,59.27 L 33.87 51.76"/>
  <path fill="none" d="M25.01,65.69 L 25.4 66.77"/>
  <path fill="none" d="M25.79,65.69 L 25.4 66.77"/>
  <path fill="none" d="M25.4,59.27 L 25.4 66.77"/>
  <path fill="none" d="M31.82,59.66 L 32.9 59.27"/>
  <path fill="none" d="M31.82,58.87 L 32.9 59.27"/>
  <path fill="none" d="M25.4,59.27 L 32.9 59.27"/>
  <path fill="none" d="M18.98,58.87 L 17.9 59.27"/>
  <path fill="none" d="M18.98,59.66 L 17.9 59.27"/>
  <path fill="none" d="M25.4,59.27 L 17.9 59.27"/>
  <path fill="none" d="M25.79,52.85 L 25.4 51.76"/>
  <path fill="none" d="M25.01,52.85 L 25.4 51.76"/>
  <path fill="none" d="M25.4,59.27 L 25.4 51.76"/>
  <path fill="none" d="M16.54,65.69 L 16.93 66.77"/>
  <path fill="none" d="M17.33,65.69 L 16.93 66.77"/>
  <path fill="none" d="M16.93,59.27 L 16.93 66.77"/>
  <path fill="none" d="M23.35,59.66 L 24.44 59.27"/>
  <path fill="none" d="M23.35,58.87 L 24.44 59.27"/>
  <path fill="none" d="M16.93,59.27 L 24.44 59.27"/>
  <path fill="none" d="M10.51,58.87 L 9.43 59.27"/>
  <path fill="none" d="M10.51,59.66 L 9.43 59.27"/>
  <path fill="none" d="M16.93,59.27 L 9.43 59.27"/>
  <path fill="none" d="M17.33,52.85 L 16.93 51.76"/>
  <path fill="none" d="M16.54,52.85 L 16.93 51.76"/>
  <path fill="none" d="M16.93,59.27 L 16.93 51.76"/>
  <path fill="none" d="M8.07,65.69 L 8.47 66.77"/>
  <path fill="none" d="M8.86,65.69 L 8.47 66.77"/>
  <path fill="none" d="M8.47,59.27 L 8.47 66.77"/>
  <path fill="none" d="M14.89,59.66 L 15.97 59.27"/>
  <path fill="none" d="M14.89,58.87 L 15.97 59.27"/>
  <path fill="none" d="M8.47,59.27 L 15.97 59.27"/>
  <path fill="none" d="M8.86,52.85 L 8.47 51.76"/>
  <path fill="none" d="M8.07,52.85 L 8.47 51.76"/>
  <path fill="none" d="M8.47,59.27 L 8.47 51.76"/>
  <path fill="none" d="M92.74,57.22 L 93.13 58.3"/>
  <path fill="none" d="M93.53,57.22 L 93.13 58.3"/>
  <path fill="none" d="M93.13,50.8 L 93.13 58.3"/>
  <path fill="none" d="M86.71,50.41 L 85.63 50.8"/>
  <path fill="none" d="M86.71,51.19 L 85.63 50.8"/>
  <path fill="none" d="M93.13,50.8 L 85.63 50.8"/>
  <path fill="none" d="M93.53,44.38 L 93.13 43.3"/>
  <path fill="none" d="M92.74,44.38 L 93.13 43.3"/>
  <path fill="none" d="M93.13,50.8 L 93.13 43.3"/>
  <path fill="none" d="M84.27,57.22 L 84.67 58.3"/>
  <path fill="none" d="M85.06,57.22 L 84.67 58.3"/>
  <path fill="none" d="M84.67,50.8 L 84.67 58.3"/>
  <path fill="none" d="M91.09,51.19 L 92.17 50.8"/>
  <path fill="none" d="M91.09,50.41 L 92.17 50.8"/>
  <path fill="none" d="M84.67,50.8 L 92.17 50.8"/>
  <path fill="none" d="M78.25,50.41 L 77.16 50.8"/>
  <path fill="none" d="M78.25,51.19 L 77.16 50.8"/>
  <path fill="none" d="M84.67,50.8 L 77.16 50.8"/>
  <path fill="none" d="M85.06,44.38 L 84.67 43.3"/>
  <path fill="none" d="M84.27,44.38 L 84.67 43.3"/>
  <path fill="none" d="M84.67,50.8 L 84.67 43.3"/>
  <path fill="none" d="M75.81,57.22 L 76.2 58.3"/>
  <path fill="none" d="M76.59,57.22 L 76.2 58.3"/>
  <path fill="none" d="M76.2,50.8 L 76.2 58.3"/>
  <path fill="none" d="M82.62,51.19 L 83.7 50.8"/>
  <path fill="none" d="M82.62,50.41 L 83.7 50.8"/>
  <path fill="none" d="M76.2,50.8 L 83.7 50.8"/>
  <path fill="none" d="M69.78,50.41 L 68.7 50.8"/>
  <path fill="none" d="M69.78,51.19 L 68.7 50.8"/>
  <path fill="none" d="M76.2,50.8 L 68.7 50.8"/>
  <path fill="none" d="M76.59,44.38 L 76.2 43.3"/>
  <path fill="none" d="M75.81,44.38 L 76.2 43.3"/>
  <path fill="none" d="M76.2,50.8 L 76.2 43.3"/>
  <path fill="none" d="M67.34,57.22 L 67.73 58.3"/>
  <path fill="none" d="M68.13,57.22 L 67.73 58.3"/>
  <path fill="none" d="M67.73,50.8 L 67.73 58.3"/>
  <path fill="none" d="M74.15,51.19 L 75.24 50.8"/>
  <path fill="none" d="M74.15,50.41 L 75.24 50.8"/>
  <path fill="none" d="M67.73,50.8 L 75.24 50.8"/>
  <path fill="none" d="M61.31,50.41 L 60.23 50.8"/>
  <path fill="none" d="M61.31,51.19 L 60.23 50.8"/>
  <path fill="none" d="M67.73,50.8 L 60.23 50.8"/>
  <path fill="none" d="M68.13,44.38 L 67.73 43.3"/>
  <path fill="none" d="M67.34,44.38 L 67.73 43.3"/>
  <path fill="none" d="M67.73,50.8 L 67.73 43.3"/>
  <path fill="none" d="M58.87,57.22 L 59.27 58.3"/>
  <path fill="none" d="M59.66,57.22 L 59.27 58.3"/>
  <path fill="none" d="M59.27,50.8 L 59.27 58.3"/>
  <path fill="none" d="M65.69,51.19 L 66.77 50.8"/>
  <path fill="none" d="M65.69,50.41 L 66.77 50.8"/>
  <path fill="none" d="M59.27,50.8 L 66.77 50.8"/>
  <path fill="none" d="M52.85,50.41 L 51.76 50.8"/>
  <path fill="none" d="M52.85,51.19 L 51.76 50.8"/>
  <path fill="none" d="M59.27,50.8 L 51.76 50.8"/>
  <path fill="none" d="M59.66,44.38 L 59.27 43.3"/>
  <path fill="none" d="M58.87,44.38 L 59.27 43.3"/>
  <path fill="none" d="M59.27,50.8 L 59.27 43.3"/>
  <path fill="none" d="M50.41,57.22 L 50.8 58.3"/>
  <path fill="none" d="M51.19,57.22 L 50.8 58.3"/>
  <path fill="none" d="M50.8,50.8 L 50.8 58.3"/>
  <path fill="none" d="M57.22,51.19 L 58.3 50.8"/>
  <path fill="none" d="M57.22,50.41 L 58.3 50.8"/>
  <path fill="none" d="M50.8,50.8 L 58.3 50.8"/>
  <path fill="none" d="M44.38,50.41 L 43.3 50.8"/>
  <path fill="none" d="M44.38,51.19 L 43.3 50.8"/>
  <path fill="none" d="M50.8,50.8 L 43.3 50.8"/>
  <path fill="none" d="M51.19,44.38 L 50.8 43.3"/>
  <path fill="none" d="M50.41,44.38 L 50.8 43.3"/>
  <path fill="none" d="M50.8,50.8 L 50.8 43.3"/>
  <path fill="none" d="M41.94,57.22 L 42.33 58.3"/>
  <path fill="none" d="M42.73,57.22 L 42.33 58.3"/>
  <path fill="none" d="M42.33,50.8 L 42.33 58.3"/>
  <path fill="none" d="M48.75,51.19 L 49.84 50.8"/>
  <path fill="none" d="M48.75,50.41 L 49.84 50.8"/>
  <path fill="none" d="M42.33,50.8 L 49.84 50.8"/>
  <path fill="none" d="M35.91,50.41 L 34.83 50.8"/>
  <path fill="none" d="M35.91,51.19 L 34.83 50.8"/>
  <path fill="none" d="M42.33,50.8 L 34.83 50.8"/>
  <path fill="none" d="M42.73,44.38 L 42.33 43.3"/>
  <path fill="none" d="M41.94,44.38 L 42.33 43.3"/>
  <path fill="none" d="M42.33,50.8 L 42.33 43.3"/>
  <path fill="none" d="M33.47,57.22 L 33.87 58.3"/>
  <path fill="none" d="M34.26,57.22 L 33.87 58.3"/>
  <path fill="none" d="M33.87,50.8 L 33.87 58.3"/>
  <path fill="none" d="M40.29,51.19 L 41.37 50.8"/>
  <path fill="none" d="M40.29,50.41 L 41.37 50.8"/>
  <path fill="none" d="M33.87,50.8 L 41.37 50.8"/>
  <path fill="none" d="M27.45,50.41 L 26.36 50.8"/>
  <path fill="none" d="M27.45,51.19 L 26.36 50.8"/>
  <path fill="none" d="M33.87,50.8 L 26.36 50.8"/>
  <path fill="none" d="M34.26,44.38 L 33.87 43.3"/>
  <path fill="none" d="M33.47,44.38 L 33.87 43.3"/>
  <path fill="none" d="M33.87,50.8 L 33.87 43.3"/>
  <path fill="none" d="M25.01,57.22 L 25.4 58.3"/>
  <path fill="none" d="M25.79,57.22 L 25.4 58.3"/>
  <path fill="none" d="M25.4,50.8 L 25.4 58.3"/>
  <path fill="none" d="M31.82,51.19 L 32.9 50.8"/>
  <path fill="none" d="M31.82,50.41 L 32.9 50.8"/>
  <path fill="none" d="M25.4,50.8 L 32.9 50.8"/>
  <path fill="none" d="M18.98,50.41 L 17.9 50.8"/>
  <path fill="none" d="M18.98,51.19 L 17.9 50.8"/>
  <path fill="none" d="M25.4,50.8 L 17.9 50.8"/>
  <path fill="none" d="M25.79,44.38 L 25.4 43.3"/>
  <path fill="none" d="M25.01,44.38 L 25.4 43.3"/>
  <path fill="none" d="M25.4,50.8 L 25.4 43.3"/>
  <path fill="none" d="M16.54,57.22 L 16.93 58.3"/>
  <path fill="none" d="M17.33,57.22 L 16.93 58.3"/>
  <path fill="none" d="M16.93,50.8 L 16.93 58.3"/>
  <path fill="none" d="M23.35,51.19 L 24.44 50.8"/>
  <path fill="none" d="M23.35,50.41 L 24.44 50.8"/>
  <path fill="none" d="M16.93,50.8 L 24.44 50.8"/>
  <path fill="none" d="M10.51,50.41 L 9.43 50.8"/>
  <path fill="none" d="M10.51,51.19 L 9.43 50.8"/>
  <path fill="none" d="M16.93,50.8 L 9.43 50.8"/>
  <path fill="none" d="M17.33,44.38 L 16.93 43.3"/>
  <path fill="none" d="M16.54,44.38 L 16.93 43.3"/>
  <path fill="none" d="M16.93,50.8 L 16.93 43.3"/>
  <path fill="none" d="M8.07,57.22 L 8.47 58.3"/>
  <path fill="none" d="M8.86,57.22 L 8.47 58.3"/>
  <path fill="none" d="M8.47,50.8 L 8.47 58.3"/>
  <path fill="none" d="M14.89,51.19 L 15.97 50.8"/>
  <path fill="none" d="M14.89,50.41 L 15.97 50.8"/>
  <path fill="none" d="M8.47,50.8 L 15.97 50.8"/>
  <path fill="none" d="M8.86,44.38 L 8.47 43.3"/>
  <path fill="none" d="M8.07,44.38 L 8.47 43.3"/>
  <path fill="none" d="M8.47,50.8 L 8.47 43.3"/>
  <path fill="none" d="M92.74,74.15 L 93.13 75.24"/>
  <path fill="none" d="M93.53,74.15 L 93.13 75.24"/>
  <path fill="none" d="M93.13,42.33 L 93.13 75.24"/>
  <path fill="none" d="M92.74,48.75 L 93.13 49.84"/>
  <path fill="none" d="M93.53,48.75 L 93.13 49.84"/>
  <path fill="none" d="M93.13,42.33 L 93.13 49.84"/>
  <path fill="none" d="M86.71,41.94 L 85.63 42.33"/>
  <path fill="none" d="M86.71,42.73 L 85.63 42.33"/>
  <path fill="none" d="M93.13,42.33 L 85.63 42.33"/>
  <path fill="none" d="M93.53,35.91 L 93.13 34.83"/>
  <path fill="none" d="M92.74,35.91 L 93.13 34.83"/>
  <path fill="none" d="M93.13,42.33 L 93.13 34.83"/>
  <path fill="none" d="M84.27,48.75 L 84.67 49.84"/>
  <path fill="none" d="M85.06,48.75 L 84.67 49.84"/>
  <path fill="none" d="M84.67,42.33 L 84.67 49.84"/>
  <path fill="none" d="M91.09,42.73 L 92.17 42.33"/>
  <path fill="none" d="M91.09,41.94 L 92.17 42.33"/>
  <path fill="none" d="M84.67,42.33 L 92.17 42.33"/>
  <path fill="none" d="M78.25,41.94 L 77.16 42.33"/>
  <path fill="none" d="M78.25,42.73 L 77.16 42.33"/>
  <path fill="none" d="M84.67,42.33 L 77.16 42.33"/>
  <path fill="none" d="M85.06,35.91 L 84.67 34.83"/>
  <path fill="none" d="M84.27,35.91 L 84.67 34.83"/>
  <path fill="none" d="M84.67,42.33 L 84.67 34.83"/>
  <path fill="none" d="M75.81,48.75 L 76.2 49.84"/>
  <path fill="none" d="M76.59,48.75 L 76.2 49.84"/>
  <path fill="none" d="M76.2,42.33 L 76.2 49.84"/>
  <path fill="none" d="M82.62,42.73 L 83.7 42.33"/>
  <path fill="none" d="M82.62,41.94 L 83.7 42.33"/>
  <path fill="none" d="M76.2,42.33 L 83.7 42.33"/>
  <path fill="none" d="M69.78,41.94 L 68.7 42.33"/>
  <path fill="none" d="M69.78,42.73 L 68.7 42.33"/>
  <path fill="none" d="M76.2,42.33 L 68.7 42.33"/>
  <path fill="none" d="M76.59,35.91 L 76.2 34.83"/>
  <path fill="none" d="M75.81,35.91 L 76.2 34.83"/>
  <path fill="none" d="M76.2,42.33 L 76.2 34.83"/>
  <path fill="none" d="M67.34,48.75 L 67.73 49.84"/>
  <path fill="none" d="M68.13,48.75 L 67.73 49.84"/>
  <path fill="none" d="M67.73,42.33 L 67.73 49.84"/>
  <path fill="none" d="M74.15,42.73 L 75.24 42.33"/>
  <path fill="none" d="M74.15,41.94 L 75.24 42.33"/>
  <path fill="none" d="M67.73,42.33 L 75.24 42.33"/>
  <path fill="none" d="M61.31,41.94 L 60.23 42.33"/>
  <path fill="none" d="M61.31,42.73 L 60.23 42.33"/>
  <path fill="none" d="M67.73,42.33 L 60.23 42.33"/>
  <path fill="none" d="M68.13,35.91 L 67.73 34.83"/>
  <path fill="none" d="M67.34,35.91 L 67.73 34.83"/>
  <path fill="none" d="M67.73,42.33 L 67.73 34.83"/>
  <path fill="none" d="M58.87,48.75 L 59.27 49.84"/>
  <path fill="none" d="M59.66,48.75 L 59.27 49.84"/>
  <path fill="none" d="M59.27,42.33 L 59.27 49.84"/>
  <path fill="none" d="M65.69,42.73 L 66.77 42.33"/>
  <path fill="none" d="M65.69,41.94 L 66.77 42.33"/>
  <path fill="none" d="M59.27,42.33 L 66.77 42.33"/>
  <path fill="none" d="M52.85,41.94 L 51.76 42.33"/>
  <path fill="none" d="M52.85,42.73 L 51.76 42.33"/>
  <path fill="none" d="M59.27,42.33 L 51.76 42.33"/>
  <path fill="none" d="M59.66,35.91 L 59.27 34.83"/>
  <path fill="none" d="M58.87,35.91 L 59.27 34.83"/>
  <path fill="none" d="M59.27,42.33 L 59.27 34.83"/>
  <path fill="none" d="M50.41,48.75 L 50.8 49.84"/>
  <path fill="none" d="M51.19,48.75 L 50.8 49.84"/>
  <path fill="none" d="M50.8,42.33 L 50.8 49.84"/>
  <path fill="none" d="M57.22,42.73 L 58.3 42.33"/>
  <path fill="none" d="M57.22,41.94 L 58.3 42.33"/>
  <path fill="none" d="M50.8,42.33 L 58.3 42.33"/>
  <path fill="none" d="M44.38,41.94 L 43.3 42.33"/>
  <path fill="none" d="M44.38,42.73 L 43.3 42.33"/>
  <path fill="none" d="M50.8,42.33 L 43.3 42.33"/>
  <path fill="none" d="M51.19,35.91 L 50.8 34.83"/>
  <path fill="none" d="M50.41,35.91 L 50.8 34.83"/>
  <path fill="none" d="M50.8,42.33 L 50.8 34.83"/>
  <path fill="none" d="M41.94,48.75 L 42.33 49.84"/>
  <path fill="none" d="M42.73,48.75 L 42.33 49.84"/>
  <path fill="none" d="M42.33,42.33 L 42.33 49.84"/>
  <path fill="none" d="M48.75,42.73 L 49.84 42.33"/>
  <path fill="none" d="M48.75,41.94 L 49.84 42.33"/>
  <path fill="none" d="M42.33,42.33 L 49.84 42.33"/>
  <path fill="none" d="M35.91,41.94 L 34.83 42.33"/>
  <path fill="none" d="M35.91,42.73 L 34.83 42.33"/>
  <path fill="none" d="M42.33,42.33 L 34.83 42.33"/>
  <path fill="none" d="M42.73,35.91 L 42.33 34.83"/>
  <path fill="none" d="M41.94,35.91 L 42.33 34.83"/>
  <path fill="none" d="M42.33,42.33 L 42.33 34.83"/>
  <path fill="none" d="M33.47,48.75 L 33.87 49.84"/>
  <path fill="none" d="M34.26,48.75 L 33.87 49.84"/>
  <path fill="none" d="M33.87,42.33 L 33.87 49.84"/>
  <path fill="none" d="M40.29,42.73 L 41.37 42.33"/>
  <path fill="none" d="M40.29,41.94 L 41.37 42.33"/>
  <path fill="none" d="M33.87,42.33 L 41.37 42.33"/>
  <path fill="none" d="M27.45,41.94 L 26.36 42.33"/>
  <path fill="none" d="M27.45,42.73 L 26.36 42.33"/>
  <path fill="none" d="M33.87,42.33 L 26.36 42.33"/>
  <path fill="none" d="M34.26,35.91 L 33.87 34.83"/>
  <path fill="none" d="M33.47,35.91 L 33.87 34.83"/>
  <path fill="none" d="M33.87,42.33 L 33.87 34.83"/>
  <path fill="none" d="M25.01,48.75 L 25.4 49.84"/>
  <path fill="none" d="M25.79,48.75 L 25.4 49.84"/>
  <path fill="none" d="M25.4,42.33 L 25.4 49.84"/>
  <path fill="none" d="M31.82,42.73 L 32.9 42.33"/>
  <path fill="none" d="M31.82,41.94 L 32.9 42.33"/>
  <path fill="none" d="M25.4,42.33 L 32.9 42.33"/>
  <path fill="none" d="M18.98,41.94 L 17.9 42.33"/>
  <path fill="none" d="M18.98,42.73 L 17.9 42.33"/>
  <path fill="none" d="M25.4,42.33 L 17.9 42.33"/>
  <path fill="none" d="M25.79,35.91 L 25.4 34.83"/>
  <path fill="none" d="M25.01,35.91 L 25.4 34.83"/>
  <path fill="none" d="M25.4,42.33 L 25.4 34.83"/>
  <path fill="none" d="M16.54,48.75 L 16.93 49.84"/>
  <path fill="none" d="M17.33,48.75 L 16.93 49.84"/>
  <path fill="none" d="M16.93,42.33 L 16.93 49.84"/>
  <path fill="none" d="M23.35,42.73 L 24.44 42.33"/>
  <path fill="none" d="M23.35,41.94 L 24.44 42.33"/>
  <path fill="none" d="M16.93,42.33 L 24.44 42.33"/>
  <path fill="none" d="M10.51,41.94 L 9.43 42.33"/>
  <path fill="none" d="M10.51,42.73 L 9.43 42.33"/>
  <path fill="none" d="M16.93,42.33 L 9.43 42.33"/>
  <path fill="none" d="M17.33,35.91 L 16.93 34.83"/>
  <path fill="none" d="M16.54,35.91 L 16.93 34.83"/>
  <path fill="none" d="M16.93,42.33 L 16.93 34.83"/>
  <path fill="none" d="M8.07,48.75 L 8.47 49.84"/>
  <path fill="none" d="M8.86,48.75 L 8.47 49.84"/>
  <path fill="none" d="M8.47,42.33 L 8.47 49.84"/>
  <path fill="none" d="M14.89,42.73 L 15.97 42.33"/>
  <path fill="none" d="M14.89,41.94 L 15.97 42.33"/>
  <path fill="none" d="M8.47,42.33 L 15.97 42.33"/>
  <path fill="none" d="M8.86,35.91 L 8.47 34.83"/>
  <path fill="none" d="M8.07,35.91 L 8.47 34.83"/>
  <path fill="none" d="M8.47,42.33 L 8.47 34.83"/>
  <path fill="none" d="M92.74,40.29 L 93.13 41.37"/>
  <path fill="none" d="M93.53,40.29 L 93.13 41.37"/>
  <path fill="none" d="M93.13,33.87 L 93.13 41.37"/>
  <path fill="none" d="M86.71,33.47 L 85.63 33.87"/>
  <path fill="none" d="M86.71,34.26 L 85.63 33.87"/>
  <path fill="none" d="M93.13,33.87 L 85.63 33.87"/>
  <path fill="none" d="M93.53,27.45 L 93.13 26.36"/>
  <path fill="none" d="M92.74,27.45 L 93.13 26.36"/>
  <path fill="none" d="M93.13,33.87 L 93.13 26.36"/>
  <path fill="none" d="M84.27,40.29 L 84.67 41.37"/>
  <path fill="none" d="M85.06,40.29 L 84.67 41.37"/>
  <path fill="none" d="M84.67,33.87 L 84.67 41.37"/>
  <path fill="none" d="M91.09,34.26 L 92.17 33.87"/>
  <path fill="none" d="M91.09,33.47 L 92.17 33.87"/>
  <path fill="none" d="M84.67,33.87 L 92.17 33.87"/>
  <path fill="none" d="M78.25,33.47 L 77.16 33.87"/>
  <path fill="none" d="M78.25,34.26 L 77.16 33.87"/>
  <path fill="none" d="M84.67,33.87 L 77.16 33.87"/>
  <path fill="none" d="M85.06,27.45 L 84.67 26.36"/>
  <path fill="none" d="M84.27,27.45 L 84.67 26.36"/>
  <path fill="none" d="M84.67,33.87 L 84.67 26.36"/>
  <path fill="none" d="M75.81,40.29 L 76.2 41.37"/>
  <path fill="none" d="M76.59,40.29 L 76.2 41.37"/>
  <path fill="none" d="M76.2,33.87 L 76.2 41.37"/>
  <path fill="none" d="M82.62,34.26 L 83.7 33.87"/>
  <path fill="none" d="M82.62,33.47 L 83.7 33.87"/>
  <path fill="none" d="M76.2,33.87 L 83.7 33.87"/>
  <path fill="none" d="M69.78,33.47 L 68.7 33.87"/>
  <path fill="none" d="M69.78,34.26 L 68.7 33.87"/>
  <path fill="none" d="M76.2,33.87 L 68.7 33.87"/>
  <path fill="none" d="M76.59,27.45 L 76.2 26.36"/>
  <path fill="none" d="M75.81,27.45 L 76.2 26.36"/>
  <path fill="none" d="M76.2,33.87 L 76.2 26.36"/>
  <path fill="none" d="M67.34,40.29 L 67.73 41.37"/>
  <path fill="none" d="M68.13,40.29 L 67.73 41.37"/>
  <path fill="none" d="M67.73,33.87 L 67.73 41.37"/>
  <path fill="none" d="M74.15,34.26 L 75.24 33.87"/>
  <path fill="none" d="M74.15,33.47 L 75.24 33.87"/>
  <path fill="none" d="M67.73,33.87 L 75.24 33.87"/>
  <path fill="none" d="M61.31,33.47 L 60.23 33.87"/>
  <path fill="none" d="M61.31,34.26 L 60.23 33.87"/>
  <path fill="none" d="M67.73,33.87 L 60.23 33.87"/>
  <path fill="none" d="M68.13,27.45 L 67.73 26.36"/>
  <path fill="none" d="M67.34,27.45 L 67.73 26.36"/>
  <path fill="none" d="M67.73,33.87 L 67.73 26.36"/>
  <path fill="none" d="M58.87,40.29 L 59.27 41.37"/>
  <path fill="none" d="M59.66,40.29 L 59.27 41.37"/>
  <path fill="none" d="M59.27,33.87 L 59.27 41.37"/>
  <path fill="none" d="M65.69,34.26 L 66.77 33.87"/>
  <path fill="none" d="M65.69,33.47 L 66.77 33.87"/>
  <path fill="none" d="M59.27,33.87 L 66.77 33.87"/>
  <path fill="none" d="M52.85,33.47 L 51.76 33.87"/>
  <path fill="none" d="M52.85,34.26 L 51.76 33.87"/>
  <path fill="none" d="M59.27,33.87 L 51.76 33.87"/>
  <path fill="none" d="M59.66,27.45 L 59.27 26.36"/>
  <path fill="none" d="M58.87,27.45 L 59.27 26.36"/>
  <path fill="none" d="M59.27,33.87 L 59.27 26.36"/>
  <path fill="none" d="M50.41,40.29 L 50.8 41.37"/>
  <path fill="none" d="M51.19,40.29 L 50.8 41.37"/>
  <path fill="none" d="M50.8,33.87 L 50.8 41.37"/>
  <path fill="none" d="M57.22,34.26 L 58.3 33.87"/>
  <path fill="none" d="M57.22,33.47 L 58.3 33.87"/>
  <path fill="none" d="M50.8,33.87 L 58.3 33.87"/>
  <path fill="none" d="M44.38,33.47 L 43.3 33.87"/>
  <path fill="none" d="M44.38,34.26 L 43.3 33.87"/>
  <path fill="none" d="M50.8,33.87 L 43.3 33.87"/>
  <path fill="none" d="M51.19,27.45 L 50.8 26.36"/>
  <path fill="none" d="M50.41,27.45 L 50.8 26.36"/>
  <path fill="none" d="M50.8,33.87 L 50.8 26.36"/>
  <path fill="none" d="M41.94,40.29 L 42.33 41.37"/>
  <path fill="none" d="M42.73,40.29 L 42.33 41.37"/>
  <path fill="none" d="M42.33,33.87 L 42.33 41.37"/>
  <path fill="none" d="M48.75,34.26 L 49.84 33.87"/>
  <path fill="none" d="M48.75,33.47 L 49.84 33.87"/>
  <path fill="none" d="M42.33,33.87 L 49.84 33.87"/>
  <path fill="none" d="M35.91,33.47 L 34.83 33.87"/>
  <path fill="none" d="M35.91,34.26 L 34.83 33.87"/>
  <path fill="none" d="M42.33,33.87 L 34.83 33.87"/>
  <path fill="none" d="M42.73,27.45 L 42.33 26.36"/>
  <path fill="none" d="M41.94,27.45 L 42.33 26.36"/>
  <path fill="none" d="M42.33,33.87 L 42.33 26.36"/>
  <path fill="none" d="M33.47,40.29 L 33.87 41.37"/>
  <path fill="none" d="M34.26,40.29 L 33.87 41.37"/>
  <path fill="none" d="M33.87,33.87 L 33.87 41.37"/>
  <path fill="none" d="M40.29,34.26 L 41.37 33.87"/>
  <path fill="none" d="M40.29,33.47 L 41.37 33.87"/>
  <path fill="none" d="M33.87,33.87 L 41.37 33.87"/>
  <path fill="none" d="M27.45,33.47 L 26.36 33.87"/>
  <path fill="none" d="M27.45,34.26 L 26.36 33.87"/>
  <path fill="none" d="M33.87,33.87 L 26.36 33.87"/>
  <path fill="none" d="M34.26,27.45 L 33.87 26.36"/>
  <path fill="none" d="M33.47,27.45 L 33.87 26.36"/>
  <path fill="none" d="M33.87,33.87 L 33.87 26.36"/>
  <path fill="none" d="M32.99,65.84 L 33.63 66.8"/>
  <path fill="none" d="M33.75,65.65 L 33.63 66.8"/>
  <path fill="none" d="M25.4,33.87 L 33.63 66.8"/>
  <path fill="none" d="M25.01,40.29 L 25.4 41.37"/>
  <path fill="none" d="M25.79,40.29 L 25.4 41.37"/>
  <path fill="none" d="M25.4,33.87 L 25.4 41.37"/>
  <path fill="none" d="M31.82,34.26 L 32.9 33.87"/>
  <path fill="none" d="M31.82,33.47 L 32.9 33.87"/>
  <path fill="none" d="M25.4,33.87 L 32.9 33.87"/>
  <path fill="none" d="M18.98,33.47 L 17.9 33.87"/>
  <path fill="none" d="M18.98,34.26 L 17.9 33.87"/>
  <path fill="none" d="M25.4,33.87 L 17.9 33.87"/>
  <path fill="none" d="M25.79,27.45 L 25.4 26.36"/>
  <path fill="none" d="M25.01,27.45 L 25.4 26.36"/>
  <path fill="none" d="M25.4,33.87 L 25.4 26.36"/>
  <path fill="none" d="M16.54,40.29 L 16.93 41.37"/>
  <path fill="none" d="M17.33,40.29 L 16.93 41.37"/>
  <path fill="none" d="M16.93,33.87 L 16.93 41.37"/>
  <path fill="none" d="M23.35,34.26 L 24.44 33.87"/>
  <path fill="none" d="M23.35,33.47 L 24.44 33.87"/>
  <path fill="none" d="M16.93,33.87 L 24.44 33.87"/>
  <path fill="none" d="M10.51,33.47 L 9.43 33.87"/>
  <path fill="none" d="M10.51,34.26 L 9.43 33.87"/>
  <path fill="none" d="M16.93,33.87 L 9.43 33.87"/>
  <path fill="none" d="M17.33,27.45 L 16.93 26.36"/>
  <path fill="none" d="M16.54,27.45 L 16.93 26.36"/>
  <path fill="none" d="M16.93,33.87 L 16.93 26.36"/>
  <path fill="none" d="M8.07,40.29 L 8.47 41.37"/>
  <path fill="none" d="M8.86,40.29 L 8.47 41.37"/>
  <path fill="none" d="M8.47,33.87 L 8.47 41.37"/>
  <path fill="none" d="M14.89,34.26 L 15.97 33.87"/>
  <path fill="none" d="M14.89,33.47 L 15.97 33.87"/>
  <path fill="none" d="M8.47,33.87 L 15.97 33.87"/>
  <path fill="none" d="M8.86,27.45 L 8.47 26.36"/>
  <path fill="none" d="M8.07,27.45 L 8.47 26.36"/>
  <path fill="none" d="M8.47,33.87 L 8.47 26.36"/>
  <path fill="none" d="M92.74,31.82 L 93.13 32.9"/>
  <path fill="none" d="M93.53,31.82 L 93.13 32.9"/>
  <path fill="none" d="M93.13,25.4 L 93.13 32.9"/>
  <path fill="none" d="M86.71,25.01 L 85.63 25.4"/>
  <path fill="none" d="M86.71,25.79 L 85.63 25.4"/>
  <path fill="none" d="M93.13,25.4 L 85.63 25.4"/>
  <path fill="none" d="M93.53,18.98 L 93.13 17.9"/>
  <path fill="none" d="M92.74,18.98 L 93.13 17.9"/>
  <path fill="none" d="M93.13,25.4 L 93.13 17.9"/>
  <path fill="none" d="M84.27,31.82 L 84.67 32.9"/>
  <path fill="none" d="M85.06,31.82 L 84.67 32.9"/>
  <path fill="none" d="M84.67,25.4 L 84.67 32.9"/>
  <path fill="none" d="M91.09,25.79 L 92.17 25.4"/>
  <path fill="none" d="M91.09,25.01 L 92.17 25.4"/>
  <path fill="none" d="M84.67,25.4 L 92.17 25.4"/>
  <path fill="none" d="M78.25,25.01 L 77.16 25.4"/>
  <path fill="none" d="M78.25,25.79 L 77.16 25.4"/>
  <path fill="none" d="M84.67,25.4 L 77.16 25.4"/>
  <path fill="none" d="M85.06,18.98 L 84.67 17.9"/>
  <path fill="none" d="M84.27,18.98 L 84.67 17.9"/>
  <path fill="none" d="M84.67,25.4 L 84.67 17.9"/>
  <path fill="none" d="M75.81,31.82 L 76.2 32.9"/>
  <path fill="none" d="M76.59,31.82 L 76.2 32.9"/>
  <path fill="none" d="M76.2,25.4 L 76.2 32.9"/>
  <path fill="none" d="M82.62,25.79 L 83.7 25.4"/>
  <path fill="none" d="M82.62,25.01 L 83.7 25.4"/>
  <path fill="none" d="M76.2,25.4 L 83.7 25.4"/>
  <path fill="none" d="M69.78,25.01 L 68.7 25.4"/>
  <path fill="none" d="M69.78,25.79 L 68.7 25.4"/>
  <path fill="none" d="M76.2,25.4 L 68.7 25.4"/>
  <path fill="none" d="M76.59,18.98 L 76.2 17.9"/>
  <path fill="none" d="M75.81,18.98 L 76.2 17.9"/>
  <path fill="none" d="M76.2,25.4 L 76.2 17.9"/>
  <path fill="none" d="M67.34,31.82 L 67.73 32.9"/>
  <path fill="none" d="M68.13,31.82 L 67.73 32.9"/>
  <path fill="none" d="M67.73,25.4 L 67.73 32.9"/>
  <path fill="none" d="M74.15,25.79 L 75.24 25.4"/>
  <path fill="none" d="M74.15,25.01 L 75.24 25.4"/>
  <path fill="none" d="M67.73,25.4 L 75.24 25.4"/>
  <path fill="none" d="M61.31,25.01 L 60.23 25.4"/>
  <path fill="none" d="M61.31,25.79 L 60.23 25.4"/>
  <path fill="none" d="M67.73,25.4 L 60.23 25.4"/>
  <path fill="none" d="M68.13,18.98 L 67.73 17.9"/>
  <path fill="none" d="M67.34,18.98 L 67.73 17.9"/>
  <path fill="none" d="M67.73,25.4 L 67.73 17.9"/>
  <path fill="none" d="M58.87,31.82 L 59.27 32.9"/>
  <path fill="none" d="M59.66,31.82 L 59.27 32.9"/>
  <path fill="none" d="M59.27,25.4 L 59.27 32.9"/>
  <path fill="none" d="M65.69,25.79 L 66.77 25.4"/>
  <path fill="none" d="M65.69,25.01 L 66.77 25.4"/>
  <path fill="none" d="M59.27,25.4 L 66.77 25.4"/>
  <path fill="none" d="M52.85,25.01 L 51.76 25.4"/>
  <path fill="none" d="M52.85,25.79 L 51.76 25.4"/>
  <path fill="none" d="M59.27,25.4 L 51.76 25.4"/>
  <path fill="none" d="M59.66,18.98 L 59.27 17.9"/>
  <path fill="none" d="M58.87,18.98 L 59.27 17.9"/>
  <path fill="none" d="M59.27,25.4 L 59.27 17.9"/>
  <path fill="none" d="M50.41,31.82 L 50.8 32.9"/>
  <path fill="none" d="M51.19,31.82 L 50.8 32.9"/>
  <path fill="none" d="M50.8,25.4 L 50.8 32.9"/>
  <path fill="none" d="M57.22,25.79 L 58.3 25.4"/>
  <path fill="none" d="M57.22,25.01 L 58.3 25.4"/>
  <path fill="none" d="M50.8,25.4 L 58.3 25.4"/>
  <path fill="none" d="M44.38,25.01 L 43.3 25.4"/>
  <path fill="none" d="M44.38,25.79 L 43.3 25.4"/>
  <path fill="none" d="M50.8,25.4 L 43.3 25.4"/>
  <path fill="none" d="M51.19,18.98 L 50.8 17.9"/>
  <path fill="none" d="M50.41,18.98 L 50.8 17.9"/>
  <path fill="none" d="M50.8,25.4 L 50.8 17.9"/>
  <path fill="none" d="M41.94,31.82 L 42.33 32.9"/>
  <path fill="none" d="M42.73,31.82 L 42.33 32.9"/>
  <path fill="none" d="M42.33,25.4 L 42.33 32.9"/>
  <path fill="none" d="M48.75,25.79 L 49.84 25.4"/>
  <path fill="none" d="M48.75,25.01 L 49.84 25.4"/>
  <path fill="none" d="M42.33,25.4 L 49.84 25.4"/>
  <path fill="none" d="M35.91,25.01 L 34.83 25.4"/>
  <path fill="none" d="M35.91,25.79 L 34.83 25.4"/>
  <path fill="none" d="M42.33,25.4 L 34.83 25.4"/>
  <path fill="none" d="M42.73,18.98 L 42.33 17.9"/>
  <path fill="none" d="M41.94,18.98 L 42.33 17.9"/>
  <path fill="none" d="M42.33,25.4 L 42.33 17.9"/>
  <path fill="none" d="M33.47,31.82 L 33.87 32.9"/>
  <path fill="none" d="M34.26,31.82 L 33.87 32.9"/>
  <path fill="none" d="M33.87,25.4 L 33.87 32.9"/>
  <path fill="none" d="M40.29,25.79 L 41.37 25.4"/>
  <path fill="none" d="M40.29,25.01 L 41.37 25.4"/>
  <path fill="none" d="M33.87,25.4 L 41.37 25.4"/>
  <path fill="none" d="M27.45,25.01 L 26.36 25.4"/>
  <path fill="none" d="M27.45,25.79 L 26.36 25.4"/>
  <path fill="none" d="M33.87,25.4 L 26.36 25.4"/>
  <path fill="none" d="M34.26,18.98 L 33.87 17.9"/>
  <path fill="none" d="M33.47,18.98 L 33.87 17.9"/>
  <path fill="none" d="M33.87,25.4 L 33.87 17.9"/>
  <path fill="none" d="M25.01,31.82 L 25.4 32.9"/>
  <path fill="none" d="M25.79,31.82 L 25.4 32.9"/>
  <path fill="none" d="M25.4,25.4 L 25.4 32.9"/>
  <path fill="none" d="M31.82,25.79 L 32.9 25.4"/>
  <path fill="none" d="M31.82,25.01 L 32.9 25.4"/>
  <path fill="none" d="M25.4,25.4 L 32.9 25.4"/>
  <path fill="none" d="M18.98,25.01 L 17.9 25.4"/>
  <path fill="none" d="M18.98,25.79 L 17.9 25.4"/>
  <path fill="none" d="M25.4,25.4 L 17.9 25.4"/>
  <path fill="none" d="M25.79,18.98 L 25.4 17.9"/>
  <path fill="none" d="M25.01,18.98 L 25.4 17.9"/>
  <path fill="none" d="M25.4,25.4 L 25.4 17.9"/>
  <path fill="none" d="M41.17,10.19 L 41.65 9.15"/>
  <path fill="none" d="M40.61,9.63 L 41.65 9.15"/>
  <path fill="none" d="M25.4,25.4 L 41.65 9.15"/>
  <path fill="none" d="M16.54,31.82 L 16.93 32.9"/>
  <path fill="none" d="M17.33,31.82 L 16.93 32.9"/>
  <path fill="none" d="M16.93,25.4 L 16.93 32.9"/>
  <path fill="none" d="M23.35,25.79 L 24.44 25.4"/>
  <path fill="none" d="M23.35,25.01 L 24.44 25.4"/>
  <path fill="none" d="M16.93,25.4 L 24.44 25.4"/>
  <path fill="none" d="M10.51,25.01 L 9.43 25.4"/>
  <path fill="none" d="M10.51,25.79 L 9.43 25.4"/>
  <path fill="none" d="M16.93,25.4 L 9.43 25.4"/>
  <path fill="none" d="M17.33,18.98 L 16.93 17.9"/>
  <path fill="none" d="M16.54,18.98 L 16.93 17.9"/>
  <path fill="none" d="M16.93,25.4 L 16.93 17.9"/>
  <path fill="none" d="M8.07,31.82 L 8.47 32.9"/>
  <path fill="none" d="M8.86,31.82 L 8.47 32.9"/>
  <path fill="none" d="M8.47,25.4 L 8.47 32.9"/>
  <path fill="none" d="M14.89,25.79 L 15.97 25.4"/>
  <path fill="none" d="M14.89,25.01 L 15.97 25.4"/>
  <path fill="none" d="M8.47,25.4 L 15.97 25.4"/>
  <path fill="none" d="M8.86,18.98 L 8.47 17.9"/>
  <path fill="none" d="M8.07,18.98 L 8.47 17.9"/>
  <path fill="none" d="M8.47,25.4 L 8.47 17.9"/>
  <path fill="none" d="M92.74,23.35 L 93.13 24.44"/>
  <path fill="none" d="M93.53,23.35 L 93.13 24.44"/>
  <path fill="none" d="M93.13,16.93 L 93.13 24.44"/>
  <path fill="none" d="M86.71,16.54 L 85.63 16.93"/>
  <path fill="none" d="M86.71,17.33 L 85.63 16.93"/>
  <path fill="none" d="M93.13,16.93 L 85.63 16.93"/>
  <path fill="none" d="M93.53,10.51 L 93.13 9.43"/>
  <path fill="none" d="M92.74,10.51 L 93.13 9.43"/>
  <path fill="none" d="M93.13,16.93 L 93.13 9.43"/>
  <path fill="none" d="M84.27,23.35 L 84.67 24.44"/>
  <path fill="none" d="M85.06,23.35 L 84.67 24.44"/>
  <path fill="none" d="M84.67,16.93 L 84.67 24.44"/>
  <path fill="none" d="M91.09,17.33 L 92.17 16.93"/>
  <path fill="none" d="M91.09,16.54 L 92.17 16.93"/>
  <path fill="none" d="M84.67,16.93 L 92.17 16.93"/>
  <path fill="none" d="M78.25,16.54 L 77.16 16.93"/>
  <path fill="none" d="M78.25,17.33 L 77.16 16.93"/>
  <path fill="none" d="M84.67,16.93 L 77.16 16.93"/>
  <path fill="none" d="M85.06,10.51 L 84.67 9.43"/>
  <path fill="none" d="M84.27,10.51 L 84.67 9.43"/>
  <path fill="none" d="M84.67,16.93 L 84.67 9.43"/>
  <path fill="none" d="M75.81,23.35 L 76.2 24.44"/>
  <path fill="none" d="M76.59,23.35 L 76.2 24.44"/>
  <path fill="none" d="M76.2,16.93 L 76.2 24.44"/>
  <path fill="none" d="M82.62,17.33 L 83.7 16.93"/>
  <path fill="none" d="M82.62,16.54 L 83.7 16.93"/>
  <path fill="none" d="M76.2,16.93 L 83.7 16.93"/>
  <path fill="none" d="M69.78,16.54 L 68.7 16.93"/>
  <path fill="none" d="M69.78,17.33 L 68.7 16.93"/>
  <path fill="none" d="M76.2,16.93 L 68.7 16.93"/>
  <path fill="none" d="M76.59,10.51 L 76.2 9.43"/>
  <path fill="none" d="M75.81,10.51 L 76.2 9.43"/>
  <path fill="none" d="M76.2,16.93 L 76.2 9.43"/>
  <path fill="none" d="M67.34,23.35 L 67.73 24.44"/>
  <path fill="none" d="M68.13,23.35 L 67.73 24.44"/>
  <path fill="none" d="M67.73,16.93 L 67.73 24.44"/>
  <path fill="none" d="M74.15,17.33 L 75.24 16.93"/>
  <path fill="none" d="M74.15,16.54 L 75.24 16.93"/>
  <path fill="none" d="M67.73,16.93 L 75.24 16.93"/>
  <path fill="none" d="M61.31,16.54 L 60.23 16.93"/>
  <path fill="none" d="M61.31,17.33 L 60.23 16.93"/>
  <path fill="none" d="M67.73,16.93 L 60.23 16.93"/>
  <path fill="none" d="M68.13,10.51 L 67.73 9.43"/>
  <path fill="none" d="M67.34,10.51 L 67.73 9.43"/>
  <path fill="none" d="M67.73,16.93 L 67.73 9.43"/>
  <path fill="none" d="M58.87,23.35 L 59.27 24.44"/>
  <path fill="none" d="M59.66,23.35 L 59.27 24.44"/>
  <path fill="none" d="M59.27,16.93 L 59.27 24.44"/>
  <path fill="none" d="M65.69,17.33 L 66.77 16.93"/>
  <path fill="none" d="M65.69,16.54 L 66.77 16.93"/>
  <path fill="none" d="M59.27,16.93 L 66.77 16.93"/>
  <path fill="none" d="M52.85,16.54 L 51.76 16.93"/>
  <path fill="none" d="M52.85,17.33 L 51.76 16.93"/>
  <path fill="none" d="M59.27,16.93 L 51.76 16.93"/>
  <path fill="none" d="M59.66,10.51 L 59.27 9.43"/>
  <path fill="none" d="M58.87,10.51 L 59.27 9.43"/>
  <path fill="none" d="M59.27,16.93 L 59.27 9.43"/>
  <path fill="none" d="M50.41,23.35 L 50.8 24.44"/>
  <path fill="none" d="M51.19,23.35 L 50.8 24.44"/>
  <path fill="none" d="M50.8,16.93 L 50.8 24.44"/>
  <path fill="none" d="M57.22,17.33 L 58.3 16.93"/>
  <path fill="none" d="M57.22,16.54 L 58.3 16.93"/>
  <path fill="none" d="M50.8,16.93 L 58.3 16.93"/>
  <path fill="none" d="M44.38,16.54 L 43.3 16.93"/>
  <path fill="none" d="M44.38,17.33 L 43.3 16.93"/>
  <path fill="none" d="M50.8,16.93 L 43.3 16.93"/>
  <path fill="none" d="M51.19,10.51 L 50.8 9.43"/>
  <path fill="none" d="M50.41,10.51 L 50.8 9.43"/>
  <path fill="none" d="M50.8,16.93 L 50.8 9.43"/>
  <path fill="none" d="M41.94,23.35 L 42.33 24.44"/>
  <path fill="none" d="M42.73,23.35 L 42.33 24.44"/>
  <path fill="none" d="M42.33,16.93 L 42.33 24.44"/>
  <path fill="none" d="M48.75,17.33 L 49.84 16.93"/>
  <path fill="none" d="M48.75,16.54 L 49.84 16.93"/>
  <path fill="none" d="M42.33,16.93 L 49.84 16.93"/>
  <path fill="none" d="M35.91,16.54 L 34.83 16.93"/>
  <path fill="none" d="M35.91,17.33 L 34.83 16.93"/>
  <path fill="none" d="M42.33,16.93 L 34.83 16.93"/>
  <path fill="none" d="M42.73,10.51 L 42.33 9.43"/>
  <path fill="none" d="M41.94,10.51 L 42.33 9.43"/>
  <path fill="none" d="M42.33,16.93 L 42.33 9.43"/>
  <path fill="none" d="M33.47,23.35 L 33.87 24.44"/>
  <path fill="none" d="M34.26,23.35 L 33.87 24.44"/>
  <path fill="none" d="M33.87,16.93 L 33.87 24.44"/>
  <path fill="none" d="M40.29,17.33 L 41.37 16.93"/>
  <path fill="none" d="M40.29,16.54 L 41.37 16.93"/>
  <path fill="none" d="M33.87,16.93 L 41.37 16.93"/>
  <path fill="none" d="M27.45,16.54 L 26.36 16.93"/>
  <path fill="none" d="M27.45,17.33 L 26.36 16.93"/>
  <path fill="none" d="M33.87,16.93 L 26.36 16.93"/>
  <path fill="none" d="M34.26,10.51 L 33.87 9.43"/>
  <path fill="none" d="M33.47,10.51 L 33.87 9.43"/>
  <path fill="none" d="M33.87,16.93 L 33.87 9.43"/>
  <path fill="none" d="M25.01,23.35 L 25.4 24.44"/>
  <path fill="none" d="M25.79,23.35 L 25.4 24.44"/>
  <path fill="none" d="M25.4,16.93 L 25.4 24.44"/>
  <path fill="none" d="M31.82,17.33 L 32.9 16.93"/>
  <path fill="none" d="M31.82,16.54 L 32.9 16.93"/>
  <path fill="none" d="M25.4,16.93 L 32.9 16.93"/>
  <path fill="none" d="M18.98,16.54 L 17.9 16.93"/>
  <path fill="none" d="M18.98,17.33 L 17.9 16.93"/>
  <path fill="none" d="M25.4,16.93 L 17.9 16.93"/>
  <path fill="none" d="M25.79,10.51 L 25.4 9.43"/>
  <path fill="none" d="M25.01,10.51 L 25.4 9.43"/>
  <path fill="none" d="M25.4,16.93 L 25.4 9.43"/>
  <path fill="none" d="M16.54,23.35 L 16.93 24.44"/>
  <path fill="none" d="M17.33,23.35 L 16.93 24.44"/>
  <path fill="none" d="M16.93,16.93 L 16.93 24.44"/>
  <path fill="none" d="M23.35,17.33 L 24.44 16.93"/>
  <path fill="none" d="M23.35,16.54 L 24.44 16.93"/>
  <path fill="none" d="M16.93,16.93 L 24.44 16.93"/>
  <path fill="none" d="M10.51,16.54 L 9.43 16.93"/>
  <path fill="none" d="M10.51,17.33 L 9.43 16.93"/>
  <path fill="none" d="M16.93,16.93 L 9.43 16.93"/>
  <path fill="none" d="M17.33,10.51 L 16.93 9.43"/>
  <path fill="none" d="M16.54,10.51 L 16.93 9.43"/>
  <path fill="none" d="M16.93,16.93 L 16.93 9.43"/>
  <path fill="none" d="M8.07,23.35 L 8.47 24.44"/>
  <path fill="none" d="M8.86,23.35 L 8.47 24.44"/>
  <path fill="none" d="M8.47,16.93 L 8.47 24.44"/>
  <path fill="none" d="M14.89,17.33 L 15.97 16.93"/>
  <path fill="none" d="M14.89,16.54 L 15.97 16.93"/>
  <path fill="none" d="M8.47,16.93 L 15.97 16.93"/>
  <path fill="none" d="M8.86,10.51 L 8.47 9.43"/>
  <path fill="none" d="M8.07,10.51 L 8.47 9.43"/>
  <path fill="none" d="M8.47,16.93 L 8.47 9.43"/>
  <path fill="none" d="M92.74,14.89 L 93.13 15.97"/>
  <path fill="none" d="M93.53,14.89 L 93.13 15.97"/>
  <path fill="none" d="M93.13,8.47 L 93.13 15.97"/>
  <path fill="none" d="M86.71,8.07 L 85.63 8.47"/>
  <path fill="none" d="M86.71,8.86 L 85.63 8.47"/>
  <path fill="none" d="M93.13,8.47 L 85.63 8.47"/>
  <path fill="none" d="M84.27,14.89 L 84.67 15.97"/>
  <path fill="none" d="M85.06,14.89 L 84.67 15.97"/>
  <path fill="none" d="M84.67,8.47 L 84.67 15.97"/>
  <path fill="none" d="M91.09,8.86 L 92.17 8.47"/>
  <path fill="none" d="M91.09,8.07 L 92.17 8.47"/>
  <path fill="none" d="M84.67,8.47 L 92.17 8.47"/>
  <path fill="none" d="M78.25,8.07 L 77.16 8.47"/>
  <path fill="none" d="M78.25,8.86 L 77.16 8.47"/>
  <path fill="none" d="M84.67,8.47 L 77.16 8.47"/>
  <path fill="none" d="M75.81,14.89 L 76.2 15.97"/>
  <path fill="none" d="M76.59,14.89 L 76.2 15.97"/>
  <path fill="none" d="M76.2,8.47 L 76.2 15.97"/>
  <path fill="none" d="M82.62,8.86 L 83.7 8.47"/>
  <path fill="none" d="M82.62,8.07 L 83.7 8.47"/>
  <path fill="none" d="M76.2,8.47 L 83.7 8.47"/>
  <path fill="none" d="M69.78,8.07 L 68.7 8.47"/>
  <path fill="none" d="M69.78,8.86 L 68.7 8.47"/>
  <path fill="none" d="M76.2,8.47 L 68.7 8.47"/>
  <path fill="none" d="M67.34,14.89 L 67.73 15.97"/>
  <path fill="none" d="M68.13,14.89 L 67.73 15.97"/>
  <path fill="none" d="M67.73,8.47 L 67.73 15.97"/>
  <path fill="none" d="M74.15,8.86 L 75.24 8.47"/>
  <path fill="none" d="M74.15,8.07 L 75.24 8.47"/>
  <path fill="none" d="M67.73,8.47 L 75.24 8.47"/>
  <path fill="none" d="M61.31,8.07 L 60.23 8.47"/>
  <path fill="none" d="M61.31,8.86 L 60.23 8.47"/>
  <path fill="none" d="M67.73,8.47 L 60.23 8.47"/>
  <path fill="none" d="M58.87,14.89 L 59.27 15.97"/>
  <path fill="none" d="M59.66,14.89 L 59.27 15.97"/>
  <path fill="none" d="M59.27,8.47 L 59.27 15.97"/>
  <path fill="none" d="M65.69,8.86 L 66.77 8.47"/>
  <path fill="none" d="M65.69,8.07 L 66.77 8.47"/>
  <path fill="none" d="M59.27,8.47 L 66.77 8.47"/>
  <path fill="none" d="M52.85,8.07 L 51.76 8.47"/>
  <path fill="none" d="M52.85,8.86 L 51.76 8.47"/>
  <path fill="none" d="M59.27,8.47 L 51.76 8.47"/>
  <path fill="none" d="M50.41,14.89 L 50.8 15.97"/>
  <path fill="none" d="M51.19,14.89 L 50.8 15.97"/>
  <path fill="none" d="M50.8,8.47 L 50.8 15.97"/>
  <path fill="none" d="M57.22,8.86 L 58.3 8.47"/>
  <path fill="none" d="M57.22,8.07 L 58.3 8.47"/>
  <path fill="none" d="M50.8,8.47 L 58.3 8.47"/>
  <path fill="none" d="M44.38,8.07 L 43.3 8.47"/>
  <path fill="none" d="M44.38,8.86 L 43.3 8.47"/>
  <path fill="none" d="M50.8,8.47 L 43.3 8.47"/>
  <path fill="none" d="M26.57,23.67 L 26.08 24.72"/>
  <path fill="none" d="M27.13,24.23 L 26.08 24.72"/>
  <path fill="none" d="M42.33,8.47 L 26.08 24.72"/>
  <path fill="none" d="M41.94,14.89 L 42.33 15.97"/>
  <path fill="none" d="M42.73,14.89 L 42.33 15.97"/>
  <path fill="none" d="M42.33,8.47 L 42.33 15.97"/>
  <path fill="none" d="M48.75,8.86 L 49.84 8.47"/>
  <path fill="none" d="M48.75,8.07 L 49.84 8.47"/>
  <path fill="none" d="M42.33,8.47 L 49.84 8.47"/>
  <path fill="none" d="M35.91,8.07 L 34.83 8.47"/>
  <path fill="none" d="M35.91,8.86 L 34.83 8.47"/>
  <path fill="none" d="M42.33,8.47 L 34.83 8.47"/>
  <path fill="none" d="M33.47,14.89 L 33.87 15.97"/>
  <path fill="none" d="M34.26,14.89 L 33.87 15.97"/>
  <path fill="none" d="M33.87,8.47 L 33.87 15.97"/>
  <path fill="none" d="M40.29,8.86 L 41.37 8.47"/>
  <path fill="none" d="M40.29,8.07 L 41.37 8.47"/>
  <path fill="none" d="M33.87,8.47 L 41.37 8.47"/>
  <path fill="none" d="M27.45,8.07 L 26.36 8.47"/>
  <path fill="none" d="M27.45,8.86 L 26.36 8.47"/>
  <path fill="none" d="M33.87,8.47 L 26.36 8.47"/>
  <path fill="none" d="M41.5,82.75 L 42.12 83.73"/>
  <path fill="none" d="M42.27,82.58 L 42.12 83.73"/>
  <path fill="none" d="M25.4,8.47 L 42.12 83.73"/>
  <path fill="none" d="M25.01,14.89 L 25.4 15.97"/>
  <path fill="none" d="M25.79,14.89 L 25.4 15.97"/>
  <path fill="none" d="M25.4,8.47 L 25.4 15.97"/>
  <path fill="none" d="M31.82,8.86 L 32.9 8.47"/>
  <path fill="none" d="M31.82,8.07 L 32.9 8.47"/>
  <path fill="none" d="M25.4,8.47 L 32.9 8.47"/>
  <path fill="none" d="M18.98,8.07 L 17.9 8.47"/>
  <path fill="none" d="M18.98,8.86 L 17.9 8.47"/>
  <path fill="none" d="M25.4,8.47 L 17.9 8.47"/>
  <path fill="none" d="M16.54,14.89 L 16.93 15.97"/>
  <path fill="none" d="M17.33,14.89 L 16.93 15.97"/>
  <path fill="none" d="M16.93,8.47 L 16.93 15.97"/>
  <path fill="none" d="M23.35,8.86 L 24.44 8.47"/>
  <path fill="none" d="M23.35,8.07 L 24.44 8.47"/>
  <path fill="none" d="M16.93,8.47 L 24.44 8.47"/>
  <path fill="none" d="M10.51,8.07 L 9.43 8.47"/>
  <path fill="none" d="M10.51,8.86 L 9.43 8.47"/>
  <path fill="none" d="M16.93,8.47 L 9.43 8.47"/>
  <path fill="none" d="M8.07,14.89 L 8.47 15.97"/>
  <path fill="none" d="M8.86,14.89 L 8.47 15.97"/>
  <path fill="none" d="M8.47,8.47 L 8.47 15.97"/>
  <path fill="none" d="M14.89,8.86 L 15.97 8.47"/>
  <path fill="none" d="M14.89,8.07 L 15.97 8.47"/>
  <path fill="none" d="M8.47,8.47 L 15.97 8.47"/>
</g>
<g stroke="#BBBBBB" fill="#AAAAFF" id="fig-b8ef3706ac714ac4b7df8a0804898bfa-element-2">
  <circle cx="93.13" cy="93.13" r="0.96"/>
  <circle cx="84.67" cy="93.13" r="0.96"/>
  <circle cx="76.2" cy="93.13" r="0.96"/>
  <circle cx="67.73" cy="93.13" r="0.96"/>
  <circle cx="59.27" cy="93.13" r="0.96"/>
  <circle cx="50.8" cy="93.13" r="0.96"/>
  <circle cx="42.33" cy="93.13" r="0.96"/>
  <circle cx="33.87" cy="93.13" r="0.96"/>
  <circle cx="25.4" cy="93.13" r="0.96"/>
  <circle cx="16.93" cy="93.13" r="0.96"/>
  <circle cx="8.47" cy="93.13" r="0.96"/>
  <circle cx="93.13" cy="84.67" r="0.96"/>
  <circle cx="84.67" cy="84.67" r="0.96"/>
  <circle cx="76.2" cy="84.67" r="0.96"/>
  <circle cx="67.73" cy="84.67" r="0.96"/>
  <circle cx="59.27" cy="84.67" r="0.96"/>
  <circle cx="50.8" cy="84.67" r="0.96"/>
  <circle cx="42.33" cy="84.67" r="0.96"/>
  <circle cx="33.87" cy="84.67" r="0.96"/>
  <circle cx="25.4" cy="84.67" r="0.96"/>
  <circle cx="16.93" cy="84.67" r="0.96"/>
  <circle cx="8.47" cy="84.67" r="0.96"/>
  <circle cx="93.13" cy="76.2" r="0.96"/>
  <circle cx="84.67" cy="76.2" r="0.96"/>
  <circle cx="76.2" cy="76.2" r="0.96"/>
  <circle cx="67.73" cy="76.2" r="0.96"/>
  <circle cx="59.27" cy="76.2" r="0.96"/>
  <circle cx="50.8" cy="76.2" r="0.96"/>
  <circle cx="42.33" cy="76.2" r="0.96"/>
  <circle cx="33.87" cy="76.2" r="0.96"/>
  <circle cx="25.4" cy="76.2" r="0.96"/>
  <circle cx="16.93" cy="76.2" r="0.96"/>
  <circle cx="8.47" cy="76.2" r="0.96"/>
  <circle cx="93.13" cy="67.73" r="0.96"/>
  <circle cx="84.67" cy="67.73" r="0.96"/>
  <circle cx="76.2" cy="67.73" r="0.96"/>
  <circle cx="67.73" cy="67.73" r="0.96"/>
  <circle cx="59.27" cy="67.73" r="0.96"/>
  <circle cx="50.8" cy="67.73" r="0.96"/>
  <circle cx="42.33" cy="67.73" r="0.96"/>
  <circle cx="33.87" cy="67.73" r="0.96"/>
  <circle cx="25.4" cy="67.73" r="0.96"/>
  <circle cx="16.93" cy="67.73" r="0.96"/>
  <circle cx="8.47" cy="67.73" r="0.96"/>
  <circle cx="93.13" cy="59.27" r="0.96"/>
  <circle cx="84.67" cy="59.27" r="0.96"/>
  <circle cx="76.2" cy="59.27" r="0.96"/>
  <circle cx="67.73" cy="59.27" r="0.96"/>
  <circle cx="59.27" cy="59.27" r="0.96"/>
  <circle cx="50.8" cy="59.27" r="0.96"/>
  <circle cx="42.33" cy="59.27" r="0.96"/>
  <circle cx="33.87" cy="59.27" r="0.96"/>
  <circle cx="25.4" cy="59.27" r="0.96"/>
  <circle cx="16.93" cy="59.27" r="0.96"/>
  <circle cx="8.47" cy="59.27" r="0.96"/>
  <circle cx="93.13" cy="50.8" r="0.96"/>
  <circle cx="84.67" cy="50.8" r="0.96"/>
  <circle cx="76.2" cy="50.8" r="0.96"/>
  <circle cx="67.73" cy="50.8" r="0.96"/>
  <circle cx="59.27" cy="50.8" r="0.96"/>
  <circle cx="50.8" cy="50.8" r="0.96"/>
  <circle cx="42.33" cy="50.8" r="0.96"/>
  <circle cx="33.87" cy="50.8" r="0.96"/>
  <circle cx="25.4" cy="50.8" r="0.96"/>
  <circle cx="16.93" cy="50.8" r="0.96"/>
  <circle cx="8.47" cy="50.8" r="0.96"/>
  <circle cx="93.13" cy="42.33" r="0.96"/>
  <circle cx="84.67" cy="42.33" r="0.96"/>
  <circle cx="76.2" cy="42.33" r="0.96"/>
  <circle cx="67.73" cy="42.33" r="0.96"/>
  <circle cx="59.27" cy="42.33" r="0.96"/>
  <circle cx="50.8" cy="42.33" r="0.96"/>
  <circle cx="42.33" cy="42.33" r="0.96"/>
  <circle cx="33.87" cy="42.33" r="0.96"/>
  <circle cx="25.4" cy="42.33" r="0.96"/>
  <circle cx="16.93" cy="42.33" r="0.96"/>
  <circle cx="8.47" cy="42.33" r="0.96"/>
  <circle cx="93.13" cy="33.87" r="0.96"/>
  <circle cx="84.67" cy="33.87" r="0.96"/>
  <circle cx="76.2" cy="33.87" r="0.96"/>
  <circle cx="67.73" cy="33.87" r="0.96"/>
  <circle cx="59.27" cy="33.87" r="0.96"/>
  <circle cx="50.8" cy="33.87" r="0.96"/>
  <circle cx="42.33" cy="33.87" r="0.96"/>
  <circle cx="33.87" cy="33.87" r="0.96"/>
  <circle cx="25.4" cy="33.87" r="0.96"/>
  <circle cx="16.93" cy="33.87" r="0.96"/>
  <circle cx="8.47" cy="33.87" r="0.96"/>
  <circle cx="93.13" cy="25.4" r="0.96"/>
  <circle cx="84.67" cy="25.4" r="0.96"/>
  <circle cx="76.2" cy="25.4" r="0.96"/>
  <circle cx="67.73" cy="25.4" r="0.96"/>
  <circle cx="59.27" cy="25.4" r="0.96"/>
  <circle cx="50.8" cy="25.4" r="0.96"/>
  <circle cx="42.33" cy="25.4" r="0.96"/>
  <circle cx="33.87" cy="25.4" r="0.96"/>
  <circle cx="25.4" cy="25.4" r="0.96"/>
  <circle cx="16.93" cy="25.4" r="0.96"/>
  <circle cx="8.47" cy="25.4" r="0.96"/>
  <circle cx="93.13" cy="16.93" r="0.96"/>
  <circle cx="84.67" cy="16.93" r="0.96"/>
  <circle cx="76.2" cy="16.93" r="0.96"/>
  <circle cx="67.73" cy="16.93" r="0.96"/>
  <circle cx="59.27" cy="16.93" r="0.96"/>
  <circle cx="50.8" cy="16.93" r="0.96"/>
  <circle cx="42.33" cy="16.93" r="0.96"/>
  <circle cx="33.87" cy="16.93" r="0.96"/>
  <circle cx="25.4" cy="16.93" r="0.96"/>
  <circle cx="16.93" cy="16.93" r="0.96"/>
  <circle cx="8.47" cy="16.93" r="0.96"/>
  <circle cx="93.13" cy="8.47" r="0.96"/>
  <circle cx="84.67" cy="8.47" r="0.96"/>
  <circle cx="76.2" cy="8.47" r="0.96"/>
  <circle cx="67.73" cy="8.47" r="0.96"/>
  <circle cx="59.27" cy="8.47" r="0.96"/>
  <circle cx="50.8" cy="8.47" r="0.96"/>
  <circle cx="42.33" cy="8.47" r="0.96"/>
  <circle cx="33.87" cy="8.47" r="0.96"/>
  <circle cx="25.4" cy="8.47" r="0.96"/>
  <circle cx="16.93" cy="8.47" r="0.96"/>
  <circle cx="8.47" cy="8.47" r="0.96"/>
</g>
<g font-size="4" stroke="#000000" stroke-opacity="0.000" fill="#000000" id="fig-b8ef3706ac714ac4b7df8a0804898bfa-element-3">
</g>
</svg>
