<?xml version="1.0" encoding="UTF-8"?>
<svg xmlns="http://www.w3.org/2000/svg"
     xmlns:xlink="http://www.w3.org/1999/xlink"
     xmlns:gadfly="http://www.gadflyjl.org/ns"
     version="1.2"
     width="101.6mm" height="76.2mm" viewBox="0 0 101.6 76.2"
     stroke="none"
     fill="#000000"
     stroke-width="0.3"
     font-size="3.88"
>
<g class="plotroot xscalable yscalable" id="fig-9254ab86ad734bc2901a1f52b947f3da-element-1">
  <g font-size="3.88" font-family="'PT Sans','Helvetica Neue','Helvetica',sans-serif" fill="#564A55" stroke="#000000" stroke-opacity="0.000" id="fig-9254ab86ad734bc2901a1f52b947f3da-element-2">
    <text x="56.38" y="68.2" text-anchor="middle">x</text>
  </g>
  <g class="guide xlabels" font-size="2.82" font-family="'PT Sans Caption','Helvetica Neue','Helvetica',sans-serif" fill="#6C606B" id="fig-9254ab86ad734bc2901a1f52b947f3da-element-3">
    <text x="18.15" y="60.59" text-anchor="middle">0</text>
    <text x="37.26" y="60.59" text-anchor="middle">5</text>
    <text x="56.38" y="60.59" text-anchor="middle">10</text>
    <text x="75.49" y="60.59" text-anchor="middle">15</text>
    <text x="94.6" y="60.59" text-anchor="middle">20</text>
  </g>
  <g clip-path="url(#fig-9254ab86ad734bc2901a1f52b947f3da-element-5)" id="fig-9254ab86ad734bc2901a1f52b947f3da-element-4">
    <g pointer-events="visible" opacity="1" fill="#000000" fill-opacity="0.000" stroke="#000000" stroke-opacity="0.000" class="guide background" id="fig-9254ab86ad734bc2901a1f52b947f3da-element-6">
      <rect x="16.15" y="5" width="80.45" height="51.91"/>
    </g>
    <g class="guide ygridlines xfixed" stroke-dasharray="0.5,0.5" stroke-width="0.2" stroke="#D0D0E0" id="fig-9254ab86ad734bc2901a1f52b947f3da-element-7">
      <path fill="none" d="M16.15,54.91 L 96.6 54.91"/>
      <path fill="none" d="M16.15,42.94 L 96.6 42.94"/>
      <path fill="none" d="M16.15,30.96 L 96.6 30.96"/>
      <path fill="none" d="M16.15,18.98 L 96.6 18.98"/>
      <path fill="none" d="M16.15,7 L 96.6 7"/>
    </g>
    <g class="guide xgridlines yfixed" stroke-dasharray="0.5,0.5" stroke-width="0.2" stroke="#D0D0E0" id="fig-9254ab86ad734bc2901a1f52b947f3da-element-8">
      <path fill="none" d="M18.15,5 L 18.15 56.91"/>
      <path fill="none" d="M37.26,5 L 37.26 56.91"/>
      <path fill="none" d="M56.38,5 L 56.38 56.91"/>
      <path fill="none" d="M75.49,5 L 75.49 56.91"/>
      <path fill="none" d="M94.6,5 L 94.6 56.91"/>
    </g>
    <g class="plotpanel" id="fig-9254ab86ad734bc2901a1f52b947f3da-element-9">
      <g class="geometry" id="fig-9254ab86ad734bc2901a1f52b947f3da-element-10">
        <g class="color_AlphaColorValue{RGB{Float32},Float32}(RGB{Float32}(0.0f0,0.74736935f0,1.0f0),1.0f0)" stroke="#FFFFFF" stroke-width="0.3" fill="#00BFFF" id="fig-9254ab86ad734bc2901a1f52b947f3da-element-11">
          <circle cx="21.97" cy="16.43" r="0.9"/>
          <circle cx="25.8" cy="27.99" r="0.9"/>
          <circle cx="29.62" cy="33.03" r="0.9"/>
          <circle cx="33.44" cy="36.19" r="0.9"/>
          <circle cx="37.26" cy="38.24" r="0.9"/>
          <circle cx="41.09" cy="39.84" r="0.9"/>
          <circle cx="44.91" cy="41.01" r="0.9"/>
          <circle cx="48.73" cy="42.04" r="0.9"/>
          <circle cx="52.55" cy="42.85" r="0.9"/>
          <circle cx="56.38" cy="43.43" r="0.9"/>
          <circle cx="60.2" cy="44.1" r="0.9"/>
          <circle cx="64.02" cy="44.39" r="0.9"/>
          <circle cx="67.84" cy="45.03" r="0.9"/>
          <circle cx="71.67" cy="45.11" r="0.9"/>
          <circle cx="75.49" cy="45.6" r="0.9"/>
          <circle cx="79.31" cy="45.75" r="0.9"/>
        </g>
      </g>
    </g>
  </g>
  <g class="guide ylabels" font-size="2.82" font-family="'PT Sans Caption','Helvetica Neue','Helvetica',sans-serif" fill="#6C606B" id="fig-9254ab86ad734bc2901a1f52b947f3da-element-12">
    <text x="15.15" y="54.91" text-anchor="end" dy="0.35em">0</text>
    <text x="15.15" y="42.94" text-anchor="end" dy="0.35em">10</text>
    <text x="15.15" y="30.96" text-anchor="end" dy="0.35em">20</text>
    <text x="15.15" y="18.98" text-anchor="end" dy="0.35em">30</text>
    <text x="15.15" y="7" text-anchor="end" dy="0.35em">40</text>
  </g>
  <g font-size="3.88" font-family="'PT Sans','Helvetica Neue','Helvetica',sans-serif" fill="#564A55" stroke="#000000" stroke-opacity="0.000" id="fig-9254ab86ad734bc2901a1f52b947f3da-element-13">
    <text x="8.81" y="30.96" text-anchor="end" dy="0.35em">y</text>
  </g>
</g>
<defs>
<clipPath id="fig-9254ab86ad734bc2901a1f52b947f3da-element-5">
  <path d="M16.15,5 L 96.6 5 96.6 56.91 16.15 56.91" />
</clipPath
></defs>
</svg>
